<?xml version="1.0" standalone="no"?>
<!DOCTYPE svg PUBLIC "-//W3C//DTD SVG 1.1//EN" "http://www.w3.org/Graphics/SVG/1.1/DTD/svg11.dtd" >
<svg xmlns="http://www.w3.org/2000/svg">
<metadata>Generated by IcoMoon</metadata>
<defs>
<font id="icomoon" horiz-adv-x="1024">
<font-face units-per-em="1024" ascent="960" descent="-64" />
<missing-glyph horiz-adv-x="1024" />
<glyph unicode="&#x20;" d="" horiz-adv-x="512" />
<glyph unicode="&#xe04c;" d="M978.84 703.748c-10.588 0-21.458-3.722-31.436-10.766l-179.404-126.614v105.632c0 52.8-43.2 96-96 96h-576c-52.8 0-96-43.2-96-96v-448c0-52.8 43.2-96 96-96h576c52.8 0 96 43.2 96 96v105.63l179.402-126.614c9.978-7.042 20.848-10.764 31.434-10.766 0.002 0 0.002 0 0.006 0 14.088 0 26.954 6.496 35.292 17.822 6.456 8.77 9.868 20.054 9.868 32.636v410.582c-0.002 33.126-22.72 50.458-45.162 50.458z" />
<glyph unicode="&#xe0c7;" d="M977.582 765.538c-33.984 9.708-69.41-9.97-79.12-43.956l-5.022-17.582h-596.942l-8.992 71.938c-4.004 32.028-31.23 56.062-63.506 56.062h-160c-35.346 0-64-28.654-64-64s28.654-64 64-64h103.502l56.992-455.938c4.004-32.026 31.23-56.062 63.506-56.062h544c28.574 0 53.688 18.944 61.538 46.418l128 448c9.71 33.986-9.97 69.41-43.956 79.12zM875.154 640l-18.288-64h-544.368l-8 64h570.656zM838.582 512l-18.286-64h-491.798l-8 64h518.084zM344.498 320l-8 64h465.512l-18.286-64h-439.226zM256 32c0 53.019 42.981 96 96 96s96-42.981 96-96c0-53.019-42.981-96-96-96s-96 42.981-96 96zM640 32c0 53.019 42.981 96 96 96s96-42.981 96-96c0-53.019-42.981-96-96-96s-96 42.981-96 96z" />
<glyph unicode="&#xe1b0;" d="M512 960c-278.748 0-505.458-222.762-511.848-499.974 5.92 241.864 189.832 435.974 415.848 435.974 229.75 0 416-200.576 416-448 0-53.020 42.98-96 96-96s96 42.98 96 96c0 282.77-229.23 512-512 512zM512-64c278.748 0 505.458 222.762 511.848 499.974-5.92-241.864-189.832-435.974-415.848-435.974-229.75 0-416 200.576-416 448 0 53.020-42.98 96-96 96s-96-42.98-96-96c0-282.77 229.23-512 512-512z" />
<glyph unicode="&#xe1c8;" d="M1024 960v-416l-160 160-192-192-96 96 192 192-160 160zM448 288l-192-192 160-160h-416v416l160-160 192 192z" />
<glyph unicode="&#xe1c9;" d="M448 384v-416l-160 160-192-192-96 96 192 192-160 160zM1024 864l-192-192 160-160h-416v416l160-160 192 192z" />
<glyph unicode="&#xe1ce;" d="M960 576h-482.256c-44.264 76.516-126.99 128-221.744 128-141.384 0-256-114.616-256-256 0-141.382 114.616-256 256-256 94.754 0 177.478 51.484 221.744 128h34.256l64 64h64v-64h64l64 64h64v-64h64l128 128-64 128zM192 357.49c-49.988 0-90.51 40.524-90.51 90.51 0 49.988 40.522 90.51 90.51 90.51s90.51-40.522 90.51-90.51c0-49.986-40.522-90.51-90.51-90.51zM512 480v32h384l16-32h-400z" />
<glyph unicode="&#xe2ab;" d="M320 448c0 106.039 85.961 192 192 192s192-85.961 192-192c0-106.039-85.961-192-192-192s-192 85.961-192 192z" />
<glyph unicode="&#xe300;" d="M1024 562.95l-353.78 51.408-158.22 320.582-158.216-320.582-353.784-51.408 256-249.538-60.432-352.352 316.432 166.358 316.432-166.358-60.434 352.352 256.002 249.538zM512 206.502l-0.942-0.496 0.942 570.768 111.736-226.396 249.836-36.304-180.788-176.222 42.678-248.83-223.462 117.48z" />
<glyph unicode="&#xe3ae;" d="M832 768l-192 192-512-512 512-512 192 192-320 320zM0 960v-1024h128v1024z" />
<glyph unicode="&#xe3af;" d="M192 128l192-192 512 512-512 512-192-192 320-320zM1024-64v1024h-128v-1024z" />
<glyph unicode="&#xe3b0;" d="M0 320l192-192 320 320 320-320 192 192-511.998 512z" />
<glyph unicode="&#xe3b1;" d="M384 960l-192-192 320-320-320-320 192-192 512 512z" />
<glyph unicode="&#xe3b2;" d="M1024 576l-192 192-320-320-320 320-192-192 512-511.998z" />
<glyph unicode="&#xe3b3;" d="M640-64l192 192-320 320 320 320-192 192-512-512z" />
<glyph unicode="&#xe600;" d="M922.142 146.682h-820.104c-22.748 0-41.256 19.508-41.256 43.482v505.826c0 23.98 18.508 43.49 41.256 43.49h820.104c22.75 0 41.262-19.51 41.262-43.49v-505.826c-0.002-23.974-18.512-43.482-41.262-43.482zM107.706 193.606h808.774v498.95h-808.774v-498.95zM84.244 599.196h852.736v-93.564h-852.736v93.564zM936.982 492.62h-852.738c-7.186 0-13.012 5.824-13.012 13.012v93.568c0 7.186 5.824 13.012 13.012 13.012h852.74c7.186 0 13.012-5.824 13.012-13.012v-93.568c-0.002-7.188-5.826-13.012-13.014-13.012zM97.256 518.642h826.716v67.544h-826.716v-67.544zM530.244 337.934h-366.082c-7.186 0-13.012 5.824-13.012 13.012v59.798c0 7.186 5.824 13.012 13.012 13.012h366.082c7.186 0 13.012-5.824 13.012-13.012v-59.798c0-7.188-5.826-13.012-13.012-13.012zM177.174 363.956h340.060v33.774h-340.060v-33.774z" />
<glyph unicode="&#xe601;" d="M954.857 636.571q0-22.857-16-38.857l-491.429-491.429q-16-16-38.857-16t-38.857 16l-284.571 284.571q-16 16-16 38.857t16 38.857l77.714 77.714q16 16 38.857 16t38.857-16l168-168.571 374.857 375.429q16 16 38.857 16t38.857-16l77.714-77.714q16-16 16-38.857z" />
<glyph unicode="&#xe602;" d="M885.508 394.882h-160.738c-11.026 0-19.994 8.97-19.994 19.994v126.102c0 11.026 8.97 19.996 19.994 19.996h75.69c8.168 0 17.376-4.508 22.384-10.964l75.236-96.972c4.296-5.536 7.42-14.656 7.42-21.676v-16.482c-0.002-11.028-8.972-19.998-19.992-19.998zM728.756 418.862h152.762v12.496c0 1.752-1.316 5.598-2.384 6.974l-75.24 96.976c-0.58 0.642-2.572 1.616-3.504 1.686l-71.634-0.002v-118.13zM623.122 761.966h-559.614c-25.184 0-45.674-20.49-45.674-45.674v-449.324c0-25.184 20.49-45.672 45.674-45.672h50.736c6.272-50.526 49.44-89.77 101.63-89.77 52.186 0 95.354 39.242 101.624 89.77h305.624c25.184 0 45.672 20.486 45.672 45.672v449.324c0 25.184-20.486 45.674-45.672 45.674zM216.712 172.4c-33.71 0-61.036 27.326-61.036 61.036s27.326 61.036 61.036 61.036c33.71 0 61.036-27.326 61.036-61.036 0-33.708-27.328-61.036-61.036-61.036zM625.628 266.968c0-1.334-1.172-2.506-2.506-2.506h-309.434c-13 41.678-51.934 72.018-97.814 72.018-45.884 0-84.818-30.338-97.82-72.018h-54.546c-1.338 0-2.508 1.17-2.508 2.506v449.324c0 1.338 1.17 2.508 2.508 2.508h559.614c1.334 0 2.506-1.172 2.506-2.508v-449.324zM998.376 449.36l-140.64 165.958c-9.218 10.878-25.616 18.476-39.878 18.476h-170.648v-43.166l170.564 0.002c1.84-0.11 5.812-1.948 7.030-3.218l140.64-165.954c1.752-2.070 4.074-8.408 4.074-11.114v-145.88h-50.482c-13 41.678-51.932 72.018-97.814 72.018-45.884 0-84.816-30.338-97.814-72.018h-98.58v-43.166h94.77c6.272-50.526 49.436-89.77 101.624-89.77s95.354 39.242 101.624 89.77h54.040c19.738 0 35.798 16.060 35.798 35.798v153.248c0.002 13.024-5.882 29.066-14.308 39.016zM821.984 173.002c-33.854 0-61.298 27.444-61.298 61.298s27.444 61.298 61.298 61.298 61.298-27.444 61.298-61.298-27.444-61.298-61.298-61.298z" />
<glyph unicode="&#xe603;" d="M741.714 204.571q0-22.857-16-38.857l-77.714-77.714q-16-16-38.857-16t-38.857 16l-168 168-168-168q-16-16-38.857-16t-38.857 16l-77.714 77.714q-16 16-16 38.857t16 38.857l168 168-168 168q-16 16-16 38.857t16 38.857l77.714 77.714q16 16 38.857 16t38.857-16l168-168 168 168q16 16 38.857 16t38.857-16l77.714-77.714q16-16 16-38.857t-16-38.857l-168-168 168-168q16-16 16-38.857z" horiz-adv-x="805" />
<glyph unicode="&#xe604;" d="M950.857 590.286q0-12.571-14.857-27.429l-207.429-202.286 49.143-285.714q0.571-4 0.571-11.429 0-12-6-20.286t-17.429-8.286q-10.857 0-22.857 6.857l-256.571 134.857-256.571-134.857q-12.571-6.857-22.857-6.857-12 0-18 8.286t-6 20.286q0 3.429 1.143 11.429l49.143 285.714-208 202.286q-14.286 15.429-14.286 27.429 0 21.143 32 26.286l286.857 41.714 128.571 260q10.857 23.429 28 23.429t28-23.429l128.571-260 286.857-41.714q32-5.143 32-26.286z" horiz-adv-x="951" />
<glyph unicode="&#xe605;" d="M649.714 386.286l174.857 169.714-241.143 35.429-108 218.286-108-218.286-241.143-35.429 174.857-169.714-41.714-240.571 216 113.714 215.429-113.714zM950.857 590.286q0-12.571-14.857-27.429l-207.429-202.286 49.143-285.714q0.571-4 0.571-11.429 0-28.571-23.429-28.571-10.857 0-22.857 6.857l-256.571 134.857-256.571-134.857q-12.571-6.857-22.857-6.857-12 0-18 8.286t-6 20.286q0 3.429 1.143 11.429l49.143 285.714-208 202.286q-14.286 15.429-14.286 27.429 0 21.143 32 26.286l286.857 41.714 128.571 260q10.857 23.429 28 23.429t28-23.429l128.571-260 286.857-41.714q32-5.143 32-26.286z" horiz-adv-x="951" />
<glyph unicode="&#xe606;" d="M585.143 502.857v-36.571q0-7.429-5.429-12.857t-12.857-5.429h-128v-128q0-7.429-5.429-12.857t-12.857-5.429h-36.571q-7.429 0-12.857 5.429t-5.429 12.857v128h-128q-7.429 0-12.857 5.429t-5.429 12.857v36.571q0 7.429 5.429 12.857t12.857 5.429h128v128q0 7.429 5.429 12.857t12.857 5.429h36.571q7.429 0 12.857-5.429t5.429-12.857v-128h128q7.429 0 12.857-5.429t5.429-12.857zM658.286 484.571q0 105.714-75.143 180.857t-180.857 75.143-180.857-75.143-75.143-180.857 75.143-180.857 180.857-75.143 180.857 75.143 75.143 180.857zM950.857 9.143q0-30.286-21.429-51.714t-51.714-21.429q-30.857 0-51.429 21.714l-196 195.429q-102.286-70.857-228-70.857-81.714 0-156.286 31.714t-128.571 85.714-85.714 128.571-31.714 156.286 31.714 156.286 85.714 128.571 128.571 85.714 156.286 31.714 156.286-31.714 128.571-85.714 85.714-128.571 31.714-156.286q0-125.714-70.857-228l196-196q21.143-21.143 21.143-51.429z" horiz-adv-x="951" />
<glyph unicode="&#xe607;" d="M585.143 502.857v-36.571q0-7.429-5.429-12.857t-12.857-5.429h-329.143q-7.429 0-12.857 5.429t-5.429 12.857v36.571q0 7.429 5.429 12.857t12.857 5.429h329.143q7.429 0 12.857-5.429t5.429-12.857zM658.286 484.571q0 105.714-75.143 180.857t-180.857 75.143-180.857-75.143-75.143-180.857 75.143-180.857 180.857-75.143 180.857 75.143 75.143 180.857zM950.857 9.143q0-30.286-21.429-51.714t-51.714-21.429q-30.857 0-51.429 21.714l-196 195.429q-102.286-70.857-228-70.857-81.714 0-156.286 31.714t-128.571 85.714-85.714 128.571-31.714 156.286 31.714 156.286 85.714 128.571 128.571 85.714 156.286 31.714 156.286-31.714 128.571-85.714 85.714-128.571 31.714-156.286q0-125.714-70.857-228l196-196q21.143-21.143 21.143-51.429z" horiz-adv-x="951" />
<glyph unicode="&#xe608;" d="M621.714 429.714v-36.571q0-7.429-5.429-12.857t-12.857-5.429h-219.429q-7.429 0-12.857 5.429t-5.429 12.857v256q0 7.429 5.429 12.857t12.857 5.429h36.571q7.429 0 12.857-5.429t5.429-12.857v-201.143h164.571q7.429 0 12.857-5.429t5.429-12.857zM731.429 448q0 59.429-23.143 113.429t-62.571 93.429-93.429 62.571-113.429 23.143-113.429-23.143-93.429-62.571-62.571-93.429-23.143-113.429 23.143-113.429 62.571-93.429 93.429-62.571 113.429-23.143 113.429 23.143 93.429 62.571 62.571 93.429 23.143 113.429zM877.714 448q0-119.429-58.857-220.286t-159.714-159.714-220.286-58.857-220.286 58.857-159.714 159.714-58.857 220.286 58.857 220.286 159.714 159.714 220.286 58.857 220.286-58.857 159.714-159.714 58.857-220.286z" horiz-adv-x="878" />
<glyph unicode="&#xe609;" d="M585.143 448q0 60.571-42.857 103.429t-103.429 42.857-103.429-42.857-42.857-103.429 42.857-103.429 103.429-42.857 103.429 42.857 42.857 103.429zM877.714 510.286v-126.857q0-6.857-4.571-13.143t-11.429-7.429l-105.714-16q-10.857-30.857-22.286-52 20-28.571 61.143-78.857 5.714-6.857 5.714-14.286t-5.143-13.143q-15.429-21.143-56.571-61.714t-53.714-40.571q-6.857 0-14.857 5.143l-78.857 61.714q-25.143-13.143-52-21.714-9.143-77.714-16.571-106.286-4-16-20.571-16h-126.857q-8 0-14 4.857t-6.571 12.286l-16 105.143q-28 9.143-51.429 21.143l-80.571-61.143q-5.714-5.143-14.286-5.143-8 0-14.286 6.286-72 65.143-94.286 96-4 5.714-4 13.143 0 6.857 4.571 13.143 8.571 12 29.143 38t30.857 40.286q-15.429 28.571-23.429 56.571l-104.571 15.429q-7.429 1.143-12 7.143t-4.571 13.429v126.857q0 6.857 4.571 13.143t10.857 7.429l106.286 16q8 26.286 22.286 52.571-22.857 32.571-61.143 78.857-5.714 6.857-5.714 13.714 0 5.714 5.143 13.143 14.857 20.571 56.286 61.429t54 40.857q7.429 0 14.857-5.714l78.857-61.143q25.143 13.143 52 21.714 9.143 77.714 16.571 106.286 4 16 20.571 16h126.857q8 0 14-4.857t6.571-12.286l16-105.143q28-9.143 51.429-21.143l81.143 61.143q5.143 5.143 13.714 5.143 7.429 0 14.286-5.714 73.714-68 94.286-97.143 4-4.571 4-12.571 0-6.857-4.571-13.143-8.571-12-29.143-38t-30.857-40.286q14.857-28.571 23.429-56l104.571-16q7.429-1.143 12-7.143t4.571-13.429z" horiz-adv-x="878" />
<glyph unicode="&#xe60a;" d="M292.571 539.429v-329.143q0-8-5.143-13.143t-13.143-5.143h-36.571q-8 0-13.143 5.143t-5.143 13.143v329.143q0 8 5.143 13.143t13.143 5.143h36.571q8 0 13.143-5.143t5.143-13.143zM438.857 539.429v-329.143q0-8-5.143-13.143t-13.143-5.143h-36.571q-8 0-13.143 5.143t-5.143 13.143v329.143q0 8 5.143 13.143t13.143 5.143h36.571q8 0 13.143-5.143t5.143-13.143zM585.143 539.429v-329.143q0-8-5.143-13.143t-13.143-5.143h-36.571q-8 0-13.143 5.143t-5.143 13.143v329.143q0 8 5.143 13.143t13.143 5.143h36.571q8 0 13.143-5.143t5.143-13.143zM658.286 125.714v541.714h-512v-541.714q0-12.571 4-23.143t8.286-15.429 6-4.857h475.429q1.714 0 6 4.857t8.286 15.429 4 23.143zM274.286 740.571h256l-27.429 66.857q-4 5.143-9.714 6.286h-181.143q-5.714-1.143-9.714-6.286zM804.571 722.286v-36.571q0-8-5.143-13.143t-13.143-5.143h-54.857v-541.714q0-47.429-26.857-82t-64.571-34.571h-475.429q-37.714 0-64.571 33.429t-26.857 80.857v544h-54.857q-8 0-13.143 5.143t-5.143 13.143v36.571q0 8 5.143 13.143t13.143 5.143h176.571l40 95.429q8.571 21.143 30.857 36t45.143 14.857h182.857q22.857 0 45.143-14.857t30.857-36l40-95.429h176.571q8 0 13.143-5.143t5.143-13.143z" horiz-adv-x="805" />
<glyph unicode="&#xe60c;" d="M924.542 603.852h-225.968c-11.872 0-21.496-9.63-21.496-21.496 0-11.874 9.624-21.496 21.496-21.496h195.026l-389.138-236.044-359.072 236.044h165.054c11.872 0 21.496 9.622 21.496 21.496 0 11.864-9.624 21.496-21.496 21.496h-213.462c-21.182 0-38.418-17.238-38.418-38.42v-408.494c0-21.19 17.236-38.418 38.418-38.418h827.56c21.182 0 38.42 17.23 38.42 38.418v408.494c0 21.18-17.236 38.42-38.42 38.42zM684.666 383.84l235.304 142.724v-344.094l-235.304 201.37zM504 277.896c3.858 0 7.72 1.036 11.148 3.116l148.022 89.788 244.56-209.29h-786.84l240.552 205.87 130.752-85.948c3.578-2.356 7.688-3.536 11.806-3.536zM101.554 538.23l239.114-157.19-239.114-204.636v361.826zM633.066 758.48c-7.93 15.282-18.388 27.466-31.432 36.542-12.992 9.070-27.226 15.908-42.656 20.536-15.38 4.588-31.384 6.93-47.958 6.93-42.896 0-78.864-13.852-107.812-41.51-28.992-27.614-43.468-61.336-43.468-101.082 0-22.922 4.204-43.656 12.658-62.194 8.408-18.578 19.538-33.574 33.388-45.042 13.808-11.466 29.090-20.206 45.808-26.272 16.718-6.016 33.872-9.078 51.542-9.078 42.37 0 76.572 11.846 102.7 35.636 0.526 0.432 1.054 0.908 1.53 1.382 2.296 2.44 3.678 5.644 3.678 9.268 0 7.546-6.066 13.612-13.614 13.612-2.342 0-4.538-0.572-6.446-1.622-1.148-0.958-2.296-1.866-3.49-2.724-19.49-14.426-47.622-21.59-84.358-21.59-29.756 0-54.262 10.22-73.466 30.618-19.25 20.398-28.852 46.382-28.852 78.002 0 29.764 10.464 55.27 31.384 76.626 20.968 21.298 47.194 31.954 78.816 31.954 12.898 0 24.886-1.24 35.922-3.724 11.082-2.536 21.876-6.734 32.386-12.66 10.556-5.922 18.822-14.618 24.886-26.032 6.068-11.464 9.078-25.078 9.078-40.888 0-23.69-4.204-40.8-12.612-51.35-8.454-10.512-17.388-15.768-26.896-15.768-7.068 0-10.65 3.532-10.65 10.654 0 2.864 0.956 9.216 2.77 18.96l12.132 62.434c0.094 0.286 0.14 0.572 0.192 0.91 0.192 1.004 0.284 2.050 0.284 3.152 0 7.45-4.44 13.9-10.84 16.812-2.296 1.054-4.874 1.628-7.596 1.628-2.676 0-5.208-0.574-7.498-1.628-4.586-2.050-8.168-5.92-9.844-10.696l-0.904-5.112c-0.050 0.054-0.050 0.054-0.098 0.096-11.27 13.136-24.838 19.678-40.602 19.678-24.742 0-43.85-7.778-57.272-23.302s-20.11-35.404-20.11-59.618c0-18.968 5.83-34.632 17.58-47.004 11.704-12.418 25.46-18.58 41.27-18.58 16.576 0 29.472 6.45 38.694 19.342h0.76c3.728-12.894 12.66-19.342 26.896-19.342 5.782 0 12.276 0.858 19.538 2.58 7.212 1.714 15.524 4.872 24.886 9.458 9.314 4.632 17.672 10.466 25.078 17.578 7.356 7.118 13.612 16.772 18.772 29.040 5.112 12.228 7.692 25.988 7.692 41.276 0.004 19.488-3.962 36.822-11.846 52.114zM520.1 651.048c-7.646-8.69-16.864-12.992-27.658-12.992-8.934 0-16.718 3.012-23.312 9.078-6.542 6.016-9.84 15.524-9.84 28.42 0 13.664 3.678 25.078 11.034 34.154 7.406 9.078 16.338 13.614 26.844 13.614 22.932 0 34.394-13.040 34.394-39.072-0.002-13.424-3.822-24.508-11.462-33.202z" />
<glyph unicode="&#xe60d;" d="M405.272 214.14c-91.174 0-176.892 35.51-241.368 99.98-133.076 133.086-133.070 349.626 0.010 482.712 64.476 64.472 150.194 99.976 241.368 99.976 91.168 0 176.882-35.504 241.352-99.98 64.46-64.46 99.97-150.174 99.97-241.348s-35.51-176.892-99.98-241.358c-64.46-64.474-150.18-99.982-241.352-99.982zM405.282 800.866c-65.548 0-127.172-25.526-173.524-71.878-95.676-95.676-95.682-251.352-0.010-347.022 46.352-46.358 107.982-71.884 173.524-71.884 65.548 0 127.168 25.526 173.514 71.878 46.352 46.352 71.878 107.97 71.878 173.52 0 65.544-25.526 127.168-71.872 173.508-46.348 46.35-107.968 71.878-173.51 71.878zM855.246-1.782c-1.364 0-2.718 0.020-4.080 0.062-29.316 1.030-57.058 13.21-78.13 34.282l-168.080 168.086 67.838 67.834 168.074-168.086c3.79-3.79 8.776-6.058 13.668-6.226 2.624-0.166 6.298 0.364 8.994 3.050 2.686 2.696 3.144 6.372 3.050 8.984-0.178 4.892-2.446 9.87-6.236 13.658l-165.774 165.784 67.854 67.838 165.764-165.78c21.060-21.060 33.24-48.814 34.27-78.13 1.072-30.586-9.962-59.068-31.096-80.19-20.18-20.192-47.080-31.166-76.116-31.166z" horiz-adv-x="951" />
<glyph unicode="&#xe60e;" d="M936.571 686.857q22.857-32.571 10.286-73.714l-157.143-517.714q-10.857-36.571-43.714-61.429t-70-24.857h-527.429q-44 0-84.857 30.571t-56.857 75.143q-13.714 38.286-1.143 72.571 0 2.286 1.714 15.429t2.286 21.143q0.571 4.571-1.714 12.286t-1.714 11.143q1.143 6.286 4.571 12t9.429 13.429 9.429 13.429q13.143 21.714 25.714 52.286t17.143 52.286q1.714 5.714 0.286 17.143t-0.286 16q1.714 6.286 9.714 16t9.714 13.143q12 20.571 24 52.571t14.286 51.429q0.571 5.143-1.429 18.286t0.286 16q2.286 7.429 12.571 17.429t12.571 12.857q10.857 14.857 24.286 48.286t15.714 55.143q0.571 4.571-1.714 14.571t-1.143 15.143q1.143 4.571 5.143 10.286t10.286 13.143 9.714 12q4.571 6.857 9.429 17.429t8.571 20 9.143 20.571 11.143 18.286 15.143 13.429 20.571 6.571 27.143-3.143l-0.571-1.714q21.714 5.143 29.143 5.143h434.857q42.286 0 65.143-32t10.286-74.286l-156.571-517.714q-20.571-68-40.857-87.714t-73.429-19.714h-496.571q-15.429 0-21.714-8.571-6.286-9.143-0.571-24.571 13.714-40 82.286-40h527.429q16.571 0 32 8.857t20 23.714l171.429 564q4 12.571 2.857 32.571 21.714-8.571 33.714-24.571zM328.571 685.714q-2.286-7.429 1.143-12.857t11.429-5.429h347.429q7.429 0 14.571 5.429t9.429 12.857l12 36.571q2.286 7.429-1.143 12.857t-11.429 5.429h-347.429q-7.429 0-14.571-5.429t-9.429-12.857zM281.143 539.429q-2.286-7.429 1.143-12.857t11.429-5.429h347.429q7.429 0 14.571 5.429t9.429 12.857l12 36.571q2.286 7.429-1.143 12.857t-11.429 5.429h-347.429q-7.429 0-14.571-5.429t-9.429-12.857z" horiz-adv-x="951" />
<glyph unicode="&#xe60f;" d="M548.571 576q68 0 116.286-48.286t48.286-116.286-48.286-116.286-116.286-48.286-116.286 48.286-48.286 116.286 48.286 116.286 116.286 48.286zM950.857 813.714q60.571 0 103.429-42.857t42.857-103.429v-512q0-60.571-42.857-103.429t-103.429-42.857h-804.571q-60.571 0-103.429 42.857t-42.857 103.429v512q0 60.571 42.857 103.429t103.429 42.857h128l29.143 77.714q10.857 28 39.714 48.286t59.143 20.286h292.571q30.286 0 59.143-20.286t39.714-48.286l29.143-77.714h128zM548.571 155.429q105.714 0 180.857 75.143t75.143 180.857-75.143 180.857-180.857 75.143-180.857-75.143-75.143-180.857 75.143-180.857 180.857-75.143z" horiz-adv-x="1097" />
<glyph unicode="&#xe610;" d="M219.429 82.286h512v146.286h-512v-146.286zM219.429 448h512v219.429h-91.429q-22.857 0-38.857 16t-16 38.857v91.429h-365.714v-365.714zM877.714 411.429q0 14.857-10.857 25.714t-25.714 10.857-25.714-10.857-10.857-25.714 10.857-25.714 25.714-10.857 25.714 10.857 10.857 25.714zM950.857 411.429v-237.714q0-7.429-5.429-12.857t-12.857-5.429h-128v-91.429q0-22.857-16-38.857t-38.857-16h-548.571q-22.857 0-38.857 16t-16 38.857v91.429h-128q-7.429 0-12.857 5.429t-5.429 12.857v237.714q0 45.143 32.286 77.429t77.429 32.286h36.571v310.857q0 22.857 16 38.857t38.857 16h384q22.857 0 50.286-11.429t43.429-27.429l86.857-86.857q16-16 27.429-43.429t11.429-50.286v-146.286h36.571q45.143 0 77.429-32.286t32.286-77.429z" horiz-adv-x="951" />
<glyph unicode="&#xe611;" d="M365.714 630.857q0-45.714-32-77.714t-77.714-32-77.714 32-32 77.714 32 77.714 77.714 32 77.714-32 32-77.714zM950.857 411.429v-256h-804.571v109.714l182.857 182.857 91.429-91.429 292.571 292.571zM1005.714 813.714h-914.286q-7.429 0-12.857-5.429t-5.429-12.857v-694.857q0-7.429 5.429-12.857t12.857-5.429h914.286q7.429 0 12.857 5.429t5.429 12.857v694.857q0 7.429-5.429 12.857t-12.857 5.429zM1097.143 795.429v-694.857q0-37.714-26.857-64.571t-64.571-26.857h-914.286q-37.714 0-64.571 26.857t-26.857 64.571v694.857q0 37.714 26.857 64.571t64.571 26.857h914.286q37.714 0 64.571-26.857t26.857-64.571z" horiz-adv-x="1097" />
<glyph unicode="&#xe612;" d="M804.571 428.571v-181.714q0-68-48.286-116.286t-116.286-48.286h-475.429q-68 0-116.286 48.286t-48.286 116.286v475.429q0 68 48.286 116.286t116.286 48.286h475.429q36 0 66.857-14.286 8.571-4 10.286-13.143 1.714-9.714-5.143-16.571l-28-28q-5.714-5.714-13.143-5.714-1.714 0-5.143 1.143-13.143 3.429-25.714 3.429h-475.429q-37.714 0-64.571-26.857t-26.857-64.571v-475.429q0-37.714 26.857-64.571t64.571-26.857h475.429q37.714 0 64.571 26.857t26.857 64.571v145.143q0 7.429 5.143 12.571l36.571 36.571q5.714 5.714 13.143 5.714 3.429 0 6.857-1.714 11.429-4.571 11.429-16.571zM936.571 708l-465.143-465.143q-13.714-13.714-32.571-13.714t-32.571 13.714l-245.714 245.714q-13.714 13.714-13.714 32.571t13.714 32.571l62.857 62.857q13.714 13.714 32.571 13.714t32.571-13.714l150.286-150.286 369.714 369.714q13.714 13.714 32.571 13.714t32.571-13.714l62.857-62.857q13.714-13.714 13.714-32.571t-13.714-32.571z" horiz-adv-x="951" />
<glyph unicode="&#xe613;" d="M694.857 411.429v73.143q0 14.857-10.857 25.714t-25.714 10.857h-146.286v146.286q0 14.857-10.857 25.714t-25.714 10.857h-73.143q-14.857 0-25.714-10.857t-10.857-25.714v-146.286h-146.286q-14.857 0-25.714-10.857t-10.857-25.714v-73.143q0-14.857 10.857-25.714t25.714-10.857h146.286v-146.286q0-14.857 10.857-25.714t25.714-10.857h73.143q14.857 0 25.714 10.857t10.857 25.714v146.286h146.286q14.857 0 25.714 10.857t10.857 25.714zM877.714 448q0-119.429-58.857-220.286t-159.714-159.714-220.286-58.857-220.286 58.857-159.714 159.714-58.857 220.286 58.857 220.286 159.714 159.714 220.286 58.857 220.286-58.857 159.714-159.714 58.857-220.286z" horiz-adv-x="878" />
<glyph unicode="&#xe614;" d="M694.857 411.429v73.143q0 14.857-10.857 25.714t-25.714 10.857h-438.857q-14.857 0-25.714-10.857t-10.857-25.714v-73.143q0-14.857 10.857-25.714t25.714-10.857h438.857q14.857 0 25.714 10.857t10.857 25.714zM877.714 448q0-119.429-58.857-220.286t-159.714-159.714-220.286-58.857-220.286 58.857-159.714 159.714-58.857 220.286 58.857 220.286 159.714 159.714 220.286 58.857 220.286-58.857 159.714-159.714 58.857-220.286z" horiz-adv-x="878" />
<glyph unicode="&#xe615;" d="M656.571 318.857q0 14.857-10.857 25.714l-103.429 103.429 103.429 103.429q10.857 10.857 10.857 25.714 0 15.429-10.857 26.286l-51.429 51.429q-10.857 10.857-26.286 10.857-14.857 0-25.714-10.857l-103.429-103.429-103.429 103.429q-10.857 10.857-25.714 10.857-15.429 0-26.286-10.857l-51.429-51.429q-10.857-10.857-10.857-26.286 0-14.857 10.857-25.714l103.429-103.429-103.429-103.429q-10.857-10.857-10.857-25.714 0-15.429 10.857-26.286l51.429-51.429q10.857-10.857 26.286-10.857 14.857 0 25.714 10.857l103.429 103.429 103.429-103.429q10.857-10.857 25.714-10.857 15.429 0 26.286 10.857l51.429 51.429q10.857 10.857 10.857 26.286zM877.714 448q0-119.429-58.857-220.286t-159.714-159.714-220.286-58.857-220.286 58.857-159.714 159.714-58.857 220.286 58.857 220.286 159.714 159.714 220.286 58.857 220.286-58.857 159.714-159.714 58.857-220.286z" horiz-adv-x="878" />
<glyph unicode="&#xe616;" d="M733.714 540.571q0 16-10.286 26.286l-52 51.429q-10.857 10.857-25.714 10.857t-25.714-10.857l-233.143-232.571-129.143 129.143q-10.857 10.857-25.714 10.857t-25.714-10.857l-52-51.429q-10.286-10.286-10.286-26.286 0-15.429 10.286-25.714l206.857-206.857q10.857-10.857 25.714-10.857 15.429 0 26.286 10.857l310.286 310.286q10.286 10.286 10.286 25.714zM877.714 448q0-119.429-58.857-220.286t-159.714-159.714-220.286-58.857-220.286 58.857-159.714 159.714-58.857 220.286 58.857 220.286 159.714 159.714 220.286 58.857 220.286-58.857 159.714-159.714 58.857-220.286z" horiz-adv-x="878" />
<glyph unicode="&#xe617;" d="M512 173.714v109.714q0 7.429-5.429 12.857t-12.857 5.429h-109.714q-7.429 0-12.857-5.429t-5.429-12.857v-109.714q0-7.429 5.429-12.857t12.857-5.429h109.714q7.429 0 12.857 5.429t5.429 12.857zM658.286 557.714q0 55.429-33.429 98.286t-82.571 63.714-103.429 20.857-103.429-20.857-82.571-63.714-33.429-98.286v-13.714t0.571-6.571 1.714-6.571 3.143-4.571 5.143-4 7.714-1.143h109.714q8 0 13.143 5.143t5.143 13.143q0 6.857 6.286 15.429 10.857 17.714 28.857 28.571t38 10.857q22.286 0 47.429-12.286t25.143-32.857q0-18.857-15.143-33.143t-36.286-25.143-42.571-23.714-36.571-36.286-15.143-56v-13.714t0.571-6.571 1.714-6.571 3.143-4.571 5.143-4 7.714-1.143h109.714q9.714 0 13.714 6t4.571 14 7.714 18.857 21.429 18.286q34.286 18.857 40 22.286 35.429 25.143 56.286 61.714t20.857 78.286zM877.714 448q0-119.429-58.857-220.286t-159.714-159.714-220.286-58.857-220.286 58.857-159.714 159.714-58.857 220.286 58.857 220.286 159.714 159.714 220.286 58.857 220.286-58.857 159.714-159.714 58.857-220.286z" horiz-adv-x="878" />
<glyph unicode="&#xe618;" d="M585.143 173.714v36.571q0 8-5.143 13.143t-13.143 5.143h-54.857v274.286q0 8-5.143 13.143t-13.143 5.143h-182.857q-8 0-13.143-5.143t-5.143-13.143v-36.571q0-8 5.143-13.143t13.143-5.143h54.857v-219.429h-54.857q-8 0-13.143-5.143t-5.143-13.143v-36.571q0-8 5.143-13.143t13.143-5.143h256q8 0 13.143 5.143t5.143 13.143zM512 612.571v109.714q0 8-5.143 13.143t-13.143 5.143h-109.714q-8 0-13.143-5.143t-5.143-13.143v-109.714q0-8 5.143-13.143t13.143-5.143h109.714q8 0 13.143 5.143t5.143 13.143zM877.714 448q0-119.429-58.857-220.286t-159.714-159.714-220.286-58.857-220.286 58.857-159.714 159.714-58.857 220.286 58.857 220.286 159.714 159.714 220.286 58.857 220.286-58.857 159.714-159.714 58.857-220.286z" horiz-adv-x="878" />
<glyph unicode="&#xe619;" d="M920.571 484.571q0-30.286-21.143-51.429l-372-372.571q-22.286-21.143-52-21.143-30.286 0-51.429 21.143l-372 372.571q-21.714 20.571-21.714 51.429 0 30.286 21.714 52l42.286 42.857q22.286 21.143 52 21.143 30.286 0 51.429-21.143l168-168v402.286q0 29.714 21.714 51.429t51.429 21.714h73.143q29.714 0 51.429-21.714t21.714-51.429v-402.286l168 168q21.143 21.143 51.429 21.143 29.714 0 52-21.143l42.857-42.857q21.143-22.286 21.143-52z" horiz-adv-x="951" />
<glyph unicode="&#xe61a;" d="M1006.794 119.88c0-90.356-73.248-163.604-163.604-163.604h-665.932c-90.356 0-163.604 73.248-163.604 163.604v665.93c0 90.356 73.248 163.604 163.604 163.604h665.932c90.356 0 163.604-73.248 163.604-163.604v-665.93z" />
<glyph unicode="&#xe61b;" d="M585.143 174.286v108.571q0 8-5.429 13.429t-12.857 5.429h-109.714q-7.429 0-12.857-5.429t-5.429-13.429v-108.571q0-8 5.429-13.429t12.857-5.429h109.714q7.429 0 12.857 5.429t5.429 13.429zM584 388l10.286 262.286q0 6.857-5.714 10.857-7.429 6.286-13.714 6.286h-125.714q-6.286 0-13.714-6.286-5.714-4-5.714-12l9.714-261.143q0-5.714 5.714-9.429t13.714-3.714h105.714q8 0 13.429 3.714t6 9.429zM576 921.714l438.857-804.571q20-36-1.143-72-9.714-16.571-26.571-26.286t-36.286-9.714h-877.714q-19.429 0-36.286 9.714t-26.571 26.286q-21.143 36-1.143 72l438.857 804.571q9.714 17.714 26.857 28t37.143 10.286 37.143-10.286 26.857-28z" />
<glyph unicode="&#xe61c;" d="M321.272 446.32c0-8.368-6.77-15.138-15.158-15.138-8.368 0-15.158 6.77-15.158 15.138 0 8.388 6.79 15.158 15.158 15.158 8.388 0 15.158-6.77 15.158-15.158zM448.018 392.338c0.606 1.274 0.080 2.546-1.132 3.274l-81.936 49.518-35.208 52.004c-0.262 0.444-0.688 0.788-1.192 0.99l-47.78 20.676c-8.124 3.376-13.258 4.932-19.182 6.75-2.708 0.788-5.516 1.698-8.954 2.83-0.464 0.182-11.822 3.8-26.94 3.8-14.008 0-34.036-3.274-49.236-18.836-0.506-0.486-0.828-1.354-0.706-2.142l11.236-88.888c1.112-7.76-0.282-11.338-1.818-13.076-2.75-3.274-9.418-1.96-12.754 1.9-1.354 1.718-36.098 42.624-36.098 42.624-0.95 1.132-2.566 1.274-3.698 0.364l-88.728-72.8c-11.844-1.658-23.768-3.274-35.894-4.73v-83.432l184.346-71.426 27.75 57.318c4.406 9.156 11.156 17.038 19.524 22.98 10.206 7.316 22.314 11.176 34.804 11.176 3.82 0 7.62-0.384 11.298-1.030h0.586l79.552-14.836c1.252-0.486 4.202-0.828 6.872-1.172l0.728-0.080c13.258-2.102 23.424 3.982 26.536 15.806 0.404 1.112-0.142 2.244-1.092 2.79l-43.292 26.336c0.828 0.060 1.818 0.162 2.628 0.202l2.95 0.142c5.458 0.384 13.622 1.030 22.414 1.698 23.728 2.022 53.114 5.032 53.54 5.032 1.030 0.080 2.102 1.072 2.204 2.142 3.052 15.214 7.964 40.134 8.672 42.096zM685.082 335.172c0-8.368-6.792-15.158-15.158-15.158-8.368 0-15.158 6.79-15.158 15.158 0 8.366 6.79 15.158 15.158 15.158 8.366 0 15.158-6.79 15.158-15.158zM1018.566 218.958c-20.98 156.212-36.684 243.988-36.684 243.988-42.424 52.65-91.052 17.968-97.58 12.894l-60.714 39.774-102.854-3.334c-0.060 0-0.12-0.040-0.182-0.040l-91.030-61.584 5.034-9.378 151.584-60.632 50.528-80.844-3.154-17.604-57.48 78.238-140.932 51.316c-3.314-13.338-8.954-25.526-10.934-57.804l-35.55-65 5.538-10.772 25.466-8.57 6.63-20.776 28.518 10.55v-20.212l-19.040-17.442 15.118-36.098 30.64-9.682h0.222l44.728 4.648 15.744-62.856c83.27 30.842 151.968 59.178 151.968 59.178l-18.494 49.8 9.54 1.274c0 0 3.516 6.042 8.61 16.492l17.826 35.108-50.992 91.516v26.82l20.474 16.958 0.706-35.43 40.018-74.054c0 0 0.020 0 0.020-0.020l36.078-66.212 20.212 20.212 40.418-40.422zM533.5 616.492c0-8.368-6.79-15.158-15.158-15.158s-15.158 6.79-15.158 15.158 6.79 15.158 15.158 15.158 15.158-6.79 15.158-15.158zM778.238 725.976l-102.27 67.060c0 0-121.144 8.266-209.528-60.392l13.52-19.484 96.002 5.052 80.844-60.634 26.012-63.866-12.43 11.844-28.74 41.918-70.738 45.476-90.95-10.106c-1.596-12.41 2.184-20.070-4.486-52.61l-42.788-75.346c-0.424-0.748-0.282-1.9 0.304-2.526l6.186-6.65c0.586-0.648 1.778-1.174 2.648-1.174h25.79c0.222 0 0.404 0.162 0.606 0.244 0.344-0.082 0.626-0.162 0.97-0.244l8.146-27.486 22.838 4.952v-5.902l-16.552-24.96 11.762-42.202c3.658-3.618 8.306-6.65 14.208-8.752l67.506 3.172 1.798 0.244 7.518-22.536 20.918 41.312-15.46 18.352 96.608 72.78 76.842 0.222c17.684 45.56 33.894 110.052 12.916 172.242z" />
<glyph unicode="&#xe61d;" d="M789.19 408.452c-1.456 1.188-2.992 2.436-4.588 3.686l-99.818 16.936c-14.294-5.612-24.534-13.824-32.85-20.624-11.51-9.422-17.858-14.602-33.484-14.602s-21.954 5.182-33.484 14.602c-9.482 7.762-21.504 17.346-39.218 22.794l-80.528-9.85c-6.798-4.26-12.492-8.868-17.49-12.944-11.51-9.422-17.858-14.602-33.484-14.602s-21.954 5.182-33.484 14.602c-2.108 1.72-4.424 3.564-6.84 5.448l-108.482 10.014c-8.826-4.894-15.912-10.546-21.934-15.462-11.53-9.422-17.858-14.602-33.504-14.602-15.648 0-21.996 5.182-33.526 14.602-6.368 5.202-13.906 11.222-23.45 16.302l-45.198-5.366v-39.342c15.646 0 21.994-5.202 33.524-14.602 7.414-6.082 16.404-13.272 28.386-18.76l88.39 4.054c8.152 4.71 14.808 10.056 20.5 14.704 11.532 9.4 17.88 14.602 33.526 14.602 15.626 0 21.954-5.202 33.464-14.602 4.384-3.584 9.34-7.536 15.074-11.326h107.13c5.694 3.788 10.67 7.742 15.052 11.326 11.51 9.4 17.858 14.602 33.484 14.602 15.604 0 21.954-5.202 33.464-14.602 9.502-7.742 21.504-17.346 39.22-22.794l87.388 14.48c3.912 2.846 7.434 5.694 10.65 8.314 11.51 9.4 17.858 14.602 33.484 14.602s21.954-5.202 33.484-14.602c14.008-11.448 37.232-27.136 72.662-27.136l-4.034 55.542c-15.648 0.004-21.978 5.186-33.486 14.606zM793.958 438.552l27.974-35.206-3.952 54.928-34.222 131.746c-8.518 30.884-26.91 127.406-29.062 154.316-0.306 3.952-2.968 1.188-2.968 1.188-16.322-115.978 12.922-235.704 12.922-235.704l29.308-71.268zM903.546 839.104l-11.122 0.634 3.134 66.17c0 4.302-3.462 7.782-7.762 7.782-4.074 0-7.372-3.134-7.722-7.106h-0.062l-4.178-65.904-10.67 0.614-14.48-21.504-13.618-215.612 11.080-17.306h50.012l12.534 14.562 5.488 212.5-12.634 25.17zM837.064 246.012l49.050 17.080v307.178l-28.816-5.756zM614.398 178.392c0-8.478-6.882-15.36-15.36-15.36s-15.36 6.882-15.36 15.36c0 8.5 6.882 15.36 15.36 15.36s15.36-6.86 15.36-15.36zM712.908 133.234c0.122 0.922-0.206 1.844-0.902 2.416l-21.238 13.374-55.234 84.438c-0.246 0.39-0.594 0.696-1.004 0.902-0.778 0.43-79.748 40.776-144.302 54.906-24.698 5.426-47.984 8.172-69.222 8.172-54.598 0-77.968-17.756-78.93-18.534-0.86-0.696-1.248-1.844-0.922-2.888l10.158-33.034-122.51-54.968-117.636 30.618c-1.004 0.286-2.068-0.082-2.744-0.902-0.654-0.778-0.778-1.924-0.328-2.866l38.358-76.964-28.754-78.050c-0.348-1.004-0.082-2.11 0.656-2.826 0.758-0.738 1.884-0.962 2.846-0.574l118.742 47.574 33.69-14.622 51.896-26.828c1.004-0.512 2.212-0.348 3.032 0.388 0.84 0.758 1.106 1.946 0.676 3.010-3.624 8.744-12.37 33.628-9.38 43.234 3.728 11.898 72.048 53.166 110.222 64.060-19.374-12.862-72.458-59.862-73.932-73.032-2.028-17.858 22.242-75.92 23.286-78.356 0.308-0.778 0.962-1.332 1.782-1.556l52.592-13.946c0.226-0.062 0.452-0.082 0.696-0.082 0.266 0 0.574 0.042 0.84 0.144l94.084 31.744 3.358-0.246 17.592-13.62c0.798-0.594 1.844-0.736 2.744-0.306l101.888 47.104c0 0 46.346 4.424 46.714 4.936l8.99 12.226c0.41 0.636 0.554 1.434 0.368 2.17-0.206 0.738-0.696 1.352-1.372 1.68l-39.282 19.886 40.878 19.19c0.844 0.37 1.46 1.148 1.604 2.028z" />
<glyph unicode="&#xe61e;" d="M793.408 495.298c0-8.802-7.144-15.946-15.946-15.946-8.824 0-15.946 7.144-15.946 15.946s7.122 15.946 15.946 15.946c8.802 0 15.946-7.144 15.946-15.946zM922.91 425.498c0.19 1.232-0.256 2.508-1.212 3.338l-29.234 25.556-76.052 116.256c-0.36 0.51-0.83 0.956-1.402 1.232-1.084 0.574-109.772 56.15-198.706 75.626-33.974 7.44-66.058 11.224-95.292 11.224-75.2 0-107.368-24.47-108.686-25.512-1.212-0.958-1.7-2.53-1.254-3.976l13.968-45.498-168.664-75.646-161.988 42.14c-1.382 0.36-2.85-0.128-3.764-1.254-0.914-1.106-1.084-2.658-0.446-3.934l52.792-105.964-39.566-107.496c-0.51-1.36-0.148-2.87 0.892-3.89 1.042-1 2.572-1.318 3.912-0.766l163.496 65.484 46.392-20.112 71.458-36.952c1.382-0.702 3.040-0.468 4.168 0.552 1.148 1.042 1.51 2.7 0.914 4.104-4.976 12.076-17.008 46.328-12.906 59.532 5.124 16.414 93.336 54.194 145.914 69.184-42.522-42.522-93.91-63.38-95.972-81.536-2.786-24.578 30.658-104.498 32.082-107.878 0.446-1.064 1.34-1.85 2.444-2.126l72.436-19.2c0.318-0.084 0.616-0.128 0.934-0.128 0.404 0 0.808 0.064 1.17 0.192l129.544 43.734 4.614-0.362 24.238-18.73c1.084-0.83 2.552-1 3.784-0.426l140.28 64.868 59.424 16.774c0.852 0.234 1.574 0.766 2.062 1.488l14.84 22.304c0.596 0.872 0.766 1.934 0.512 2.956-0.276 1.020-0.958 1.87-1.894 2.338l-30.318 15.414 32.912 14.288c1.152 0.506 1.982 1.568 2.174 2.802z" />
<glyph unicode="&#xe620;" d="M274.286 466.286v256q0 8-5.143 13.143t-13.143 5.143-13.143-5.143-5.143-13.143v-256q0-8 5.143-13.143t13.143-5.143 13.143 5.143 5.143 13.143zM658.286 265.143q0-14.857-10.857-25.714t-25.714-10.857h-245.143l-29.143-276q-1.143-6.857-6-11.714t-11.714-4.857h-0.571q-15.429 0-18.286 15.429l-43.429 277.143h-230.857q-14.857 0-25.714 10.857t-10.857 25.714q0 70.286 44.857 126.571t101.429 56.286v292.571q-29.714 0-51.429 21.714t-21.714 51.429 21.714 51.429 51.429 21.714h365.714q29.714 0 51.429-21.714t21.714-51.429-21.714-51.429-51.429-21.714v-292.571q56.571 0 101.429-56.286t44.857-126.571z" horiz-adv-x="658" />
<glyph unicode="&#xe621;" d="M746.64 378.738c0-8.506-6.904-15.41-15.41-15.41-8.526 0-15.41 6.904-15.41 15.41 0 8.526 6.882 15.41 15.41 15.41 8.506 0 15.41-6.882 15.41-15.41zM800.182 364.892l-16.93 107.804c1.11 10.15 7.664 46.556 7.664 46.556l-27.14-16.15 1.13 2.446-20.094 62.974-24.902-28.23-13.294 68.090-38.174-34.888-38.626 79.246-16.272-40.702-42.016 57.55-9.286-27.552-90.752 69.692 8.198-39.88-75.856 41.010 11.732-50.030-109.222-14.422 37.804-20.484-82.862-1.644 31.948-60.61-53.050 3.472 19.498-61.596-55.618-12.822 30.778-50.85-43.434-44.502 44.462-6.040-39.9-42.858 39.058-10.274-14.936-36.53 26.566 12.45c0 0 14.896-58.536 69.26-72.404 0-0.020 38.174-29.094 38.174-29.094l-0.37-0.328 0.78-11.362c0.206-2.384 2.178-4.19 4.602-4.19h166.134c1.89 0 3.554 1.11 4.274 2.856 0.72 1.726 0.308 3.698-1.008 5.014l-30.778 30.532c-0.884 0.862-2.034 1.336-3.266 1.336h-67.638l1.356 32.4 102.73 20.546 61.166-88.162c0.782-1.254 2.24-2.034 3.822-2.034h55.248c1.602 0 3.082 0.802 3.924 2.178 0.842 1.356 0.924 3.042 0.206 4.478l-9.738 19.704c-0.596 1.172-1.644 2.054-2.918 2.404l-21.902 5.588-5.096 48.366 45.982 15.45 70.042-25.928c0 0 77.848-0.020 78.588-0.020 10.52 0 19.066 8.548 19.066 19.066 0 4.698-29.114 72.378-29.114 72.378z" />
<glyph unicode="&#xe622;" d="M658.286 813.714h-585.143v-709.714l292.571 280.571 50.857-48.571 241.714-232v709.714zM665.143 886.857q13.143 0 25.143-5.143 18.857-7.429 30-23.429t11.143-35.429v-736.571q0-19.429-11.143-35.429t-30-23.429q-10.857-4.571-25.143-4.571-27.429 0-47.429 18.286l-252 242.286-252-242.286q-20.571-18.857-47.429-18.857-13.143 0-25.143 5.143-18.857 7.429-30 23.429t-11.143 35.429v736.571q0 19.429 11.143 35.429t30 23.429q12 5.143 25.143 5.143h598.857z" horiz-adv-x="731" />
<glyph unicode="&#xe623;" d="M625.598 278.438l19.756 5.024c0.638 0.17 1.32 0.042 1.874-0.342 0.532-0.362 0.894-0.958 0.958-1.618l7.174-67.506 42.28-21.736c0.936-0.49 1.406-1.512 1.192-2.534-0.234-1.022-1.108-1.746-2.15-1.788l-44.814-1.596-19.182-11.39c-0.362-0.212-0.766-0.318-1.17-0.318-0.362 0-0.724 0.086-1.064 0.256-0.702 0.384-1.172 1.108-1.214 1.894l-5.366 99.314c-0.042 1.084 0.662 2.064 1.726 2.34zM709.322 727.514c0-8.836-7.154-15.966-15.966-15.966-8.836 0-15.966 7.13-15.966 15.966 0 8.814 7.132 15.966 15.966 15.966 8.812 0 15.966-7.154 15.966-15.966zM863.134 615.512c-3.748 44.238-15.732 102.356-51.498 139.378-45.644 46.856-98.292 37.042-99.014 37-34.19-2.47-58.226-17.030-73.766-50.582l-10.496-4.044-75.596-24.12c-1.362-0.426-2.32-1.682-2.384-3.13-0.042-1.448 0.808-2.768 2.15-3.3l78.514-31.934-15.306-45.858-194.964-179.23c-47.942-38.852-105.444-51.392-106.018-51.498-1.426-0.32-2.49-1.468-2.682-2.916l-4.812-36c-0.128-0.384-0.212-0.788-0.212-1.236 0-1.894 1.554-3.448 3.47-3.428 0.106 0 0.212 0 0.34 0.020 7.728 0.638 189.834 16.286 237.904 52.136 21.332 15.904 67.976 61.034 82.516 75.214l2.746-11.474c-18.648-26.292-67.528-91.69-84.24-98.588-35.318-14.562-244.652-69.784-246.76-70.338-0.404-0.106-0.788-0.298-1.128-0.532l-193.92-138.996c-1.128-0.788-1.64-2.192-1.34-3.534 0.298-1.364 1.404-2.384 2.768-2.618l88.412-15.2c0.192-0.022 0.384-0.042 0.574-0.042 0.872 0 1.724 0.32 2.362 0.936l91.010 86.582 9.58 0.618-54.33-82.26c-0.618-0.638-1.022-1.49-1.022-2.448 0-1.916 1.64-3.492 3.47-3.428h71.892c1.108 0 2.128 0.532 2.768 1.426l89.626 124.092 63.526 8.112 83.196 12.922 1.916-132.502c0.022-1.362 0.852-2.576 2.086-3.108 1.256-0.532 2.704-0.256 3.704 0.66l17.074 16.136 29.656-2.916c1.49-0.15 2.874 0.68 3.47 2.044 0.596 1.362 0.256 2.958-0.874 3.938l-31.358 27.632 3.024 93.396c10.666 1.512 47.516 6.812 59.312 9.664 0.468 0.106 0.916 0.32 1.298 0.618 0 0 170.268 91.394 170.482 91.968 0.38 0.918 55.52 93.736 42.874 220.768z" />
<glyph unicode="&#xe627;" d="M583.143 128h-398c-66.8 0-121.143 52.633-121.143 117.333v341.333c0 64.699 54.343 117.335 121.143 117.335h398c66.798 0 121.143-52.635 121.143-117.335v-43.401l139.161 120.533c19.182 18.167 38.613 27.381 57.762 27.381 27.122 0 58.791-19.922 58.791-76.066v-398.222c0-20.167-4.121-36.937-12.247-49.847-10.487-16.663-27.454-26.217-46.542-26.217-0.002 0-0.002 0-0.007 0-19.147 0.002-38.574 9.209-57.753 27.376l-139.163 120.535v-43.399c-0.002-64.704-54.345-117.337-121.145-117.337zM185.143 640c-31.509 0-57.143-23.927-57.143-53.335v-341.335c0-29.406 25.634-53.33 57.143-53.33h398c31.509 0 57.143 23.925 57.143 53.333v114.009c0 13.161 8.055 24.978 20.306 29.787 12.247 4.805 26.197 1.627 35.145-8.016 0.656-0.709 1.25-1.326 1.803-1.877l188.377-163.154c0.4-0.35 0.793-0.709 1.177-1.074 3.246-3.109 6.057-5.337 8.347-6.905 0.327 2.318 0.555 5.23 0.555 8.786v398.224c0 3.554-0.231 6.466-0.555 8.784-2.29-1.568-5.102-3.799-8.347-6.905-0.384-0.368-0.777-0.725-1.177-1.072l-188.379-163.161c-0.546-0.542-1.145-1.163-1.815-1.883-8.958-9.634-22.889-12.809-35.143-7.993-12.242 4.811-20.293 16.626-20.293 29.783v114.007c0 29.408-25.634 53.335-57.143 53.335l-398.002-0.002z" />
<glyph unicode="&#xe628;" d="M1024 530.745c0 200.926-58.791 363.938-131.481 365.225 0.293 0.007 0.578 0.030 0.873 0.030h-82.942c0 0-194.8-146.336-475.23-203.753-8.56-45.291-14.030-99.273-14.030-161.502s5.465-116.208 14.030-161.499c280.427-57.417 475.23-203.755 475.23-203.755h82.942c-0.293 0-0.578 0.025-0.873 0.032 72.695 1.285 131.481 164.295 131.481 365.223zM864.825 220.747c-9.383 0-19.531 9.742-24.745 15.547-12.631 14.064-24.793 35.959-35.189 63.328-23.257 61.232-36.066 143.31-36.066 231.125 0 87.81 12.809 169.89 36.066 231.122 10.393 27.367 22.562 49.266 35.189 63.328 5.214 5.813 15.365 15.552 24.745 15.552s19.536-9.744 24.743-15.552c12.633-14.064 24.795-35.959 35.189-63.328 23.257-61.23 36.069-143.312 36.069-231.122 0-87.803-12.809-169.888-36.069-231.125-10.391-27.367-22.562-49.264-35.189-63.328-5.207-5.806-15.36-15.547-24.743-15.547zM251.813 530.745c0 51.95 3.81 102.43 11.051 149.095-47.371-6.553-88.942-10.325-140.341-10.325-67.058 0-67.058 0-67.058 0l-55.465-94.688v-88.169l55.461-94.686c0 0 0 0 67.061 0 51.399 0 92.969-3.774 140.341-10.325-7.239 46.665-11.049 97.145-11.049 149.097zM368.151 317.829l-127.998 24.51 81.842-321.543c4.235-16.633 20.743-25.038 36.686-18.654l118.555 47.451c15.945 6.377 22.327 23.963 14.197 39.083l-123.282 229.152zM864.825 411.271c-3.618 0-7.527 3.753-9.538 5.993-4.871 5.419-9.557 13.861-13.561 24.407-8.962 23.6-13.899 55.234-13.899 89.079s4.937 65.479 13.899 89.079c4.007 10.549 8.695 18.987 13.561 24.407 2.009 2.24 5.92 5.993 9.538 5.993 3.616 0 7.529-3.755 9.538-5.993 4.871-5.419 9.557-13.858 13.561-24.407 8.965-23.598 13.902-55.234 13.902-89.079 0-33.842-4.937-65.479-13.902-89.079-4.005-10.549-8.695-18.987-13.561-24.407-2.009-2.24-5.922-5.993-9.538-5.993z" />
<glyph unicode="&#xe62a;" d="M908.528 560.068h-517.89c-6.932 0-12.55 5.62-12.55 12.55s5.62 12.55 12.55 12.55h517.888c6.932 0 12.55-5.618 12.55-12.55s-5.618-12.55-12.548-12.55zM757.782 207.294h-195.736c-9.086 0-17.464 4.91-21.902 12.838l-301.42 538.398h-152.952c-13.862 0-25.1 11.238-25.1 25.1s11.238 25.1 25.1 25.1h167.666c9.086 0 17.464-4.91 21.902-12.838l301.42-538.396h181.020c13.862 0 25.1-11.238 25.1-25.1s-11.236-25.102-25.098-25.102zM590.688 384.724c-4.926 0-9.598 2.916-11.6 7.75l-122.724 296.144c-2.654 6.404 0.386 13.744 6.79 16.398 6.404 2.652 13.746-0.386 16.398-6.79l122.724-296.144c2.652-6.404-0.386-13.746-6.79-16.398-1.57-0.652-3.198-0.96-4.798-0.96zM771.888 434.68c-5.85 0-11.084 4.11-12.288 10.066l-49.564 244.992c-1.374 6.794 3.018 13.416 9.812 14.79 6.808 1.376 13.416-3.020 14.79-9.812l49.564-244.994c1.374-6.794-3.018-13.414-9.812-14.79-0.842-0.17-1.678-0.252-2.502-0.252zM373.892 255.674c-51.748 0-93.744-41.98-93.744-93.766 0-51.778 41.996-93.752 93.744-93.752s93.756 41.974 93.756 93.752c0 51.786-42.008 93.766-93.756 93.766zM373.892 124.574c-20.62 0-37.34 16.722-37.34 37.342 0 20.61 16.72 37.334 37.34 37.334 20.622 0 37.338-16.724 37.338-37.334 0-20.622-16.716-37.342-37.338-37.342zM763.98 255.674c-51.758 0-93.756-41.98-93.756-93.766 0-51.778 41.996-93.752 93.756-93.752 51.748 0 93.746 41.974 93.746 93.752 0 51.786-41.998 93.766-93.746 93.766zM763.97 124.574c-20.61 0-37.338 16.722-37.338 37.342 0 20.61 16.726 37.334 37.338 37.334 20.62 0 37.346-16.724 37.346-37.334 0-20.622-16.726-37.342-37.346-37.342zM485.194 344.534c-11.116-0.002-21.274 7.436-24.25 18.69-3.544 13.4 4.448 27.14 17.848 30.684l403 106.57 18.902 168.070h-596.876c-13.862 0-25.1 11.238-25.1 25.1s11.238 25.1 25.1 25.1h624.958c7.146 0 13.954-3.046 18.714-8.372 4.762-5.328 7.028-12.432 6.23-19.534l-23.962-213.046c-1.158-10.29-8.516-18.814-18.528-21.46l-419.604-110.964c-2.148-0.566-4.31-0.838-6.432-0.838z" />
<glyph unicode="&#xe62b;" d="M832 192h-544c-32.277 0-59.502 24.037-63.506 56.062l-56.992 455.938h-103.502c-35.346 0-64 28.654-64 64s28.654 64 64 64h160c32.277 0 59.502-24.034 63.506-56.062l56.992-455.938h439.225l114.738 401.582c9.707 33.986 45.134 53.664 79.12 43.957 33.986-9.71 53.666-45.134 43.957-79.12l-128-448c-7.851-27.474-32.965-46.418-61.538-46.418zM256 32c0 53.019 42.981 96 96 96s96-42.981 96-96c0-53.019-42.981-96-96-96s-96 42.981-96 96zM640 32c0 53.019 42.981 96 96 96s96-42.981 96-96c0-53.019-42.981-96-96-96s-96 42.981-96 96zM768 512h-128v-128h-128v128h-128v128h128v128h128v-128h128z" />
<glyph unicode="&#xe62c;" d="M832 192h-544c-32.277 0-59.502 24.037-63.506 56.062l-56.992 455.938h-103.502c-35.346 0-64 28.654-64 64s28.654 64 64 64h160c32.277 0 59.502-24.034 63.506-56.062l56.992-455.938h439.225l114.738 401.582c9.707 33.986 45.134 53.664 79.12 43.957 33.986-9.71 53.666-45.134 43.957-79.12l-128-448c-7.851-27.474-32.965-46.418-61.538-46.418zM256 32c0 53.019 42.981 96 96 96s96-42.981 96-96c0-53.019-42.981-96-96-96s-96 42.981-96 96zM640 32c0 53.019 42.981 96 96 96s96-42.981 96-96c0-53.019-42.981-96-96-96s-96 42.981-96 96zM384 640h384v-128h-384z" />
<glyph unicode="&#xe62d;" d="M977.582 765.538c33.986-9.71 53.666-45.134 43.957-79.12l-128-448c-7.851-27.474-32.965-46.418-61.538-46.418h-544c-32.277 0-59.502 24.037-63.506 56.062l-56.992 455.938h-103.502c-35.346 0-64 28.654-64 64s28.654 64 64 64h160c32.277 0 59.502-24.034 63.506-56.062l56.992-455.938h439.225l114.738 401.582c9.71 33.986 45.136 53.664 79.12 43.957zM256 32c0 53.019 42.981 96 96 96s96-42.981 96-96c0-53.019-42.981-96-96-96s-96 42.981-96 96zM640 32c0 53.019 42.981 96 96 96s96-42.981 96-96c0-53.019-42.981-96-96-96s-96 42.981-96 96zM364 640h148v192h128v-192h148l-212-228z" />
<glyph unicode="&#xe62e;" d="M977.582 765.538c33.986-9.71 53.666-45.134 43.957-79.12l-128-448c-7.851-27.474-32.965-46.418-61.538-46.418h-544c-32.277 0-59.502 24.037-63.506 56.062l-56.992 455.938h-103.502c-35.346 0-64 28.654-64 64s28.654 64 64 64h160c32.277 0 59.502-24.034 63.506-56.062l56.992-455.938h439.225l114.738 401.582c9.71 33.986 45.136 53.664 79.12 43.957zM256 32c0 53.019 42.981 96 96 96s96-42.981 96-96c0-53.019-42.981-96-96-96s-96 42.981-96 96zM640 32c0 53.019 42.981 96 96 96s96-42.981 96-96c0-53.019-42.981-96-96-96s-96 42.981-96 96zM788 576h-148v-192h-128v192h-148l212 228z" />
<glyph unicode="&#xe62f;" d="M643.577 217.707c-22.377-12.473-40.35-4.128-65.529 9.143-22.919 17.495-90.805 70.875-162.453 142.377-52.311 66.169-92.325 128.576-110.75 158.585-1.25 3.319-1.888 5.264-1.888 5.264-10.793 26.953-17.543 45.84-2.649 67.042 13.707 19.454 19.001 24.766 36.48 40.217l-175.579 260.249c-21.207-15.456-54.037-50.213-81.017-88.757-25.077-36.633-46.309-77.175-52.098-106.11 30.59-110.233 104.517-315.792 241.166-462.649l-0.041-0.617c131.461-162.057 340.329-262.859 451.143-306.453 29.358 2.77 71.877 19.689 110.912 40.809 41.195 22.83 79.134 51.89 96.658 71.369l-240.578 201.657c-17.193-15.819-22.994-20.507-43.776-32.128zM411.221 702.683c14.482 10.603 10.626 29.888 3.851 40.489l-133.159 203.826c-8.688 10.583-26.793 16.128-42.503 11.159l-54.866-36.761 176.069-259.758 50.608 41.045zM985.897 164.309l-188.946 153.575c-9.861 7.835-28.626 13.675-40.649 0.377l-46.091-46.101 240.094-202.030 42.272 50.713c6.569 15.129 2.935 33.714-6.679 43.465z" />
<glyph unicode="&#xe631;" d="M651.216 429.637l372.784-257.109v591.895zM0 764.423v-591.895l372.777 257.145zM512 304.617l-89.001 79.911-422.999-256.528h1024l-423.010 256.528zM993.28 768h-962.56l481.28-361.851z" />
<glyph unicode="&#xe632;" d="M544 960l-96-96 96-96-224-256h-224l176-176-272-360.615v-39.385h39.383l360.617 272 176-176v224l256 224 96-96 96 96-480 480zM448 416l-64 64 224 224 64-64-224-224z" />
<glyph unicode="&#xe633;" d="M512 960c-176.731 0-320-143.269-320-320 0-320 320-704 320-704s320 384 320 704c0 176.731-143.271 320-320 320zM512 444c-108.247 0-196 87.753-196 196s87.753 196 196 196 196-87.753 196-196-87.751-196-196-196zM388 640c0 68.483 55.517 124 124 124s124-55.517 124-124c0-68.483-55.517-124-124-124s-124 55.517-124 124z" />
<glyph unicode="&#xe634;" d="M512 960c-282.77 0-512-229.23-512-512s229.23-512 512-512 512 229.23 512 512-229.23 512-512 512zM512 32c-229.751 0-416 186.249-416 416s186.249 416 416 416 416-186.249 416-416-186.249-416-416-416zM608 544l-288 160h-64v-64l160-288 288-160h64v64l-160 288zM512 384c-35.346 0-64 28.654-64 64s28.654 64 64 64c35.346 0 64-28.654 64-64s-28.654-64-64-64z" />
<glyph unicode="&#xe635;" d="M0 768l320 128v-768l-320-128zM704 768v-768l-320 106.665v768zM1024 896v-768l-256-102.4v768z" />
<glyph unicode="&#xe636;" d="M672 768l-320 128-352-128v-768l352 128 320-128 352 128v768l-352-128zM384 814.27l256-102.4v-630.137l-256 102.398v630.139zM64 723.173l256 93.090v-631.799l-256-93.090v631.799zM960 172.827l-256-93.093v631.799l256 93.090v-631.797z" />
<glyph unicode="&#xe637;" d="M800 576l192 128-192 128h-224v80c0 26.4-21.6 48-48 48h-32c-26.4 0-48-21.6-48-48v-80h-320v-256h320v-64h-288l-128-96 128-96h288v-384h128v384h256v192h-256v64h224z" />
<glyph unicode="&#xe63b;" d="M761.863-64c113.726 206.032 132.887 520.306-313.863 509.824v-253.824l-384 384 384 384v-248.373c534.962 13.943 594.569-472.213 313.863-775.627z" />
<glyph unicode="&#xe63c;" d="M576 711.627v248.373l384-384-384-384v253.824c-446.75 10.482-427.589-303.792-313.861-509.824-280.711 303.415-221.099 789.57 313.861 775.627z" />
<glyph unicode="&#xe63d;" d="M916.706 13.392c-4.076 0-8.166 1.094-11.816 3.312-90.266 54.848-193.488 114.014-213.268 120.042-105.354 0.744-201.636 62.902-245.684 158.772-5.252 11.426-0.242 24.938 11.178 30.19 11.43 5.254 24.942 0.236 30.188-11.178 36.916-80.352 117.874-132.268 206.252-132.268 5.942 0 22.866 0.004 180.284-93.732l-42.956 120.314c-3.222 9.022-0.444 19.104 6.95 25.206 52.466 43.304 82.56 107.108 82.56 175.050 0 125.084-101.76 226.844-226.836 226.844-11.322 0-22.688-0.84-33.792-2.496-12.434-1.868-24.018 6.712-25.876 19.148-1.858 12.434 6.714 24.022 19.146 25.876 13.322 1.988 26.956 2.998 40.522 2.998 150.18 0 272.362-122.184 272.362-272.368 0-76.176-31.496-148.016-86.956-199.514l59.188-165.774c3.24-9.074 0.414-19.214-7.058-25.302-4.162-3.396-9.26-5.12-14.388-5.12zM81.194 235.524c-4.142 0-8.286 1.132-11.946 3.388-7.282 4.49-11.43 12.69-10.738 21.218l19.118 235.25c-17.572 36.728-26.478 76.146-26.478 117.284 0 150.182 122.182 272.366 272.366 272.366 150.18 0 272.362-122.184 272.362-272.366 0-150.178-122.182-272.36-272.362-272.36-18.4 0-36.732 1.842-54.624 5.484l-175.87-106.948c-3.63-2.218-7.73-3.316-11.828-3.316zM323.514 839.506c-125.084 0-226.84-101.76-226.84-226.84 0-36.108 8.224-70.618 24.442-102.556 1.906-3.75 2.736-7.958 2.396-12.144l-16.010-197.044 145.552 88.514c5.138 3.13 11.296 4.092 17.156 2.684 17.34-4.174 35.27-6.288 53.306-6.288 125.076 0 226.836 101.76 226.836 226.834-0.002 125.080-101.762 226.84-226.838 226.84zM292.908 563.144c-0.050-0.056 0-0.102 0.050-0.15h-0.050v0.15zM346.524 563.144v-0.15h-0.050c0.050 0.048 0.1 0.094 0.050 0.15zM735.464 520.86c0.050 0 0.050 0 0-0.052l-0.608-14.92-5.414-128.69-0.202-5.006c-0.964-7.084-5.008-13.198-10.724-16.992-3.892-2.582-8.6-4.098-13.604-4.098-5.008 0-9.712 1.516-13.61 4.098-5.868 3.888-9.964 10.21-10.774 17.496l-0.202 4.002-5.414 129.19-0.608 14.92c-0.050 0.052-0.050 0.052 0 0.052 2.884 14.262 15.482 24.988 30.606 24.988 15.074 0 27.67-10.728 30.554-24.988zM736.142 297.536c0-17.258-13.99-31.256-31.254-31.256-17.268 0-31.254 14-31.254 31.256 0 17.268 13.988 31.256 31.254 31.256 17.264 0 31.254-13.99 31.254-31.256zM400.6 686.366c0-12.288-2.782-24.584-8.398-36.876-5.616-12.288-11.786-22.404-18.614-30.394-6.832-8.046-13.050-16.598-18.668-25.658-2.884-4.748-5.058-9.198-6.422-13.35-1.32-3.794-1.976-7.334-1.976-10.672v-6.272c0.050-0.056 0-0.102-0.050-0.15 0-8.736-14.82-17.452-26.758-17.452-11.99 0-26.76 6.556-26.76 17.452-0.050 0.050-0.098 0.094-0.050 0.15v13.452c0 4.508 0.658 9.008 1.922 13.61 1.112 3.846 2.628 7.744 4.654 11.636 4.402 8.552 9.208 15.936 14.414 22.258 5.212 6.22 10.018 13.858 14.418 22.818 4.402 8.946 6.624 17.952 6.624 27.006 0 22.462-12.948 33.64-38.846 33.64-6.322 0-12.694-0.714-19.172-2.228-1.418-0.302-2.884-0.658-4.298-1.016-1.166-0.198-2.326-0.302-3.542-0.302-9.158 0-17.096 5.012-21.246 12.452-2.026 3.536-3.136 7.588-3.136 11.934 0 3.54 0.76 6.872 2.124 9.864 2.682 6.116 7.79 10.878 14.112 13.098 0.104 0.052 0.252 0.102 0.356 0.102 1.216 0.356 2.426 0.71 3.642 0.964 14.316 3.738 29.792 5.606 46.384 5.606 26.404 0 47.902-5.86 64.444-17.596 16.544-11.786 24.842-29.8 24.842-54.076zM350.564 497.808c0-17.261-13.993-31.254-31.254-31.254s-31.254 13.993-31.254 31.254c0 17.261 13.993 31.254 31.254 31.254s31.254-13.993 31.254-31.254zM276.922 705.334c-1.368-0.504-2.782-0.86-4.298-1.016 1.414 0.358 2.88 0.714 4.298 1.016z" horiz-adv-x="1152" />
<glyph unicode="&#xe63e;" d="M622.825 257.264c-22.11 3.518-22.615 64.313-22.615 64.313s64.969 64.315 79.127 150.802c38.089 0 61.618 91.945 23.522 124.297 1.593 34.053 48.962 267.323-190.859 267.323s-192.45-233.271-190.864-267.323c-38.094-32.35-14.569-124.297 23.522-124.297 14.158-86.487 79.127-150.802 79.127-150.802s-0.505-60.795-22.615-64.313c-71.218-11.333-337.17-128.633-337.17-257.264h896c0 128.631-265.952 245.931-337.175 257.264z" />
<glyph unicode="&#xe63f;" d="M436 224c0-57.376 13.362-111.682 37.111-160h-473.111v114.514c83.365 77.145 224.235 134.962 273.173 142.75 22.11 3.518 22.613 64.313 22.613 64.313s-64.969 64.318-79.127 150.802c-38.091 0-61.616 91.947-23.522 124.297-1.586 34.053-48.958 267.323 190.864 267.323s192.455-233.271 190.859-267.323c38.096-32.35 14.569-124.297-23.522-124.297-4.261-26.034-13.141-50.034-23.454-70.901-20.432-23.001-38.014-48.581-52.153-76.21-2.219-2.395-3.52-3.691-3.52-3.691s0.009-1.193 0.087-3.207c-23.246-47.911-36.297-101.643-36.297-158.37zM800 512c-159.058 0-288-128.942-288-288s128.942-288 288-288 288 128.942 288 288-128.942 288-288 288zM960 192h-128v-128h-64v128h-128v64h128v128h64v-128h128v-64z" horiz-adv-x="1088" />
<glyph unicode="&#xe640;" d="M436 224c0-57.376 13.362-111.682 37.111-160h-473.111v114.514c83.365 77.145 224.235 134.962 273.173 142.75 22.11 3.518 22.613 64.313 22.613 64.313s-64.969 64.318-79.127 150.802c-38.091 0-61.616 91.947-23.522 124.297-1.586 34.053-48.958 267.323 190.864 267.323s192.455-233.271 190.859-267.323c38.096-32.35 14.569-124.297-23.522-124.297-4.261-26.034-13.141-50.034-23.454-70.901-20.432-23.001-38.014-48.581-52.153-76.21-2.219-2.395-3.52-3.691-3.52-3.691s0.009-1.193 0.087-3.207c-23.246-47.911-36.297-101.643-36.297-158.37zM800 512c-159.058 0-288-128.942-288-288s128.942-288 288-288 288 128.942 288 288-128.942 288-288 288zM960 192h-320v64h320v-64z" horiz-adv-x="1088" />
<glyph unicode="&#xe641;" d="M800 512c-159.058 0-288-128.942-288-288s128.942-288 288-288 288 128.942 288 288-128.942 288-288 288zM960 330.263l-106.263-106.263 106.263-106.263v-53.737h-53.737l-106.263 106.263-106.263-106.263h-53.737v53.737l106.263 106.263-106.263 106.263v53.737h53.737l106.263-106.263 106.263 106.263h53.737v-53.737zM436 224c0-57.376 13.362-111.682 37.111-160h-473.111v114.514c83.365 77.145 224.235 134.962 273.173 142.75 22.11 3.518 22.613 64.313 22.613 64.313s-64.969 64.318-79.127 150.802c-38.091 0-61.616 91.947-23.522 124.297-1.586 34.053-48.958 267.323 190.864 267.323s192.455-233.271 190.859-267.323c38.096-32.35 14.569-124.297-23.522-124.297-4.261-26.034-13.141-50.034-23.454-70.901-20.432-23.001-38.014-48.581-52.153-76.21-2.219-2.395-3.52-3.691-3.52-3.691s0.009-1.193 0.087-3.207c-23.246-47.911-36.297-101.643-36.297-158.37z" horiz-adv-x="1088" />
<glyph unicode="&#xe642;" d="M436 224c0-57.376 13.362-111.682 37.111-160h-473.111v114.514c83.365 77.145 224.235 134.962 273.173 142.75 22.11 3.518 22.613 64.313 22.613 64.313s-64.969 64.318-79.127 150.802c-38.091 0-61.616 91.947-23.522 124.297-1.586 34.053-48.958 267.323 190.864 267.323s192.455-233.271 190.859-267.323c38.096-32.35 14.569-124.297-23.522-124.297-4.261-26.034-13.141-50.034-23.454-70.901-20.432-23.001-38.014-48.581-52.153-76.21-2.219-2.395-3.52-3.691-3.52-3.691s0.009-1.193 0.087-3.207c-23.246-47.911-36.297-101.643-36.297-158.37zM800 512c-159.058 0-288-128.942-288-288s128.942-288 288-288 288 128.942 288 288-128.942 288-288 288zM588 224c0 116.896 95.104 212 212 212 44.75 0 86.297-13.95 120.549-37.712l-294.837-294.837c-23.762 34.251-37.712 75.799-37.712 120.549zM800 12c-44.75 0-86.297 13.95-120.549 37.712l294.837 294.837c23.762-34.251 37.712-75.799 37.712-120.549 0-116.896-95.104-212-212-212z" horiz-adv-x="1088" />
<glyph unicode="&#xe644;" d="M87.19 228.128c-2.128 0-4.29 0.322-6.422 1.012-11.028 3.542-17.092 15.354-13.55 26.384l108.656 338.048c2.79 8.676 10.86 14.554 19.97 14.554h240.588c9.078 0 17.132-5.842 19.942-14.478l78.778-241.906c3.584-11.010-2.434-22.85-13.446-26.434-11.014-3.586-22.85 2.434-26.436 13.45l-74.064 227.422h-210.072l-103.98-323.49c-2.86-8.898-11.096-14.562-19.964-14.562zM319.9 655.834c-54.922 0-99.602 44.71-99.602 99.668 0 54.932 44.68 99.62 99.602 99.62 54.872 0 99.51-44.688 99.51-99.62 0-54.958-44.64-99.668-99.51-99.668zM319.9 813.176c-31.792 0-57.656-25.878-57.656-57.674 0-31.83 25.866-57.722 57.656-57.722 31.74 0 57.566 25.892 57.566 57.722 0 31.798-25.826 57.674-57.566 57.674zM903.12 372.75h-41.946v61.732c0 9.356-12.58 19.78-30.632 19.78h-132.152c-18.052 0-30.636-10.424-30.636-19.78v-61.732h-41.946v61.732c0 34.038 32.56 61.726 72.58 61.726h132.152c40.020 0 72.578-27.688 72.578-61.726v-61.732zM913.612 49.334h-298.288c-24.846 0-45.056 20.212-45.056 45.056v194.406c0 24.844 20.21 45.054 45.056 45.054h298.286c24.846 0 45.058-20.21 45.058-45.054v-194.406c0.002-24.842-20.21-45.056-45.056-45.056zM615.324 291.906c-1.656 0-3.11-1.454-3.11-3.108v-194.406c0-1.656 1.454-3.11 3.11-3.11h298.286c1.66 0 3.114 1.454 3.114 3.11v194.406c0 1.654-1.454 3.108-3.114 3.108h-298.286zM764.468 149.584c-11.584 0-20.972 9.39-20.972 20.972v52.802c0 11.586 9.39 20.972 20.972 20.972 11.584 0 20.972-9.388 20.972-20.972v-52.802c0-11.584-9.388-20.972-20.972-20.972z" />
<glyph unicode="&#xe645;" d="M933.79 349.751c-53.726 93.054-21.417 212.304 72.153 266.487l-100.626 174.293c-28.75-16.855-62.176-26.519-97.847-26.519-107.536 0-194.709 87.746-194.709 195.991h-201.257c0.265-33.41-8.073-67.282-25.959-98.251-53.723-93.056-173.157-124.702-266.862-70.759l-100.624-174.293c28.969-16.473 54.050-40.587 71.886-71.479 53.639-92.907 21.513-211.92-71.707-266.224l100.626-174.293c28.649 16.697 61.915 26.254 97.401 26.254 107.195 0 194.144-87.191 194.699-194.958h201.255c-0.087 33.074 8.272 66.569 25.966 97.218 53.637 92.905 172.777 124.594 266.414 71.013l100.626 174.29c-28.782 16.466-53.694 40.498-71.435 71.23zM512 240.667c-114.507 0-207.337 92.825-207.337 207.335 0 114.507 92.825 207.335 207.337 207.335 114.507 0 207.333-92.825 207.333-207.335-0.002-114.51-92.825-207.335-207.333-207.335z" />
<glyph unicode="&#xe649;" d="M64 960h96v-1024h-96zM384 768h128v-128h-128zM512 640v-128c64 0 64-64 128-64v128c-64 0-64 64-128 64zM640 704h128v-128h-128zM640 896c-32 0-48 16-64 32s-32 32-64 32h-320v-640h320c32 0 48-16 64-32s32-32 64-32h320v640h-320zM896 576h-128v-128h128v-128h-128v128h-128v-128c-32 0-48 16-64 32s-32 32-64 32v128h-128v-128h-128v128h128v128h-128v128h128v128h128v-128c32 0 48-16 64-32s32-32 64-32v128h128v-128h128v-128z" />
<glyph unicode="&#xe64c;" d="M832 787.694c76.466 0 145.093 41.623 192 73.106v-595.689c-46.907-31.486-115.534-73.111-192-73.111s-145.093 22.67-192 54.155c-46.907 31.481-115.534 54.151-192 54.151s-145.090-38.917-192-70.395v595.689c46.91 31.483 115.534 70.4 192 70.4s145.093-22.667 192-54.151c46.907-31.486 115.534-54.155 192-54.155zM128 960c35.346 0 64-28.654 64-64v-960h-128v960c0 35.346 28.654 64 64 64z" />
<glyph unicode="&#xe64f;" d="M755.189 896c-107.63 0-200.258-87.554-243.163-179.001-42.939 91.445-135.579 179.001-243.218 179.001-148.382 0-268.807-120.439-268.807-268.832 0-301.847 304.501-380.994 512.023-679.417 196.153 296.576 511.977 387.205 511.977 679.417 0 148.393-120.43 268.832-268.811 268.832z" />
<glyph unicode="&#xe656;" d="M512.208 890.811c-244.414 0-442.521-198.231-442.521-442.578 0-244.411 198.107-442.523 442.521-442.523 244.411 0 442.553 198.112 442.553 442.523 0 244.35-198.139 442.578-442.553 442.578zM512.208 69.159c-209.033 0-379.049 170.11-379.049 379.074 0 209.033 170.018 379.072 379.049 379.072s379.072-170.041 379.072-379.072c0.002-208.962-170.041-379.074-379.072-379.074zM512.208 758.439c-171.291 0-310.213-138.91-310.213-310.203 0-171.369 138.919-310.215 310.213-310.215 171.321 0 310.208 138.848 310.208 310.215 0 171.291-138.885 310.203-310.208 310.203zM587.454 503.959l-16.937-39.314h-122.343l-0.585-22.946h116.354l-16.912-39.317h-95.056c11.673-57.55 38.585-86.263 80.837-86.263 27.303 0 55.333 11.438 84.107 34.4l-0.521-82.542c-24.393-14.183-52.455-21.314-84.107-21.314-45.881 0-82.866 14.718-110.862 44.279-25.504 26.558-42.085 63.701-49.703 111.442h-42.089l16.971 39.317h21.849v14.192c0 5.102 0.155 8.037 0.523 8.754h-39.87l16.912 39.314h27.858c8.763 44.080 26.786 78.814 54.087 104.322 28.745 27.662 64.782 41.534 108.112 41.534 30.61 0 63.737-9.159 99.417-27.353l-33.289-68.208c-25.509 16.288-49.385 24.528-71.557 24.528-38.229 0-63.767-24.992-76.489-74.823h133.291z" />
<glyph unicode="&#xe657;" d="M383.491 436.864h-251.974c-3.946 0-7.559 2.213-9.347 5.735-1.788 3.52-1.447 7.743 0.881 10.932 0.616 0.843 61.812 84.639 69.227 94.691 11.166 15.127 19.625 17.999 31.324 17.999l1.307-0.006c2.818-0.012 20.538-0.019 42.923-0.019l108.29 0.019c0.002 0 0.004 0 0.004 0 5.513 0 10.086-4.267 10.459-9.77l7.367-108.385c0.196-2.898-0.817-5.743-2.798-7.867-1.98-2.126-4.754-3.329-7.662-3.329zM152.152 457.829h220.125l-5.944 87.418-98.501-0.019c-22.44 0-40.206 0.006-43.030 0.019l-1.198 0.006c-5.274 0-7.456 0-14.458-9.481-5.323-7.219-38.605-52.773-56.993-77.944zM652.89 436.864h-216.645c-5.445 0-9.983 4.166-10.444 9.587l-9.25 108.37c-0.253 2.947 0.755 5.867 2.772 8.034 2.019 2.168 4.849 3.35 7.818 3.337l80.943-1.132c31.83-1.093 43.147-10.082 54.092-18.776l1.891-1.5c9.758-7.673 87.249-81.459 96.055-89.847 3.104-2.957 4.092-7.503 2.501-11.484-1.593-3.982-5.445-6.588-9.734-6.588zM445.87 457.829h180.785c-32.252 30.599-69.921 66.051-75.548 70.482l-1.97 1.556c-9.781 7.774-16.849 13.386-41.558 14.235l-69.155 0.963 7.444-87.235zM1003.577 360.177c0 54.137-43.845 79.157-66.67 84.732l-176.447 46.803c-25.307 19.295-150.977 115.028-163.86 123.368-31.542 20.417-70.072 23.232-107.023 23.232-0.010 0-0.025 0-0.037 0h-267.655c-39.697 0-70.264-13.221-91.068-39.576l-106.6-140.456c-2.488-3.273-3.837-7.282-3.839-11.395l-0.091-181.737c-0.002-5.010 1.984-9.812 5.524-13.348 3.535-3.542 8.34-5.532 13.344-5.532h85.907c14.765-33.055 47.929-56.162 86.406-56.162s71.641 23.108 86.406 56.162h417.364c15.212-31.927 47.793-54.050 85.449-54.050s70.237 22.124 85.453 54.050h98.624c5.007 0 9.812 1.99 13.346 5.537 3.542 3.544 5.528 8.349 5.522 13.357 0-0.002-0.058 48.34-0.058 95.016zM211.47 227.84c-24.61 0-45.555 15.747-53.457 37.67-0.064 3.174-0.955 6.126-2.402 8.731-0.638 3.403-1.011 6.897-1.011 10.479 0 31.383 25.509 56.921 56.867 56.921s56.867-25.536 56.867-56.921c0.002-31.363-25.507-56.882-56.864-56.882zM800.691 229.954c-31.355 0-56.864 25.518-56.864 56.884 0 31.383 25.509 56.919 56.864 56.919s56.869-25.534 56.869-56.919c0-31.366-25.513-56.884-56.869-56.884zM895.225 284.004c0.027 0.945 0.072 1.885 0.072 2.834 0 52.192-42.44 94.656-94.607 94.656-52.165 0-94.602-42.464-94.602-94.656 0-0.949 0.043-1.889 0.072-2.834h-400.104c0.002 0.242 0.019 0.482 0.019 0.717 0 52.192-42.44 94.658-94.605 94.658s-94.605-42.466-94.605-94.658c0-0.237 0.012-0.477 0.019-0.717h-58.849l0.076 156.517 102.543 135.115c13.25 16.78 33.279 24.937 61.231 24.937h267.653c0.012 0 0.021 0 0.031 0 42.607 0 67.679-4.977 86.527-17.173 9.304-6.021 103.449-77.437 164.457-123.973 1.967-1.496 4.21-2.598 6.604-3.232l180.296-47.823c3.927-1.025 38.383-11.063 38.383-48.199 0-28.599 0.021-57.812 0.037-76.174h-70.649z" />
<glyph unicode="&#xe658;" d="M891.385 417.111c0 25.287-1.865 66.553-4.087 91.737l-22.505 272.11c-2.217 25.15-24.521 48.485-49.575 51.888 0 0-74.626 25.707-302.459 25.707-227.831 0-302.457-25.707-302.457-25.707-25.047-3.403-47.349-26.738-49.602-51.888l-22.4-272.112c-2.293-25.182-4.119-66.453-4.119-91.737v-249.349h58.759v-62.514c0-36.4 29.531-65.897 65.899-65.897 36.359 0 65.925 29.497 65.925 65.897l-0.002 62.514h376.039v-62.514c0-36.37 29.529-65.897 65.895-65.897 36.43 0 65.927 29.529 65.927 65.897l-0.002 62.514h58.766v249.351zM417.504 822h190.583c20.601 0 37.381-16.786 37.381-37.413 0-20.665-16.779-37.413-37.381-37.413h-190.583c-20.667 0-37.447 16.745-37.447 37.413 0 20.626 16.779 37.413 37.447 37.413zM258.839 221.429c-30.153 0-54.617 24.457-54.617 54.617 0 30.176 24.462 54.574 54.617 54.574 30.146 0 54.615-24.398 54.615-54.574-0.002-30.162-24.471-54.617-54.615-54.617zM216 406.907v20.839c0 19.815 1.433 52.187 3.207 71.874l17.591 167.797c1.733 19.714 19.419 35.874 39.241 35.874h473.518c19.787 0 37.447-16.158 39.209-35.874l17.625-167.797c1.765-19.687 3.17-52.055 3.17-71.874v-20.839h-593.561zM766.695 221.429c-30.151 0-54.61 24.457-54.61 54.617 0 30.176 24.457 54.574 54.61 54.574 30.213 0 54.613-24.398 54.613-54.574-0.005-30.162-24.402-54.617-54.613-54.617z" />
<glyph unicode="&#xe659;" d="M657.748 315.384c0.348 0.694 1.062 1.144 1.838 1.144l88.192 0.49c0.796-0.020 1.552-0.47 1.9-1.186l81.328-169.682 17.466-7.496c0.244-0.102 0.45-0.246 0.634-0.43 0.164-0.142 14.648-14.382 20.756-20.878 0.572-0.614 0.736-1.492 0.408-2.248-0.326-0.776-1.082-1.266-1.92-1.266h-61.102c-1.43 0-4.822 0-149.336 199.386-0.45 0.634-0.512 1.47-0.164 2.166zM26.814 206.022l52.972 113.768c0.062 0.144 0.122 0.266 0.224 0.388l87.15 113.892c0.388 0.512 1 0.816 1.634 0.816 0.674 0 1.246-0.286 1.654-0.776l67.334-84.922c0.388-0.47 0.532-1.104 0.408-1.696-0.122-0.612-0.51-1.124-1.042-1.43l-139.774-75.71-34.914-65.72 0.062-35.688c0-0.736-0.388-1.43-1.022-1.798l-11.644-6.946c-0.326-0.204-0.694-0.306-1.082-0.306-0.204 0-0.408 0.042-0.612 0.102-0.552 0.164-1.022 0.572-1.266 1.104l-20.082 43.166c-0.266 0.55-0.266 1.204 0 1.756zM892.17 635.826c0-8.458-6.864-15.322-15.322-15.322s-15.322 6.864-15.322 15.322 6.864 15.322 15.322 15.322 15.322-6.864 15.322-15.322zM995.256 594.418c0.45 0.96 0.062 2.022-0.858 2.574l-65.658 39.714-28.314 41.736c-0.224 0.326-0.532 0.592-0.878 0.736l-38.346 16.69c-6.516 2.594-10.622 3.862-15.382 5.332-2.124 0.654-4.412 1.368-7.15 2.266-0.408 0.124-9.52 3.024-21.634 3.024-11.298 0-27.334-2.614-39.49-15.076-0.45-0.45-0.654-1.084-0.592-1.716l9.010-71.316c0.94-6.19-0.244-9.092-1.41-10.438-2.248-2.614-7.6-1.574-10.174 1.47-1.164 1.35-29.050 34.24-29.050 34.24-0.736 0.858-2.022 0.98-2.9 0.266l-71.134-58.346c-65.536-9.56-132.502-14.402-198.998-14.402-68.824 0-138.038 5.188-205.74 15.444-34.32 12.952-64.944 27.232-91.012 42.43-22.554 13.136-41.552 26.966-56.526 41.104-15.608 14.586-27.926 31.236-34.73 46.926-3.126 7.15-5.332 14.444-6.558 21.696-1.082 6.618-1.532 12.482-1.288 17.406-0.020 2.002 0.122 3.718 0.266 5.29l0.102 1.308c0.102 1.574 0.286 3.084 0.572 4.72l0.736 4.74c0.408 2.82-0.266 5.618-1.962 7.906s-4.168 3.78-6.966 4.21c-5.556 0.836-10.828-2.902-11.992-8.294l-1.002-4.74c-0.348-1.492-0.776-3.534-1.062-5.946l-0.142-1.042c-0.306-2.042-0.654-4.372-0.776-6.966-0.634-6.108-0.51-13.708 0.368-21.86 1.022-9.254 3.268-18.548 6.64-27.64 7.048-19.264 20.408-39.796 37.65-57.834 15.69-16.63 35.69-33.034 59.386-48.704 20.858-13.81 44.596-27.15 70.542-39.714-6.66-9.868-34.218-52.36-32.666-78.692 2.186-36.916 78.794-142.144 85.598-151.4l6.252-107.476c0.020-0.45 0.184-0.878 0.49-1.226l95.506-113.094c0.388-0.47 0.98-0.736 1.594-0.736h62.86c0.878 0 1.654 0.532 1.962 1.348l7.538 20.122c0.184 0.532 0.164 1.104-0.082 1.614-0.224 0.51-0.654 0.898-1.186 1.082l-45.862 16.098-56.976 81.736 25.944 181.736 168.702-63.166 28.11-123.514-43.228-3.534c-0.306-0.020-0.592-0.102-0.838-0.244l-35.506-19.612c-0.51-0.286-0.878-0.776-1.022-1.328l-6.312-25.536c-0.184-0.306-0.286-0.654-0.286-1.042 0-1.164 0.96-2.104 2.124-2.084 0.102 0 0.224 0 0.326 0.020l144.126 19.264c1.042 0.144 1.818 1.042 1.798 2.084l-1.226 142.88 106.434 24.76c0.614 0.142 1.124 0.552 1.41 1.124l68.13 140.694c3.554 7.376 8.968 13.79 15.69 18.53 8.172 5.822 17.794 8.886 27.886 8.886 3.064 0 6.128-0.286 9.112-0.838 0.122-0.020 0.348-0.042 0.47-0.042l63.78-11.85c1.042-0.346 3.33-0.632 5.394-0.858l0.654-0.082c10.542-1.756 18.814 3.208 21.348 12.604 0.244 0.9-0.122 1.838-0.92 2.328l-34.75 21.042c0.694 0.042 1.41 0.102 2.166 0.164l2.288 0.164c4.432 0.246 10.908 0.776 18.038 1.41 19.040 1.572 42.636 3.962 42.86 3.982 0.92 0.102 1.676 0.776 1.838 1.696 2.368 12.198 6.31 32.156 6.884 33.792z" />
<glyph unicode="&#xe65a;" d="M922.452 485.822c-3.456-4.868-12.188-4.602-19.49 0.614-7.3 5.194-10.41 13.374-6.932 18.242 3.476 4.866 12.21 4.582 19.51-0.634 7.28-5.194 10.388-13.354 6.912-18.222zM954.478 445.596l-8.958 23.518 3.374 35.196c0.122 1.228-0.184 2.474-0.858 3.518l-29.388 45.198 10.124 47.22c0.45 2.148-0.388 4.336-2.168 5.624-1.738 1.228-4.172 1.33-6.034 0.224l-49.88-30.206c-24.582-6.238-65.444-16.116-70.904-16.116-0.512 0-1.574-0.244-4.602-1.002-9.49-2.392-31.74-7.976-57.344-8.754-29.224-5.87-62.396-8.834-98.82-8.834-122.298 0-251.67 32.21-317.912 51.414l-0.634 0.184c-0.88 0.246-2.086 0.634-3.578 1.084-7.976 2.432-24.582 7.526-38.59 9.428-10.022 1.35-21.658-0.716-34.256-6.096l-59.328-28.61c-2.822 1.534-5.584 3.518-8.528 5.604l-0.512 0.388c-0.614 0.43-1.228 0.88-1.882 1.31-1.104 0.778-2.25 1.576-3.334 2.454l-5.154 4.458c-3.272 2.598-6.238 5.686-9.388 8.958l-1.022 1.064c-2.392 2.27-4.458 4.846-6.626 7.586-1.124 1.412-2.27 2.844-3.456 4.234-3.496 4.622-6.83 9.652-9.326 13.498-0.838 1.472-1.758 3.008-2.658 4.562-1.984 3.334-4.028 6.79-5.686 10.45-5.788 10.88-10.062 23.090-13.6 33.684-2.884 9.918-6.442 23.11-8.386 36.668-0.838 4.806-1.35 9.714-1.84 14.48l-0.47 4.356c-0.102 1.616-0.224 3.272-0.328 4.928-0.328 4.542-0.634 9.224-0.614 13.806-0.348 10.818 0.184 22.414 1.678 36.504 1.39 11.678 3.518 22.906 6.32 33.356 3.252 11.534 6.606 20.758 10.308 28.222 3.844 8.59 8.65 15.584 12.864 21.31 1.942 2.332 4.11 4.766 6.728 7.588 0.94 0.798 1.922 1.676 2.864 2.516 1.228 1.084 2.372 2.108 3.498 3.026l5.584 3.702c0.982 0.696 1.922 1.104 2.842 1.492 0.552 0.246 1.064 0.47 1.534 0.716l3.682 1.738c2.004 0.942 3.394 2.476 4.090 4.398 0.696 1.944 0.594 4.008-0.286 5.85-1.574 3.354-5.624 5.154-9.162 4.030l-5.010-1.556c-0.572-0.204-1.146-0.368-1.76-0.552-1.35-0.388-2.864-0.858-4.438-1.636l-7.792-3.844c-2.924-1.82-6.054-3.966-9.080-6.054-3.498-2.964-6.586-5.726-9.49-8.528-6.034-6.524-12.884-14.398-18.262-23.826-5.194-8.364-10.124-18.632-15.094-31.33-2.188-5.992-4.294-11.862-5.808-17.958-1.596-5.316-2.762-10.736-4.008-16.462l-0.572-2.556c-2.372-12.864-4.642-26.668-5.112-40.718-0.368-5.298-0.328-10.758-0.306-16.034 0-1.698 0-3.396 0-5.092l0.184-4.478c0.224-5.562 0.45-11.308 1.064-16.974 1.084-13.518 3.538-27.854 7.24-42.62 3.742-13.212 8.038-27.24 14.296-40.534 1.942-4.766 4.418-9.386 6.81-13.866 0.86-1.636 1.738-3.252 2.576-4.888 1.084-2.046 2.332-4.008 3.538-5.932 0.634-0.982 1.248-1.942 1.84-2.944 0.512-0.776 1.002-1.554 1.472-2.31 1.31-2.086 2.658-4.234 4.234-6.198 1.268-1.596 2.496-3.21 3.682-4.784 2.864-3.784 5.562-7.342 8.774-10.594l0.286-0.328c4.274-4.704 8.324-9.142 12.864-13.028l6.564-5.91c1.534-1.31 3.108-2.476 4.642-3.62 0.716-0.532 1.452-1.084 2.168-1.636l0.266-0.184c4.376-3.292 8.528-6.422 12.864-8.834l7.404-4.438c1.596-0.962 3.108-1.862 4.97-2.68l0.838-0.408v-102.522l-88.308-109.168c-1.146-1.412-1.514-3.312-0.982-5.052 16.258-52.784 45.484-132.564 48.1-139.476 0.062-0.122 0.102-0.266 0.144-0.43 0.654-2.086 2.168-6.974 13.456-6.974l0.962 0.020c10.246 0 25.482 0.164 44.052 0.492l1.042 0.020c2.148 0.062 4.070 1.35 4.928 3.292 0.838 1.964 0.47 4.254-0.94 5.85l-29.756 33.192-14.97 55.606 212.302 105.608 303.718-39.572 149.498-155.592c1.002-1.042 2.434-1.656 3.886-1.676l62.252-0.778c2.29 0 4.294 1.33 5.134 3.396 0.858 2.086 0.348 4.458-1.268 6.012l-23.438 22.536c-0.572 0.532-1.206 0.92-1.902 1.186-33.682 12.414-63.358 42.764-79.37 81.212-21.474 51.454-15.072 107.654 15.87 139.966l50.636 14.97 51.21-20.492c1.492-0.614 3.252-0.512 4.684 0.286l44.768 24.746c2.368 1.308 3.432 4.212 2.47 6.75zM232.472 256.53l43.704 19.632c0.47 0.204 1.022 0.062 1.33-0.348l47.406-64.83 39.778-31.474c0.778-0.756 1.942-2.782 0.756-5.050-0.532-1.022-1.574-2.372-4.478-2.372-0.532 0-1.146 0.042-1.78 0.144l-52.15 4.642c-0.266 0.042-0.512 0.144-0.696 0.348l-74.218 77.55c-0.246 0.246-0.348 0.614-0.286 0.962 0.080 0.346 0.306 0.652 0.634 0.796zM529.464 224.74l30.492 64.462c0.184 0.368 0.552 0.614 0.982 0.634l86.14 2.27c0.43 0.020 0.86-0.246 1.042-0.634 0.184-0.408 0.102-0.88-0.204-1.206l-72.212-77.98c-0.696-0.696-1.308-1.492-1.86-2.434-1.288-2.086-1.984-4.478-1.984-6.954 0-1.002 0.102-1.862 0.286-2.678 0.306-1.472 0.756-2.68 1.412-3.764l11.37-19.080c0.040-0.102 0.082-0.204 0.122-0.308 0-0.020 0.43-1.82-0.634-3.19-0.47-0.592-1.412-1.328-3.17-1.328-0.184 0-0.348 0.020-0.47 0.020h-50.31c-0.614 0-1.104 0.492-1.104 1.104v50.596c-0.002 0.164 0.040 0.326 0.102 0.47z" />
<glyph unicode="&#xe65b;" d="M497.346 213.474c0.692 0 1.342 0.326 1.75 0.894l7.916 11.172 43.688-3.988c0.896-0.060 1.75 0.408 2.136 1.22 0.386 0.814 0.224 1.79-0.408 2.442l-27.776 28.264c-0.326 0.346-0.752 0.55-1.2 0.63l-48.98 8.018c-0.548 0.102-1.098-0.020-1.546-0.326l-19.25-12.922c-0.752-0.488-1.12-1.404-0.916-2.258 0.224-0.876 0.936-1.526 1.832-1.648l28.040-3.684 12.78-26.596c0.326-0.692 0.996-1.16 1.75-1.22 0.062 0.002 0.122 0.002 0.184 0.002zM694.192 802.282c0-8.424-6.816-15.262-15.262-15.262-8.424 0-15.262 6.838-15.262 15.262 0 8.444 6.838 15.262 15.262 15.262 8.446 0 15.262-6.816 15.262-15.262zM762.32 774.588l-21.162 18.396-11.334 27.41c-0.224 0.53-22.24 50.138-80.926 50.138-9.096 0-18.7-1.2-28.55-3.54-0.142-0.040-0.264-0.080-0.366-0.122l-74.294-28.55c-74.17-2.748-119.894 56.446-120.322 57.018-0.834 1.1-2.28 1.466-3.54 0.916-1.242-0.548-1.934-1.872-1.69-3.214 10.072-54.29 42.448-78.71 56.142-86.788-8.526-2.502-19.026-3.784-31.296-3.784-16.462 0-30.238 2.38-30.38 2.4-1.14 0.204-2.28-0.284-2.93-1.262-0.65-0.956-0.672-2.198-0.060-3.194 20.308-32.334 68.474-39.132 105.304-39.132 9.178 0 17.296 0.428 23.624 0.936l-52.052-73.032-102.864-114.684c-0.244-0.264-0.448-0.592-0.57-0.916l-84.894-224.486c-0.142-0.326-0.204-0.672-0.204-1.038v-69.98l-65.278-233.5c-0.346-1.242 0.142-2.544 1.22-3.236 1.058-0.712 2.462-0.63 3.44 0.164l72.056 58.746c0.508 0.428 0.854 0.996 1.018 1.628l44.93 194.594c0 0 151.924 187.472 151.78 188.306l-2.544 36.424 8.73 11.478 13.206-57.506c0 0-151.658-205.582-151.72-206.112l-18.070-193.964c-0.060-0.59 0.060-1.2 0.366-1.71l58.746-105.304c0.53-0.936 1.506-1.506 2.564-1.506 0.224 0 0.448 0.020 0.672 0.082 1.282 0.304 2.198 1.444 2.258 2.748l10.154 286.612 112.792 71.484 20.756-26.006c0.488-0.63 1.242-1.018 2.056-1.078l69.164-5.414 12.046-23.258c0.468-0.916 1.424-1.526 2.462-1.566 1.018-0.102 2.034 0.468 2.604 1.344l11.354 17.764 32.924-4.74c1.242-0.164 2.462 0.448 3.032 1.566 0.57 1.098 0.386 2.462-0.488 3.358l-26.454 27.572c-0.51 0.53-1.2 0.854-1.934 0.896l-63.468 4.172 20.614 86.482 60.844 138.066c0.204 0.428 0.284 0.916 0.244 1.404l-9.136 122.988 53.314 36.586c6.024-9.442 2.136-24.154 2.096-24.296-0.304-1.12 0.082-2.3 0.956-3.032 0.896-0.732 2.116-0.874 3.174-0.386 1.424 0.712 35.020 17.52 35.61 51.624 0.104 0.526 3.076 22.298-15.726 43.034z" />
<glyph unicode="&#xe65c;" d="M438.857 374.857v-219.429q0-29.714-21.714-51.429t-51.429-21.714h-292.571q-29.714 0-51.429 21.714t-21.714 51.429v219.429q0 29.714 21.714 51.429t51.429 21.714h292.571q29.714 0 51.429-21.714t21.714-51.429zM438.857 813.714v-219.429q0-29.714-21.714-51.429t-51.429-21.714h-292.571q-29.714 0-51.429 21.714t-21.714 51.429v219.429q0 29.714 21.714 51.429t51.429 21.714h292.571q29.714 0 51.429-21.714t21.714-51.429zM950.857 374.857v-219.429q0-29.714-21.714-51.429t-51.429-21.714h-292.571q-29.714 0-51.429 21.714t-21.714 51.429v219.429q0 29.714 21.714 51.429t51.429 21.714h292.571q29.714 0 51.429-21.714t21.714-51.429zM950.857 813.714v-219.429q0-29.714-21.714-51.429t-51.429-21.714h-292.571q-29.714 0-51.429 21.714t-21.714 51.429v219.429q0 29.714 21.714 51.429t51.429 21.714h292.571q29.714 0 51.429-21.714t21.714-51.429z" horiz-adv-x="951" />
<glyph unicode="&#xe65f;" d="M658.286 448q0-21.143-18.857-32l-292.571-164.571q-8-4.571-17.714-4.571t-18.286 5.143q-18.286 10.286-18.286 31.429v329.143q0 21.143 18.286 31.429 17.714 11.429 36 0.571l292.571-164.571q18.857-10.857 18.857-32zM731.429 448q0 59.429-23.143 113.429t-62.571 93.429-93.429 62.571-113.429 23.143-113.429-23.143-93.429-62.571-62.571-93.429-23.143-113.429 23.143-113.429 62.571-93.429 93.429-62.571 113.429-23.143 113.429 23.143 93.429 62.571 62.571 93.429 23.143 113.429zM877.714 448q0-119.429-58.857-220.286t-159.714-159.714-220.286-58.857-220.286 58.857-159.714 159.714-58.857 220.286 58.857 220.286 159.714 159.714 220.286 58.857 220.286-58.857 159.714-159.714 58.857-220.286z" horiz-adv-x="878" />
<glyph unicode="&#xe660;" d="M802.286 168.571q0-66.857-45.143-112t-112-45.143q-77.143 0-134.286 57.143l-444 443.429q-64.571 65.714-64.571 154.857 0 90.857 62.857 154.286t153.714 63.429q90.286 0 156-64.571l345.714-346.286q5.714-5.714 5.714-12.571 0-9.143-17.429-26.571t-26.571-17.429q-7.429 0-13.143 5.714l-346.286 346.857q-45.143 44-103.429 44-60.571 0-102.286-42.857t-41.714-103.429q0-60 43.429-103.429l443.429-444q36-36 82.857-36 36.571 0 60.571 24t24 60.571q0 46.857-36 82.857l-332 332q-14.857 13.714-34.286 13.714-16.571 0-27.429-10.857t-10.857-27.429q0-18.286 14.286-33.714l234.286-234.286q5.714-5.714 5.714-12.571 0-9.143-17.714-26.857t-26.857-17.714q-6.857 0-12.571 5.714l-234.286 234.286q-36 34.857-36 85.143 0 46.857 32.571 79.429t79.429 32.571q50.286 0 85.143-36l332-332q57.143-56 57.143-134.286z" horiz-adv-x="805" />
<glyph unicode="&#xe661;" d="M0-64h512v1024h-512v-1024zM320 832h128v-128h-128v128zM320 576h128v-128h-128v128zM320 320h128v-128h-128v128zM64 832h128v-128h-128v128zM64 576h128v-128h-128v128zM64 320h128v-128h-128v128zM576 640h448v-64h-448zM576-64h128v256h192v-256h128v576h-448z" />
<glyph unicode="&#xe662;" d="M896 768h-768v-640h768v640zM1024 896v0-896h-1024v896h1024zM832 192h-640v128l192 320 263.001-320 184.999 128v-64zM640 608c0 53.019 42.981 96 96 96s96-42.981 96-96c0-53.019-42.981-96-96-96s-96 42.981-96 96z" />
<glyph unicode="&#xe666;" d="M698.777 583.015c-6.759 18.176 181.248 186.112 71.577 322.151-25.703 31.794-112.69-152.37-236.288-235.726-68.146-45.977-226.866-143.872-226.866-197.991v-350.258c0-65.077 251.598-133.991 442.83-133.991 70.091 0 171.57 439.040 171.57 508.825 0 69.991-216.064 68.761-222.823 86.99zM256 578.151c-33.639 0-153.6-20.48-153.6-159.847v-248.217c0-139.367 119.961-154.674 153.6-154.674s-51.2 29.287-51.2 115.662v326.295c0 90.521 84.839 120.782 51.2 120.782z" />
<glyph unicode="&#xe667;" d="M325.273 312.935c6.706-18.176-181.248-186.062-71.577-322.098 25.703-31.847 112.69 152.32 236.288 235.726 68.146 45.975 226.816 143.92 226.816 197.989v350.208c0 65.127-251.545 134.041-442.777 134.041-70.094 0-171.623-439.040-171.623-508.825 0-69.991 216.114-68.761 222.873-87.040zM768 317.849c33.689 0 153.6 20.43 153.6 159.847v248.167c0 139.367-119.911 154.727-153.6 154.727-33.639 0 51.2-29.337 51.2-115.662v-326.297c0-90.521-84.839-120.782-51.2-120.782z" />
<glyph unicode="&#xe66a;" d="M842.688-64c-0.8 459.232-401.504 834.528-842.688 835.392v188.608c541.312 0 1024-460.608 1024-1024h-181.312zM687.2-63.936h-181.216c0.608 112.768-56.672 238.976-147.328 333.472-90.144 95.264-249.92 155.296-358.208 154.72v188.544c338.080-7.296 679.872-326.624 686.752-676.736zM128.512 192.096c70.624 0 127.872-57.312 127.872-128 0-70.656-57.248-127.968-127.872-127.968s-127.872 57.312-127.872 127.968c0 70.688 57.248 128 127.872 128z" />
<glyph unicode="&#xe66b;" d="M512.416-64v512.544h-512.416l1024 511.456-511.584-1024z" />
<glyph unicode="&#xe66c;" d="M927.754 139.288h-827.118c-21.174 0-38.398 17.228-38.398 38.398v408.272c0 19.726 14.948 36.026 34.108 38.166l412.688 142.292c4.552 1.572 9.508 1.564 14.062-0.020l408.988-142.276c19.144-2.156 34.072-18.448 34.072-38.162v-408.27c-0.004-21.172-17.232-38.4-38.402-38.4zM105.204 182.256h817.98v399.628c-0.844 0.182-1.674 0.418-2.49 0.702l-404.692 140.78-408.364-140.8c-0.798-0.276-1.61-0.502-2.434-0.68v-399.63zM345.032 511.28h338.33v-40.6h-338.33v40.6zM683.364 457.338h-338.332c-7.368 0-13.344 5.974-13.344 13.344v40.6c0 7.368 5.974 13.344 13.344 13.344h338.332c7.372 0 13.344-5.974 13.344-13.344v-40.6c0-7.37-5.972-13.344-13.344-13.344zM358.374 484.024h311.646v13.912h-311.646v-13.912zM683.36 151.164c-6.57 0-11.898 5.328-11.898 11.898v209.416h-314.534v-209.418c0-6.57-5.326-11.898-11.898-11.898s-11.898 5.328-11.898 11.898v221.318c0 6.57 5.326 11.898 11.898 11.898h338.33c6.57 0 11.898-5.33 11.898-11.898v-221.316c0-6.57-5.33-11.898-11.898-11.898zM514.192 158.764c-6.382 0-11.556 5.176-11.556 11.558v202.996c0 6.382 5.172 11.558 11.556 11.558 6.382 0 11.556-5.176 11.556-11.558v-202.998c0-6.382-5.174-11.556-11.556-11.556z" />
<glyph unicode="&#xe66d;" d="M765.143 498.857q9.714-23.429-8-40l-256-256q-10.286-10.857-25.714-10.857t-25.714 10.857l-256 256q-17.714 16.571-8 40 9.714 22.286 33.714 22.286h146.286v256q0 14.857 10.857 25.714t25.714 10.857h146.286q14.857 0 25.714-10.857t10.857-25.714v-256h146.286q24 0 33.714-22.286zM932.571 374.857q8 0 13.143-5.143t5.143-13.143v-329.143q0-8-5.143-13.143t-13.143-5.143h-914.286q-8 0-13.143 5.143t-5.143 13.143v329.143q0 8 5.143 13.143t13.143 5.143h109.714q8 0 13.143-5.143t5.143-13.143v-201.143h658.286v201.143q0 8 5.143 13.143t13.143 5.143h109.714z" horiz-adv-x="951" />
<glyph unicode="&#xe66e;" d="M863.429 356.571q0-2.857-0.571-4-36.571-153.143-153.143-248.286t-273.143-95.143q-83.429 0-161.429 31.429t-139.143 89.714l-73.714-73.714q-10.857-10.857-25.714-10.857t-25.714 10.857-10.857 25.714v256q0 14.857 10.857 25.714t25.714 10.857h256q14.857 0 25.714-10.857t10.857-25.714-10.857-25.714l-78.286-78.286q40.571-37.714 92-58.286t106.857-20.571q76.571 0 142.857 37.143t106.286 102.286q6.286 9.714 30.286 66.857 4.571 13.143 17.143 13.143h109.714q7.429 0 12.857-5.429t5.429-12.857zM877.714 813.714v-256q0-14.857-10.857-25.714t-25.714-10.857h-256q-14.857 0-25.714 10.857t-10.857 25.714 10.857 25.714l78.857 78.857q-84.571 78.286-199.429 78.286-76.571 0-142.857-37.143t-106.286-102.286q-6.286-9.714-30.286-66.857-4.571-13.143-17.143-13.143h-113.714q-7.429 0-12.857 5.429t-5.429 12.857v4q37.143 153.143 154.286 248.286t274.286 95.143q83.429 0 162.286-31.714t140-89.429l74.286 73.714q10.857 10.857 25.714 10.857t25.714-10.857 10.857-25.714z" horiz-adv-x="878" />
<glyph unicode="&#xe66f;" d="M665.143 886.857q13.143 0 25.143-5.143 18.857-7.429 30-23.429t11.143-35.429v-736.571q0-19.429-11.143-35.429t-30-23.429q-10.857-4.571-25.143-4.571-27.429 0-47.429 18.286l-252 242.286-252-242.286q-20.571-18.857-47.429-18.857-13.143 0-25.143 5.143-18.857 7.429-30 23.429t-11.143 35.429v736.571q0 19.429 11.143 35.429t30 23.429q12 5.143 25.143 5.143h598.857z" horiz-adv-x="731" />
<glyph unicode="&#xe670;" d="M841.143 411.429q0-30.857-21.143-52l-372-372q-22.286-21.143-52-21.143-29.143 0-51.429 21.143l-42.857 42.857q-21.714 21.714-21.714 52t21.714 52l167.429 167.429h-402.286q-29.714 0-48.286 21.429t-18.571 51.714v73.143q0 30.286 18.571 51.714t48.286 21.429h402.286l-167.429 168q-21.714 20.571-21.714 51.429t21.714 51.429l42.857 42.857q21.714 21.714 51.429 21.714 30.286 0 52-21.714l372-372q21.143-20 21.143-51.429z" horiz-adv-x="878" />
<glyph unicode="&#xe671;" d="M920.571 405.143q0-29.143-21.143-51.429l-42.857-42.857q-21.714-21.714-52-21.714-30.857 0-51.429 21.714l-168 167.429v-402.286q0-29.714-21.429-48.286t-51.714-18.571h-73.143q-30.286 0-51.714 18.571t-21.429 48.286v402.286l-168-167.429q-20.571-21.714-51.429-21.714t-51.429 21.714l-42.857 42.857q-21.714 21.714-21.714 51.429 0 30.286 21.714 52l372 372q20 21.143 51.429 21.143 30.857 0 52-21.143l372-372q21.143-22.286 21.143-52z" horiz-adv-x="951" />
<glyph unicode="&#xe672;" d="M365.714 740.571h292.571v73.143h-292.571v-73.143zM1024 374.857v-274.286q0-37.714-26.857-64.571t-64.571-26.857h-841.143q-37.714 0-64.571 26.857t-26.857 64.571v274.286h384v-91.429q0-14.857 10.857-25.714t25.714-10.857h182.857q14.857 0 25.714 10.857t10.857 25.714v91.429h384zM585.143 374.857v-73.143h-146.286v73.143h146.286zM1024 649.143v-219.429h-1024v219.429q0 37.714 26.857 64.571t64.571 26.857h201.143v91.429q0 22.857 16 38.857t38.857 16h329.143q22.857 0 38.857-16t16-38.857v-91.429h201.143q37.714 0 64.571-26.857t26.857-64.571z" />
<glyph unicode="&#xe674;" d="M977.582 765.538c33.986-9.71 53.666-45.134 43.957-79.12l-128-448c-7.851-27.474-32.965-46.418-61.538-46.418h-544c-32.277 0-59.502 24.037-63.506 56.062l-56.992 455.938h-103.502c-35.346 0-64 28.654-64 64s28.654 64 64 64h160c32.277 0 59.502-24.034 63.506-56.062l56.992-455.938h439.225l114.738 401.582c9.71 33.986 45.136 53.664 79.12 43.957zM256 32c0 53.019 42.981 96 96 96s96-42.981 96-96c0-53.019-42.981-96-96-96s-96 42.981-96 96zM640 32c0 53.019 42.981 96 96 96s96-42.981 96-96c0-53.019-42.981-96-96-96s-96 42.981-96 96zM805.255 501.255l-90.512-90.512-138.743 138.747-138.745-138.743-90.51 90.51 138.745 138.743-138.743 138.745 90.507 90.507 138.745-138.743 138.743 138.745 90.512-90.51-138.745-138.745 138.745-138.745z" />
<glyph unicode="&#xe676;" d="M320 576h128v-128h-128zM512 576h128v-128h-128zM704 576h128v-128h-128zM128 192h128v-128h-128zM320 192h128v-128h-128zM512 192h128v-128h-128zM320 384h128v-128h-128zM512 384h128v-128h-128zM704 384h128v-128h-128zM128 384h128v-128h-128zM832 960v-64h-128v64h-448v-64h-128v64h-128v-1024h960v1024h-128zM896 0h-832v704h832v-704z" />
<glyph unicode="&#xe677;" d="M1020.45 191.902l-24.898 448.197c-1.954 35.145-32.352 63.902-67.552 63.902h-160v256h-512v-256h-160c-35.202 0-65.598-28.757-67.55-63.902l-24.901-448.197c-1.952-35.145 25.25-63.902 60.45-63.902h140.8l-76.8-192h768l-76.8 192h140.8c35.2 0 62.4 28.757 60.45 63.902zM320 896h384v-192h-384v192zM222.53 0l76.8 192h425.339l76.8-192h-578.939zM896 512h-64v128h64v-128z" />
<glyph unicode="&#xe679;" d="M513.321-64l-52.896 72.066c-64.944 88.475-141.586 152.089-215.707 213.609-62.279 51.689-121.099 100.512-165.863 159.054-53.061 69.394-78.855 144.11-78.855 228.418 0 158.171 134.224 286.853 299.209 286.853 57.666 0 115.102-20.267 166.098-58.613 16.61-12.489 32.309-26.777 46.704-42.393 14.391 15.616 30.082 29.902 46.693 42.393 50.985 38.343 108.421 58.613 166.087 58.613 164.985 0 299.209-128.681 299.209-286.853 0-81.042-25.84-153.943-78.999-222.857-44.457-57.641-102.507-106.393-163.966-158.011-75.659-63.543-153.895-129.246-216.539-218.976l-51.175-73.303zM299.209 768c-94.407 0-171.209-71.262-171.209-158.853 0-124.251 83.248-193.346 198.466-288.981 58.889-48.875 123.84-102.786 184.542-171.307 60.569 70.665 127.253 126.665 187.705 177.438 56.014 47.042 108.921 91.477 144.935 138.167 36.206 46.939 52.352 91.561 52.352 144.683 0 87.591-76.805 158.853-171.209 158.853-47.952 0-117.040-35.294-155.417-112.786l-57.328-115.76-57.369 115.742c-38.414 77.502-107.518 112.805-155.467 112.805z" />
<glyph unicode="&#xe67a;" d="M755.189 896c148.382 0 268.811-120.439 268.811-268.832 0-292.21-315.824-382.841-511.977-679.417-207.522 298.423-512.023 377.57-512.023 679.417 0 148.393 120.425 268.832 268.807 268.832 60.354 0 115.991-27.529 160.798-67.833l-77.605-124.167 224-128-128-320 352 384-224 128 61.895 92.846c35.422 21.769 75.211 35.154 117.294 35.154z" />
<glyph unicode="&#xe67b;" d="M384 448h-320v128h320v128l192-192-192-192zM1024 960v-832l-384-192v192h-384v256h64v-192h320v576l256 128h-576v-256h-64v320z" />
<glyph unicode="&#xe67c;" d="M824.522 283.514c-0.294 0-0.608 0.078-0.864 0.236-0.51 0.314-0.826 0.864-0.826 1.452v24.59l-31.028 18.958c-0.51 0.314-0.804 0.864-0.804 1.452 0 0.608 0.314 1.158 0.824 1.452l39.446 23.314c0.746 0.45 1.726 0.256 2.236-0.472l20.704-29.418 46.806-27.848c0.648-0.392 0.962-1.178 0.766-1.904-0.196-0.746-0.864-1.236-1.63-1.236h-0.020l-54.184 0.51-20.646-10.892c-0.23-0.134-0.504-0.194-0.78-0.194zM869.018 553.962c0-8.124-6.596-14.718-14.718-14.718-8.124 0-14.718 6.594-14.718 14.718s6.594 14.718 14.718 14.718c8.124 0 14.718-6.594 14.718-14.718zM972.050 520.090c-0.060 0.234 0.038 21.076-1.060 22.412-19.624 23.766-48.866 39.152-81.738 40.584-7.966 9.028-19.566 14.74-32.538 14.74-18.488 0-34.226-11.56-40.526-27.828-26.022-5.2-49.572-9.93-49.572-9.93l-59.974-49.142-280.97-7.968-284.25 42.682c0 0-91.118 27.79-92.61 27.79-4.946 0-8.948-4.004-8.948-8.948s8.948-8.948 8.948-8.948c56.264-30.792 246.724-122.146 359.334-175.78l32.4-100.108-5.712-21.96c-0.236-0.432-0.354-0.942-0.354-1.472 0-1.786 1.452-3.18 3.218-3.198 0.216 0.020 0.432 0.020 0.628 0.058l23.276 4.318 40.29-11.48c1.256-0.354 2.59 0.098 3.394 1.138 0.804 1.020 0.884 2.434 0.216 3.572l-20.568 34.658-0.51 5.378 4.436 50.75c3.002-1.432 4.652-2.218 4.652-2.218 37.464-22.96 81.482-36.306 128.662-36.306 7.476 0 27.12 2.414 27.12 2.414l59.66-57.462-3.042-33.422c-0.098-0.314-0.156-0.648-0.156-1 0-1.766 1.55-3.218 3.238-3.18 0.392-0.020 0.766 0.058 1.14 0.176l33.794 12.424 52.77-8.242c1.414-0.216 2.806 0.53 3.396 1.824 0.588 1.316 0.256 2.846-0.844 3.768l-34.54 29.26-19.056 24.334-29.928 49.474 237.364 137.474 13.404 31.596-86.35 4.848v10.42l91.906 12.5z" />
<glyph unicode="&#xe67d;" d="M705.908 539.004c0-8.898-7.222-16.12-16.12-16.12s-16.12 7.222-16.12 16.12 7.222 16.12 16.12 16.12 16.12-7.222 16.12-16.12zM854.99 401.81l-41.354 15.024 39.204 14.294c1.848 0.666 3.31 2.148 3.956 4.040 0.624 1.87 0.388 3.932-0.666 5.61l-94.164 148.672c-0.15 0.238-0.322 0.474-0.494 0.688-86.428 103.708-412.166 222.976-426.008 228.006-2.172 0.794-4.622 0.366-6.406-1.118-2.644-2.192-3.116-6.060-1.138-8.856 32.112-45.202 66.35-95.26 80.494-120.71 4.040-7.264 6.664-15.776 6.664-24.48v-39.57c0-18.098-0.408-130.596 0-147.19 0-5.050-1.546-7.974-11.692-7.974-7.006 0-33.014-0.086-40.708-0.020-4.062 0.042-6.75 1.398-6.75 1.398l-172.938 86.554c-2.666 1.374-5.932 0.73-7.91-1.548-1.956-2.278-2.128-5.588-0.386-8.060l42.622-60.462 1.57-138.506-41.186-58.182c-1.784-2.514-1.57-5.932 0.516-8.19 2.084-2.278 5.48-2.794 8.146-1.226l169.392 103.234c0 0 2.858 1.784 6.662 1.784 8.642 0 20.678-0.086 33.81-0.086 11.8 0 18.85 0.494 18.85-8.232 0-6.19-0.020-109.382 0-111.616 0.086-11.606-0.558-23.902-6.448-41.804-6.362-19.388-18.914-45.33-43.354-84.062-12.014-19.022-62.654-94.464-63.17-95.218-1.764-2.666-1.376-6.234 0.966-8.426 1.246-1.182 2.858-1.784 4.492-1.784 1.376 0 2.774 0.452 3.934 1.332 0 0 45.544 34.584 69.016 52.444 67.318 51.242 150.198 121.548 186.178 149.876 1.138 0.88 0.924 1.934 0.924 1.934l19.474 337.044c0.086 2.32 1.934 4.17 4.256 4.234 2.322 0.086 4.278-1.698 4.47-3.998l26.588-325.932c0.366-2.084-0.644-2.622-2.084-4.104-1.44-1.484-85.094-86.426-85.094-86.426-2.366-2.408-2.538-6.19-0.388-8.79 2.172-2.58 5.932-3.116 8.704-1.224l246.448 166.834c43.59 28.802 67.19 52.552 70.114 70.564 1.162 7.158-1.398 11.090-2.214 12.122-0.75 0.946-1.76 1.698-2.898 2.106z" />
<glyph unicode="&#xe67e;" d="M723.562 582.086c0-8.466-6.872-15.338-15.338-15.338-8.486 0-15.338 6.872-15.338 15.338s6.852 15.338 15.338 15.338c8.468 0 15.338-6.872 15.338-15.338zM799.988 520.938c0 2.106-0.144 4.15-0.47 6.114-0.634 4.562-2.066 9.040-4.274 13.274-0.040 0.102-0.082 0.184-0.142 0.244-0.102 0.184-0.224 0.368-0.328 0.532-1.126 1.698-2.576 3.866-4.254 6.34-0.062 0.102-0.142 0.204-0.226 0.288-0.062 0.062-0.102 0.142-0.122 0.164-51.026 76.138-54.010 77.16-56.22 77.918-2.352 0.776-34.276 14.314-63.624 26.894l2.74 114.586c0.102 16.074-4.662 29.062-14.172 38.632-16.606 16.708-42.17 17.566-47.14 17.566l-0.676-0.020c-0.592-0.020-1.452-0.144-1.574-0.716-0.348-1.698 9.776-113.156 9.776-113.156l-9.040-6.032-50.31 132.542c-0.348 0.962-1.308 1.534-2.312 1.412-0.266-0.042-28.488-8.794-41.476-34.010-10.062-19.552-7.832-42.886 6.626-69.37 29.594-54.196 58.796-89.902 71.272-105.138l0.224-0.288-40.738-100.006c-22.006 5.726-46.75 8.998-68.204 8.998-143.096 0-259.524-116.428-259.524-259.544 0-27.916 4.458-55.442 13.232-81.846-13.252-7.382-21.392-21.166-21.392-36.402 0-23.028 18.732-41.76 41.76-41.76 9.98 0 19.654 4.826 28.754 14.296 1.432-0.47 3.088-1.146 4.826-1.862 2.618-1.042 5.522-2.23 8.528-3.108l0.92-10.552c0.246-2.864 2.596-5.010 5.46-5.010h197.864c2.23 0 4.234 1.328 5.072 3.416 0.858 2.046 0.388 4.396-1.208 5.972l-36.648 36.342c-1.042 1.042-2.412 1.596-3.866 1.596h-80.556l-0.102 14.356 41.516 11.636c0.43 0.122 0.798 0.368 1.084 0.696l55.626 65.382 28.55 0.634 17.71-26.606 79.902-110.988c0.94-1.492 2.658-2.434 4.54-2.434h65.792c1.922 0 3.66 0.962 4.684 2.596 1.002 1.616 1.084 3.6 0.246 5.318l-11.596 23.478c-0.696 1.412-1.962 2.454-3.476 2.864l-26.074 6.646-9.306 87.98 80.7 179.13c0.224 0.492 0.246 1.064 0.082 1.574l-9.448 29.082 72.724 35.81c9.858 6.912 16.258 17.26 17.834 28.55 0.312 1.878 0.454 3.902 0.454 5.99z" />
<glyph unicode="&#xe680;" d="M288 640h-128c-17.6 0-32-14.4-32-32v-64c0-17.6 14.4-32 32-32h128c17.6 0 32 14.4 32 32v64c0 17.6-14.4 32-32 32zM192 832h64v-160h-64zM192 480h64v-416h-64zM544 384h-128c-17.6 0-32-14.4-32-32v-64c0-17.6 14.4-32 32-32h128c17.602 0 32 14.4 32 32v64c0 17.6-14.398 32-32 32zM448.002 832h64v-416h-64zM448.002 224h64v-160h-64zM800 576h-128c-17.598 0-32-14.4-32-32v-64c0-17.6 14.402-32 32-32h128c17.602 0 32 14.4 32 32v64c0 17.6-14.398 32-32 32zM704 832h64v-224h-64zM704 416h64v-352h-64zM880 960h-800c-44.112 0-80-35.888-80-80v-864c0-44.112 35.888-80 80-80h800c44.112 0 80 35.888 80 80v864c0 44.112-35.888 80-80 80zM896 16c0-8.8-7.2-16-16-16h-800c-8.8 0-16 7.2-16 16v864c0 8.8 7.2 16 16 16h800c8.8 0 16-7.2 16-16v-864z" />
<glyph unicode="&#xe681;" d="M768 896h-128c-105.87 0-192-86.13-192-192v-192h-400c-26.4 0-48-21.6-48-48v-480c0-26.4 21.6-48 48-48h544c26.4 0 48 21.6 48 48v480c0 26.4-21.6 48-48 48h-16v192c0 35.289 28.711 64 64 64h128c35.289 0 64-28.711 64-64v-192h128v192c0 105.87-86.13 192-192 192zM384 64h-128l27.84 139.2c-16.809 11.531-27.84 30.873-27.84 52.8 0 35.346 28.654 64 64 64s64-28.654 64-64c0-21.927-11.033-41.269-27.84-52.8l27.84-139.2z" />
<glyph unicode="&#xe682;" d="M832 192h-544c-32.277 0-59.502 24.037-63.506 56.062l-56.992 455.938h-103.502c-35.346 0-64 28.654-64 64s28.654 64 64 64h160c32.277 0 59.502-24.034 63.506-56.062l56.992-455.938h439.225l114.738 401.582c9.707 33.986 45.134 53.664 79.12 43.957 33.986-9.71 53.666-45.134 43.957-79.12l-128-448c-7.851-27.474-32.965-46.418-61.538-46.418zM256 32c0 53.019 42.981 96 96 96s96-42.981 96-96c0-53.019-42.981-96-96-96s-96 42.981-96 96zM640 32c0 53.019 42.981 96 96 96s96-42.981 96-96c0-53.019-42.981-96-96-96s-96 42.981-96 96zM858.624 805.835l-268.306-356.635-160.318 206.981 53.223 48.85 103.095-91.28 227.643 230.75z" />
<glyph unicode="&#xe684;" d="M877.714 448v-73.143q0-30.286-18.571-51.714t-48.286-21.429h-402.286l167.429-168q21.714-20.571 21.714-51.429t-21.714-51.429l-42.857-43.429q-21.143-21.143-51.429-21.143-29.714 0-52 21.143l-372 372.571q-21.143 21.143-21.143 51.429 0 29.714 21.143 52l372 371.429q21.714 21.714 52 21.714 29.714 0 51.429-21.714l42.857-42.286q21.714-21.714 21.714-52t-21.714-52l-167.429-167.429h402.286q29.714 0 48.286-21.429t18.571-51.714z" horiz-adv-x="878" />
<glyph unicode="&#xe685;" d="M771.515 640c18.126 12.88 35.513 27.216 51.445 43.147 33.401 33.401 55.746 74.501 62.912 115.721 7.858 45.186-3.673 87.141-31.63 115.099-22.299 22.297-52.51 34.087-87.365 34.087-49.632 0-101.922-23.824-143.461-65.362-66.475-66.475-105.225-158.238-126.075-223.721-15.44 65.801-46.206 154.645-106.018 214.457-32.094 32.094-73.113 48.571-111.845 48.571-31.655 0-61.781-11.003-84.261-33.486-49.986-49.989-43.232-137.785 15.086-196.105 20.793-20.793 45.097-38.062 70.72-52.411h-217.024v-256h64v-448h768v448.002h64v256h-188.485zM674.327 831.783c27.723 27.723 62.322 44.274 92.551 44.274 10.699 0 25.707-2.254 36.45-12.999 26.030-26.027 11.413-86.309-31.28-128.999-43.945-43.945-103.061-74.169-154.432-94.059h-50.672c18.567 57.547 52.057 136.457 107.383 191.783zM261.214 743.323c-15.829 15.829-25.769 36.16-27.28 55.785-0.702 9.12-0.050 26.249 12.197 38.494 10.245 10.247 23.787 12.398 33.349 12.398v0c21.257 0 43.467-10.016 60.933-27.481 33.872-33.872 61.767-87.771 80.667-155.877 0.51-1.84 1.008-3.671 1.495-5.486-1.815 0.487-3.646 0.983-5.486 1.495-68.105 18.905-122.005 46.8-155.874 80.672zM896 416h-320v-416h-128v416h-320v32h320v128h128v-128h320v-32z" />
<glyph unicode="&#xe687;" d="M960 704h-256v64c0 35.2-28.8 64-64 64h-256c-35.205 0-64-28.8-64-64v-64h-256c-35.2 0-64-28.8-64-64v-576c0-35.202 28.795-64 64-64h896c35.2 0 64 28.798 64 64v576c0 35.2-28.8 64-64 64zM384 767.883c0.034 0.041 0.073 0.082 0.114 0.117h255.771c0.041-0.034 0.082-0.075 0.119-0.117v-63.883h-256.005v63.883zM960 448h-128v-96c0-17.602-14.4-32-32-32h-64c-17.605 0-32 14.398-32 32v96h-384v-96c0-17.602-14.4-32-32-32h-64c-17.602 0-32 14.398-32 32v96h-128v64h896v-64z" />
<glyph unicode="&#xe688;" d="M128 192h768v-192h-768zM384 576.091h-224l297.371 297.374c30.046 30.046 79.211 30.046 109.255 0l297.374-297.374h-224v-320h-256v320z" />
<glyph unicode="&#xe68a;" d="M1024 393.143v475.429q0 7.429-5.429 12.857t-12.857 5.429h-914.286q-7.429 0-12.857-5.429t-5.429-12.857v-475.429q0-7.429 5.429-12.857t12.857-5.429h914.286q7.429 0 12.857 5.429t5.429 12.857zM1097.143 868.571v-621.714q0-37.714-26.857-64.571t-64.571-26.857h-310.857q0-21.143 9.143-44.286t18.286-40.571 9.143-24.857q0-14.857-10.857-25.714t-25.714-10.857h-292.571q-14.857 0-25.714 10.857t-10.857 25.714q0 8 9.143 25.143t18.286 40 9.143 44.571h-310.857q-37.714 0-64.571 26.857t-26.857 64.571v621.714q0 37.714 26.857 64.571t64.571 26.857h914.286q37.714 0 64.571-26.857t26.857-64.571z" horiz-adv-x="1097" />
<glyph unicode="&#xe68b;" d="M824.438 319.942c-4.132 0-7.482 3.348-7.482 7.482v304.406h-601.256v-304.408c0-4.132-3.35-7.482-7.482-7.482s-7.482 3.348-7.482 7.482v305.214c0 7.806 6.352 14.158 14.158 14.158h602.866c7.808 0 14.16-6.352 14.16-14.158v-305.212c-0.002-4.134-3.35-7.482-7.482-7.482zM111.978 139.184c-2.354 0-22.598 0.466-38.146 15.998-10.882 10.872-16.402 25.914-16.402 44.7 0 28.304-0.146 51.354-0.146 51.354-0.034 4.946 1.872 9.612 5.366 13.126 3.494 3.518 8.144 5.454 13.094 5.454h876.346c4.948 0 9.6-1.936 13.090-5.448 3.494-3.514 5.402-8.178 5.372-13.13 0-0.018-0.142-23.062-0.142-51.356 0-49.794-39.378-60.698-54.554-60.698-0.006 0-0.012 0-0.018 0h-803.844c-0.002 0-0.010 0-0.016 0zM85.258 241.89c0.042-9.35 0.096-24.702 0.096-42.008 0-11.108 2.764-19.498 8.212-24.944 7.512-7.502 18.292-7.83 18.398-7.83h803.802c6.326 0.142 26.72 2.952 26.72 32.774 0 17.308 0.054 32.658 0.094 42.008h-857.322zM608.29 194.104h-187.948c-4.284 0-7.756 3.472-7.756 7.756s3.472 7.758 7.756 7.758h187.948c4.284 0 7.756-3.472 7.756-7.758 0.002-4.284-3.47-7.756-7.756-7.756zM868.368 244.072h-708.9c-17.54 0-31.81 14.268-31.81 31.81v413.626c0 17.542 14.27 31.812 31.81 31.812h708.898c17.542 0 31.81-14.27 31.81-31.812v-413.626c0.002-17.542-14.268-31.81-31.808-31.81zM159.468 693.394c-2.106 0-3.884-1.78-3.884-3.886v-413.626c0-2.106 1.778-3.884 3.884-3.884h708.898c2.106 0 3.884 1.778 3.884 3.884v413.626c0 2.106-1.778 3.886-3.884 3.886h-708.898z" horiz-adv-x="1097" />
<glyph unicode="&#xe68c;" d="M365.714 155.429q0 14.857-10.857 25.714t-25.714 10.857-25.714-10.857-10.857-25.714 10.857-25.714 25.714-10.857 25.714 10.857 10.857 25.714zM585.143 246.857v548.571q0 7.429-5.429 12.857t-12.857 5.429h-475.429q-7.429 0-12.857-5.429t-5.429-12.857v-548.571q0-7.429 5.429-12.857t12.857-5.429h475.429q7.429 0 12.857 5.429t5.429 12.857zM658.286 795.429v-621.714q0-37.714-26.857-64.571t-64.571-26.857h-475.429q-37.714 0-64.571 26.857t-26.857 64.571v621.714q0 37.714 26.857 64.571t64.571 26.857h475.429q37.714 0 64.571-26.857t26.857-64.571z" horiz-adv-x="658" />
<glyph unicode="&#xe68d;" d="M265.143 155.429q0 18.857-13.429 32.286t-32.286 13.429-32.286-13.429-13.429-32.286 13.429-32.286 32.286-13.429 32.286 13.429 13.429 32.286zM384 246.857v402.286q0 7.429-5.429 12.857t-12.857 5.429h-292.571q-7.429 0-12.857-5.429t-5.429-12.857v-402.286q0-7.429 5.429-12.857t12.857-5.429h292.571q7.429 0 12.857 5.429t5.429 12.857zM274.286 731.429q0 9.143-9.143 9.143h-91.429q-9.143 0-9.143-9.143t9.143-9.143h91.429q9.143 0 9.143 9.143zM438.857 740.571v-585.143q0-29.714-21.714-51.429t-51.429-21.714h-292.571q-29.714 0-51.429 21.714t-21.714 51.429v585.143q0 29.714 21.714 51.429t51.429 21.714h292.571q29.714 0 51.429-21.714t21.714-51.429z" horiz-adv-x="439" />
<glyph unicode="&#xe68e;" d="M920.571 557.714q0-30.286-21.143-51.429l-372-372q-21.714-21.714-52-21.714-30.857 0-51.429 21.714l-372 372q-21.714 20.571-21.714 51.429 0 30.286 21.714 52l42.286 42.857q22.286 21.143 52 21.143 30.286 0 51.429-21.143l277.714-277.714 277.714 277.714q21.143 21.143 51.429 21.143 29.714 0 52-21.143l42.857-42.857q21.143-22.286 21.143-52z" horiz-adv-x="951" />
</font>
</defs>
</svg>
