<?xml version="1.0" encoding="utf-8"?>
<!-- Generator: Adobe Illustrator 18.0.0, SVG Export Plug-In . SVG Version: 6.00 Build 0)  -->
<!DOCTYPE svg PUBLIC "-//W3C//DTD SVG 1.1//EN" "http://www.w3.org/Graphics/SVG/1.1/DTD/svg11.dtd">
<svg version="1.1" id="Layer_1" xmlns="http://www.w3.org/2000/svg" xmlns:xlink="http://www.w3.org/1999/xlink" x="0px" y="0px"
	 viewBox="0 0 300 150" enable-background="new 0 0 300 150" xml:space="preserve">
<rect y="0.9" fill="#FFFFFF" width="300" height="149.1"/>
<g>
	<rect x="48.3" y="-34.1" fill="#FFFFFF" width="203.2" height="198.8"/>
	<g>
		<g>
			<g>
				
					<radialGradient id="SVGID_1_" cx="-19.368" cy="302.2018" r="111.2729" gradientTransform="matrix(2.2007 0 0 -2.2007 118.8697 658.8566)" gradientUnits="userSpaceOnUse">
					<stop  offset="0" style="stop-color:#09B8E9"/>
					<stop  offset="0.427" style="stop-color:#029ACA"/>
					<stop  offset="0.5077" style="stop-color:#0091BE"/>
					<stop  offset="0.8347" style="stop-color:#046E8F"/>
					<stop  offset="1" style="stop-color:#04617F"/>
				</radialGradient>
				<path id="SVGID_2_" fill="url(#SVGID_1_)" d="M153.9,66.2v-4.8c0,0-0.3-3.8-4.2-3.8h-6.2v8.6h-6.3V41.3h15.3c0,0,8-1,8,7.3
					c0,4.3-3.5,5.8-3.5,5.8s3,1.4,3,5.6v6.2H153.9 M143.5,51.6h6.5c1.9,0,3.5-1.1,3.5-2.3c0-1.3-1.5-2.3-3.5-2.3h-6.5V51.6
					L143.5,51.6"/>
			</g>
		</g>
		<g>
			<g>
				
					<radialGradient id="SVGID_3_" cx="-19.3669" cy="302.2039" r="111.2724" gradientTransform="matrix(2.2007 0 0 -2.2007 118.8697 658.8566)" gradientUnits="userSpaceOnUse">
					<stop  offset="0" style="stop-color:#09B8E9"/>
					<stop  offset="0.427" style="stop-color:#029ACA"/>
					<stop  offset="0.5077" style="stop-color:#0091BE"/>
					<stop  offset="0.8347" style="stop-color:#046E8F"/>
					<stop  offset="1" style="stop-color:#04617F"/>
				</radialGradient>
				<path id="SVGID_5_" fill="url(#SVGID_3_)" d="M228.4,66.2l-10-16.6v16.6h-5.5h-1H206l-2.2-5.2h-11.6l-2.2,5.2h-5.8h-1.1h-3
					c0,0-8.5-1.3-8.5-11.7c0-13.8,9.7-13.3,9.9-13.4l7.8,0.2v5.6l-6.4,0.1c0,0-4.2,0-4.7,5.5c-0.1,0.6-0.1,1.2-0.1,1.7
					c0,8.4,7.3,5.8,7.5,5.7l7.8-18.5h8.9l9.5,22.6V41.3h9l9.9,16.4V41.3h6.4v24.9H228.4 M194.9,54.5h6.2l-3-7.4L194.9,54.5
					L194.9,54.5"/>
			</g>
		</g>
		<g>
			<g>
				
					<radialGradient id="SVGID_4_" cx="-19.3669" cy="302.2018" r="111.2724" gradientTransform="matrix(2.2007 0 0 -2.2007 118.8697 658.8566)" gradientUnits="userSpaceOnUse">
					<stop  offset="0" style="stop-color:#09B8E9"/>
					<stop  offset="0.427" style="stop-color:#029ACA"/>
					<stop  offset="0.5077" style="stop-color:#0091BE"/>
					<stop  offset="0.8347" style="stop-color:#046E8F"/>
					<stop  offset="1" style="stop-color:#04617F"/>
				</radialGradient>
				<path id="SVGID_8_" fill="url(#SVGID_4_)" d="M104.4,66.2V49l-8,17.2h-5.2l-8-17.1v17.1h-5.6h-0.8h-6.1L68.6,61H57.1l-2.2,5.2
					H48l10.5-24.9h8.9l9.6,22.8V41.3h9.9l6.9,15.4l6.9-15.4h10v24.9H104.4 M59.8,54.5H66l-3-7.4L59.8,54.5L59.8,54.5"/>
			</g>
		</g>
		<g>
			<g>
				
					<radialGradient id="SVGID_6_" cx="-19.368" cy="302.2018" r="111.272" gradientTransform="matrix(2.2007 0 0 -2.2007 118.8697 658.8566)" gradientUnits="userSpaceOnUse">
					<stop  offset="0" style="stop-color:#09B8E9"/>
					<stop  offset="0.427" style="stop-color:#029ACA"/>
					<stop  offset="0.5077" style="stop-color:#0091BE"/>
					<stop  offset="0.8347" style="stop-color:#046E8F"/>
					<stop  offset="1" style="stop-color:#04617F"/>
				</radialGradient>
				<polyline id="SVGID_11_" fill="url(#SVGID_6_)" points="114.2,66.2 114.2,41.3 133.9,41.3 133.9,47.1 120.6,47.1 120.6,50.9 
					133.6,50.9 133.6,56.6 120.6,56.6 120.6,60.8 133.9,60.8 133.9,66.2 114.2,66.2 				"/>
			</g>
		</g>
		<g>
			<g>
				
					<radialGradient id="SVGID_7_" cx="-19.368" cy="302.2007" r="111.2737" gradientTransform="matrix(2.2007 0 0 -2.2007 118.8697 658.8566)" gradientUnits="userSpaceOnUse">
					<stop  offset="0" style="stop-color:#09B8E9"/>
					<stop  offset="0.427" style="stop-color:#029ACA"/>
					<stop  offset="0.5077" style="stop-color:#0091BE"/>
					<stop  offset="0.8347" style="stop-color:#046E8F"/>
					<stop  offset="1" style="stop-color:#04617F"/>
				</radialGradient>
				<polyline id="SVGID_14_" fill="url(#SVGID_7_)" points="163.1,66.3 163.1,41.3 169.5,41.3 169.5,66.3 163.1,66.3 				"/>
			</g>
		</g>
	</g>
	<g>
		<g>
			<g>
				
					<radialGradient id="SVGID_9_" cx="-19.368" cy="302.2007" r="111.2705" gradientTransform="matrix(2.2007 0 0 -2.2007 118.8697 658.8566)" gradientUnits="userSpaceOnUse">
					<stop  offset="0" style="stop-color:#09B8E9"/>
					<stop  offset="0.427" style="stop-color:#029ACA"/>
					<stop  offset="0.5077" style="stop-color:#0091BE"/>
					<stop  offset="0.8347" style="stop-color:#046E8F"/>
					<stop  offset="1" style="stop-color:#04617F"/>
				</radialGradient>
				<path id="SVGID_17_" fill="url(#SVGID_9_)" d="M178.2,108.3v-4.8c0,0-0.3-3.8-4.2-3.8h-6.2v8.6h-6.3V83.5h15.3c0,0,8-1,8,7.3
					c0,4.3-3.5,5.8-3.5,5.8s3,1.4,3,5.6v6.2L178.2,108.3 M167.9,93.9h6.5c1.9,0,3.4-1.1,3.4-2.3s-1.5-2.3-3.4-2.3h-6.5V93.9
					L167.9,93.9"/>
			</g>
		</g>
		<g>
			<g>
				
					<radialGradient id="SVGID_10_" cx="-19.3669" cy="302.2029" r="111.275" gradientTransform="matrix(2.2007 0 0 -2.2007 118.8697 658.8566)" gradientUnits="userSpaceOnUse">
					<stop  offset="0" style="stop-color:#09B8E9"/>
					<stop  offset="0.427" style="stop-color:#029ACA"/>
					<stop  offset="0.5077" style="stop-color:#0091BE"/>
					<stop  offset="0.8347" style="stop-color:#046E8F"/>
					<stop  offset="1" style="stop-color:#04617F"/>
				</radialGradient>
				<path id="SVGID_20_" fill="url(#SVGID_10_)" d="M136.2,108.3h-5.6l-6.7-7.3l-6.7,7.3h-3.8H93.7V83.4h19.7h3.3l7.3,7.9l7.3-7.9
					h4.8l0,0h15.3c0,0,8-0.9,8,7.3c0,7.3-2.7,9.6-10.8,9.6h-6.2v8H136.2 M128.3,96l7.8,8.7V87.4L128.3,96L128.3,96 M100.1,102.9
					h13.4l6.3-6.9l-6.3-6.8h-13.4V93h13v5.6h-13V102.9L100.1,102.9 M142.3,93.8h6.5c1.9,0,3.4-1.1,3.4-2.3c0-1.3-1.5-2.3-3.4-2.3
					h-6.5V93.8L142.3,93.8"/>
			</g>
		</g>
		<g>
			<g>
				
					<radialGradient id="SVGID_12_" cx="-19.368" cy="302.2007" r="111.2733" gradientTransform="matrix(2.2007 0 0 -2.2007 118.8697 658.8566)" gradientUnits="userSpaceOnUse">
					<stop  offset="0" style="stop-color:#09B8E9"/>
					<stop  offset="0.427" style="stop-color:#029ACA"/>
					<stop  offset="0.5077" style="stop-color:#0091BE"/>
					<stop  offset="0.8347" style="stop-color:#046E8F"/>
					<stop  offset="1" style="stop-color:#04617F"/>
				</radialGradient>
				<path id="SVGID_23_" fill="url(#SVGID_12_)" d="M221.3,108.2h-11.2v-5.7h9.9c0,0,3.5,0.4,3.5-2c0-2.2-5.4-2.1-5.4-2.1
					s-8.7,0.7-8.7-7.4s7.9-7.6,7.9-7.6h12.1v5.8h-9.8c0,0-3.4-0.7-3.4,1.8c0,2.1,4.6,1.8,4.6,1.8s9.7-0.7,9.7,6.8
					c0,8.1-6.2,8.8-8.4,8.8C221.6,108.3,221.3,108.2,221.3,108.2"/>
			</g>
		</g>
		<g>
			<g>
				
					<radialGradient id="SVGID_13_" cx="-19.368" cy="302.2029" r="111.276" gradientTransform="matrix(2.2007 0 0 -2.2007 118.8697 658.8566)" gradientUnits="userSpaceOnUse">
					<stop  offset="0" style="stop-color:#09B8E9"/>
					<stop  offset="0.427" style="stop-color:#029ACA"/>
					<stop  offset="0.5077" style="stop-color:#0091BE"/>
					<stop  offset="0.8347" style="stop-color:#046E8F"/>
					<stop  offset="1" style="stop-color:#04617F"/>
				</radialGradient>
				<polyline id="SVGID_26_" fill="url(#SVGID_13_)" points="187.5,108.3 187.5,83.5 207.1,83.5 207.1,89.2 193.9,89.2 193.9,93 
					206.9,93 206.9,98.7 193.9,98.7 193.9,102.9 207.1,102.9 207.1,108.3 187.5,108.3 				"/>
			</g>
		</g>
		<g>
			<g>
				
					<radialGradient id="SVGID_15_" cx="-19.368" cy="302.2007" r="111.2705" gradientTransform="matrix(2.2007 0 0 -2.2007 118.8697 658.8566)" gradientUnits="userSpaceOnUse">
					<stop  offset="0" style="stop-color:#09B8E9"/>
					<stop  offset="0.427" style="stop-color:#029ACA"/>
					<stop  offset="0.5077" style="stop-color:#0091BE"/>
					<stop  offset="0.8347" style="stop-color:#046E8F"/>
					<stop  offset="1" style="stop-color:#04617F"/>
				</radialGradient>
				<path id="SVGID_29_" fill="url(#SVGID_15_)" d="M243.5,108.2h-11.2v-5.7h9.8c0,0,3.6,0.4,3.6-2c0-2.2-5.4-2.1-5.4-2.1
					s-8.7,0.7-8.7-7.4s7.9-7.6,7.9-7.6h12.1v5.8h-9.8c0,0-3.4-0.7-3.4,1.8c0,2.1,4.6,1.8,4.6,1.8s9.7-0.7,9.7,6.8
					c0,8.1-6.2,8.8-8.4,8.8C243.8,108.3,243.5,108.2,243.5,108.2"/>
			</g>
		</g>
	</g>
	<radialGradient id="SVGID_16_" cx="76.167" cy="119.661" r="243.0528" gradientUnits="userSpaceOnUse">
		<stop  offset="0" style="stop-color:#09B8E9"/>
		<stop  offset="0.427" style="stop-color:#029ACA"/>
		<stop  offset="0.5077" style="stop-color:#0091BE"/>
		<stop  offset="0.8347" style="stop-color:#046E8F"/>
		<stop  offset="1" style="stop-color:#04617F"/>
	</radialGradient>
	<path fill="url(#SVGID_16_)" d="M99.3,70.8H88.2c0,0-0.2-0.4-0.3-0.6c0,0.2,0,0.6,0,0.6H67.6c0,0-1.7-4-2.2-5.2c-2.1,0-3.2,0-5.4,0
		c-0.4,1.2-2.2,5.2-2.2,5.2h-9.5v66.4h203.2V111c-2.2,1.3-4.9,2-7.3,2c0,0-0.4,0-0.8,0h-15.9v-1.1c-1.8,0.7-3.8,1.2-5.6,1.2
		c0,0-0.4,0-0.8,0h-9.4v0.1h-22.8h-15.5v-4.7c0,0,0-3.3,0-3.9c-0.2,0-0.6,0-1,0c0,2,0,8.6,0,8.6h-15.7v-9.5
		c-2.6,1.1-5.6,1.3-8.3,1.3c0,0-1,0-1.5,0c0,1.6,0,8,0,8h-18.5c0,0-3-3.3-4.7-5.1c-1.6,1.8-4.7,5.1-4.7,5.1H88.9V78.7h29.7
		c0,0,3.3,3.6,5.2,5.6c1.9-2.1,5.2-5.6,5.2-5.6h2.1h4.8h15.1c0.9-0.1,3.2-0.1,5.6,0.9v-0.8h19.8c1-0.1,3.5-0.1,6.1,1v-1H207h4.7v1
		c2.8-1.1,5.3-1.1,5.6-1h16.5v1.1c2.8-1.2,5.4-1.1,5.7-1.1h11.9v-67H48.3v41.3l7-16.5h15.1c0,0,1.7,4.1,1.8,4.3c0-0.6,0-4.3,0-4.3
		h17.7c0,0,2.7,5.9,3.9,8.7c1.3-2.8,3.9-8.7,3.9-8.7h11.8h1.2h4.7h17.1h1.4h4.7h13.7c1-0.1,3.5-0.1,6.1,1v-1h11h4.7v2
		c2.3-1.4,4.9-2.2,7.5-2.2c0,0,8.4,0.3,8.8,0.3h15.1c0,0,1.6,3.9,1.7,4c0-1,0-4,0-4h16.2c0,0,2.3,3.9,2.6,4.3c0-0.7,0-4.3,0-4.3
		h15.7v34.2h-16c0,0-2.4-3.9-2.7-4.5c0,0.4,0,4.5,0,4.5h-20.2c0,0-1.7-4-2.2-5.2c-2.1,0-3.2,0-5.4,0c-0.4,1.2-2.2,5.2-2.2,5.2h-13.2
		l-0.4-0.1c-1.5-0.2-3.4-0.9-5.3-2.1v2.2h-11v-0.1h-14v-4.7c0,0,0-3.3,0-3.9c-0.2,0-0.6,0-1,0c0,2,0,8.6,0,8.6h-9.6h-6.1h-17.1h-1.2
		H99.6c0,0,0-0.4,0-0.5C99.5,70.5,99.3,70.8,99.3,70.8z"/>
</g>
</svg>
