<?xml version="1.0" encoding="utf-8"?>
<!-- Generator: Adobe Illustrator 18.0.0, SVG Export Plug-In . SVG Version: 6.00 Build 0)  -->
<!DOCTYPE svg PUBLIC "-//W3C//DTD SVG 1.1//EN" "http://www.w3.org/Graphics/SVG/1.1/DTD/svg11.dtd">
<svg version="1.1" id="Layer_1" xmlns="http://www.w3.org/2000/svg" xmlns:xlink="http://www.w3.org/1999/xlink" x="0px" y="0px"
	 viewBox="0 0 150 150" enable-background="new 0 0 150 150" xml:space="preserve">
<path id="Blue_1_" fill="#3D5B9A" d="M145.7,153.4c4.8,0,8.8-3.9,8.8-8.8V3.3c0-4.8-3.9-8.8-8.8-8.8H4.3c-4.8,0-8.8,3.9-8.8,8.8
	v141.4c0,4.8,3.9,8.8,8.8,8.8C4.3,153.4,145.7,153.4,145.7,153.4z"/>
<path id="f" fill="#FFFFFF" d="M103.5,148.1V90H123l2.9-22.7h-22.4V52.9c0-6.6,1.8-11,11.2-11h12V21.6c-2.1-0.3-9.2-0.9-17.5-0.9
	c-17.3,0-29.1,10.6-29.1,29.9v16.7H60.6V90h19.5v58.1L103.5,148.1L103.5,148.1z"/>
</svg>
