<?xml version="1.0" encoding="utf-8"?>
<!-- Generator: Adobe Illustrator 16.0.0, SVG Export Plug-In . SVG Version: 6.00 Build 0)  -->
<!DOCTYPE svg PUBLIC "-//W3C//DTD SVG 1.1//EN" "http://www.w3.org/Graphics/SVG/1.1/DTD/svg11.dtd" [
	<!ENTITY ns_extend "http://ns.adobe.com/Extensibility/1.0/">
	<!ENTITY ns_ai "http://ns.adobe.com/AdobeIllustrator/10.0/">
	<!ENTITY ns_graphs "http://ns.adobe.com/Graphs/1.0/">
	<!ENTITY ns_vars "http://ns.adobe.com/Variables/1.0/">
	<!ENTITY ns_imrep "http://ns.adobe.com/ImageReplacement/1.0/">
	<!ENTITY ns_sfw "http://ns.adobe.com/SaveForWeb/1.0/">
	<!ENTITY ns_custom "http://ns.adobe.com/GenericCustomNamespace/1.0/">
	<!ENTITY ns_adobe_xpath "http://ns.adobe.com/XPath/1.0/">
]>
<svg
	 version="1.1"
	 id="Layer_1"
	 xmlns:x="&ns_extend;"
	 xmlns:i="&ns_ai;"
	 xmlns:graph="&ns_graphs;"
	 xmlns="http://www.w3.org/2000/svg"
	 xmlns:xlink="http://www.w3.org/1999/xlink"
	 x="0px"
	 y="0px"
	 width="151px"
	 height="17px"
	 viewBox="0 0 151 17"
	 enable-background="new 0 0 151 17"
	 xml:space="preserve"
>
<metadata>
	<sfw  xmlns="&ns_sfw;">
		<slices></slices>
		<sliceSourceBounds
			 bottomLeftOrigin="true"
			 height="16.52"
			 y="-16.759"
			 width="150.451"
			 x="0.274"
		>
		</sliceSourceBounds>
	</sfw>
</metadata>
<g>
	<polygon fill="#FFFFFF" points="0.274,16.482 6.405,16.482 6.405,10.785 13.727,10.785 13.727,6.943 6.405,6.943 6.405,4.357 
		13.955,4.357 13.955,0.515 0.274,0.515 	"/>
	<path fill="#FFFFFF" d="M15.534,16.482h6.132v-5.42h1.372c0.755,0,1.375,0.09,1.738,0.824c0.504,0.957,0.572,3.455,0.848,4.596
		h6.382c-0.64-1.555-0.572-4.025-1.51-5.721c-0.571-0.846-1.373-1.484-2.7-1.715V9c2.285-0.547,3.821-1.783,3.821-4.231
		c0-3.064-2.354-4.255-6.179-4.255h-9.904V16.482z M21.389,4.083h1.694c1.234,0,2.399,0.206,2.399,1.646
		c0,1.628-1.231,1.767-2.49,1.767h-1.604V4.083z"/>
	<polygon fill="#FFFFFF" points="33.323,16.482 47.323,16.482 47.323,12.639 39.32,12.639 39.32,10.465 46.821,10.465 46.821,6.624 
		39.32,6.624 39.32,4.357 47.165,4.357 47.165,0.515 33.323,0.515 	"/>
	<path fill="#FFFFFF" d="M62.115,0.791c-1.669-0.344-3.571-0.551-5.282-0.551c-3.638,0-8.218,0.779-8.218,5.171
		c0,6.201,8.398,4.253,8.398,6.404c0,0.803-1.305,1.1-2.744,1.1c-1.831,0-3.844-0.365-5.492-1.051v4.141
		c2.289,0.525,4.235,0.756,6.589,0.756c3.546,0,7.779-1.078,7.779-5.355c0-6.155-8.396-4.187-8.396-6.268
		c0-1.028,1.672-1.054,2.631-1.054c1.74,0,3.363,0.321,4.735,0.802V0.791z"/>
	<path fill="#FFFFFF" d="M77.775,0.791c-1.668-0.344-3.569-0.551-5.285-0.551c-3.635,0-8.21,0.779-8.21,5.171
		c0,6.201,8.394,4.253,8.394,6.404c0,0.803-1.305,1.1-2.748,1.1c-1.828,0-3.84-0.365-5.486-1.051v4.141
		c2.288,0.525,4.231,0.756,6.586,0.756c3.546,0,7.779-1.078,7.779-5.355c0-6.155-8.395-4.187-8.395-6.268
		c0-1.028,1.67-1.054,2.632-1.054c1.737,0,3.361,0.321,4.734,0.802V0.791z"/>
	<polygon fill="#FFFFFF" points="80.396,16.482 85.656,16.482 85.656,4.904 85.701,4.904 88.818,16.482 97.828,16.482 97.828,0.515 
		92.568,0.515 92.568,11.77 92.523,11.77 89.57,0.515 80.396,0.515 	"/>
	<path fill="#FFFFFF" d="M98.504,16.482h6.109l0.982-3.453h5.174l1.051,3.453h6.424l-5.695-15.967h-8.439L98.504,16.482z
		 M108.201,3.945h0.049l1.74,5.241h-3.547L108.201,3.945z"/>
	<path fill="#FFFFFF" d="M119.037,16.482h6.133v-4.596h4.395c3.203,0,5.881-1.719,5.881-5.883c0-4.299-3.365-5.488-5.857-5.488
		h-10.551V16.482z M125.01,4.219h1.33c1.482,0,2.975,0.207,2.975,1.9c0,1.787-1.492,2.059-2.953,2.059h-1.352V4.219z"/>
	<polygon fill="#FFFFFF" points="137.041,16.482 143.172,16.482 143.172,10.785 150.494,10.785 150.494,6.943 143.172,6.943 
		143.172,4.357 150.725,4.357 150.725,0.515 137.041,0.515 	"/>
</g>
</svg>
