<?xml version="1.0" encoding="utf-8"?>
<!-- Generator: Adobe Illustrator 16.2.1, SVG Export Plug-In . SVG Version: 6.00 Build 0)  -->
<!DOCTYPE svg PUBLIC "-//W3C//DTD SVG 1.1//EN" "http://www.w3.org/Graphics/SVG/1.1/DTD/svg11.dtd" [
	<!ENTITY ns_flows "http://ns.adobe.com/Flows/1.0/">
	<!ENTITY ns_extend "http://ns.adobe.com/Extensibility/1.0/">
	<!ENTITY ns_ai "http://ns.adobe.com/AdobeIllustrator/10.0/">
	<!ENTITY ns_graphs "http://ns.adobe.com/Graphs/1.0/">
	<!ENTITY ns_vars "http://ns.adobe.com/Variables/1.0/">
	<!ENTITY ns_imrep "http://ns.adobe.com/ImageReplacement/1.0/">
	<!ENTITY ns_sfw "http://ns.adobe.com/SaveForWeb/1.0/">
	<!ENTITY ns_custom "http://ns.adobe.com/GenericCustomNamespace/1.0/">
	<!ENTITY ns_adobe_xpath "http://ns.adobe.com/XPath/1.0/">
]>
<svg version="1.1" id="Layer_1" xmlns:x="&ns_extend;" xmlns:i="&ns_ai;" xmlns:graph="&ns_graphs;"
	 xmlns="http://www.w3.org/2000/svg" xmlns:xlink="http://www.w3.org/1999/xlink" xmlns:a="http://ns.adobe.com/AdobeSVGViewerExtensions/3.0/"
	 x="0px" y="0px" width="1000px" height="750px" viewBox="0 0 1000 750" enable-background="new 0 0 1000 750" xml:space="preserve"
	>
<metadata>
	<sfw  xmlns="&ns_sfw;">
		<slices></slices>
		<sliceSourceBounds  height="748.354" width="997.842" y="-748.354" x="0" bottomLeftOrigin="true"></sliceSourceBounds>
	</sfw>
</metadata>
<g>
	<path fill="#FFFFFF" d="M987.818,672.618c0,6.628-15.375,64.686-60.936,63.936l-849.52,1.5c-6.627,0-61.497-13.5-67.497-56.247
		l7.311-613.282c3-50.435,47.745-50.435,54.373-50.435l867.896-4.876c6.627,0,38.104,11.798,45.936,50.998L987.818,672.618z"/>
	<path fill="#E6001F" d="M80.679,19.358c-2.467,0.02-61.316,1.054-61.316,61.316v587.004c0.015,2.475,1.059,61.326,61.315,61.326
		h836.437c2.512-0.02,61.367-1.073,61.367-61.326V80.674c-0.021-2.472-1.064-61.316-61.326-61.316H80.679z M917.156,748.354H80.679
		C16.867,748.354,0,695.578,0,667.678V80.674C0,16.856,52.776,0,80.679,0h836.477c63.811,0,80.686,52.766,80.686,80.674v587.004
		C997.84,731.498,945.055,748.354,917.156,748.354"/>
	<path fill="#E6001F" d="M906.643,540.328h-71.396v83.531h31.342V593.63h38.828v-19.186h-38.828v-14.91h40.055V540.328z
		 M826.789,568.854c0-21.029-15.73-28.525-30.438-28.525h-55.41v83.531h31.361v-24.373h23.916c8.822,0,16.289-2.492,21.557-7.191
		C823.76,586.986,826.789,579.105,826.789,568.854 M732.996,623.859l-29.801-83.531h-43.924l-29.314,83.531h31.119l5.188-18.336
		h28.344l5.592,18.336H732.996z M622.602,540.328h-26.742v59.727h-1.297l-15.641-59.727h-47.619v83.531h26.689v-61.428h1.328
		l16.541,61.428H622.6L622.602,540.328L622.602,540.328z M522.703,597.502c0-20.139-17.602-23.521-30.47-25.994
		c-7.876-1.498-14.091-2.691-14.091-7.252c0-6.199,9.846-6.199,14.577-6.199c8.234,0,16.71,1.396,24.494,4.031v-20.4
		c-8.953-1.805-18.695-2.795-27.421-2.795c-28.517,0-42.959,9.016-42.959,26.822c0,20.221,17.474,23.766,30.258,26.357
		c7.962,1.621,14.271,2.896,14.271,7.617c0,5.812-10.626,6.441-15.188,6.441c-9.699,0-20.072-1.926-28.5-5.289v20.604
		c12.009,2.715,22.291,3.891,34.34,3.891c7.719,0,18.735-0.992,27.426-5.633C518.234,614.984,522.703,607.529,522.703,597.502
		 M440.18,597.502c0-20.139-17.596-23.521-30.455-25.994c-7.871-1.498-14.096-2.691-14.096-7.252c0-6.199,9.83-6.199,14.552-6.199
		c8.266,0,16.754,1.396,24.534,4.031v-20.4c-8.818-1.783-18.812-2.795-27.417-2.795c-28.536,0-43.007,9.016-43.007,26.822
		c0,20.221,17.488,23.766,30.269,26.357c7.978,1.621,14.283,2.896,14.283,7.617c0,5.812-10.603,6.441-15.164,6.441
		c-9.72,0-20.104-1.926-28.536-5.289v20.604c12.009,2.715,22.301,3.891,34.365,3.891c7.714,0,18.729-0.992,27.399-5.633
		C435.708,615.006,440.18,607.529,440.18,597.502 M354.645,604.652h-42.469v-12.725h39.813v-19.186h-39.813v-13.209h41.638v-19.206
		h-72.246v83.531h73.077V604.652z M271.939,623.859c-1.296-3.484-2.011-7.699-2.715-11.854l-0.041-0.244
		c-1.048-6.076-2.117-12.355-4.867-17.32c-3.338-4.963-7.79-7.779-13.994-8.854l-0.091-0.02c-0.375-0.08-0.354-0.428-0.354-0.428
		v-0.77c0-0.062,0.041-0.08,0.041-0.08l0.425-0.102c13.321-3.225,19.804-10.373,19.804-21.883c0-14.788-10.53-21.98-32.177-21.98
		h-51.945v83.531h31.336v-28.77h7.881c3.92,0,7.613,0.365,9.75,4.722c1.732,3.263,2.512,9.808,3.206,15.601l0.061,0.547
		c0.375,2.979,0.719,5.836,1.175,7.902L271.939,623.859L271.939,623.859z M175.919,540.328h-71.385v83.531h31.326V593.63h38.853
		v-19.186H135.86v-14.91h40.059V540.328L175.919,540.328z M141.295,477.929c0,0.549,0.309,1.055,0.811,1.316
		c11.573,5.977,168.383,20.686,361.927,20.686c193.65,0,350.4-14.709,361.908-20.686c0.506-0.242,0.809-0.75,0.809-1.316
		c0-0.565-0.281-1.072-0.77-1.315c-5.834-3.2-45.361-9.38-109.635-15.007l-22.031-1.824c-35.293-2.775-72.074-4.943-109.281-6.422
		c-0.01,0-23.582-0.861-23.582-0.861c-32.455-1.043-64.871-1.59-96.35-1.59c-40.346,0-81.829,0.861-123.299,2.553l-37.188,1.752
		l-49.636,3.049l-42.282,3.323c-64.851,5.647-104.732,11.827-110.618,15.027C141.605,476.855,141.295,477.362,141.295,477.929
		 M925.221,655.748c-29.396,14.262-123.838,21.719-201.928,21.719l-214.994,1.113h-7.086l-213.172-1.113
		c-74.561,0-180.853-9.48-206.121-21.719c-11.796-5.713-15.443-12.055-12.47-36.244c3.312-26.764,23.526-115.582,27.902-133.37
		c4.153-17.604,33.768-31.7,88.018-41.86l13.751-2.411c55.653-9.099,131.718-14.313,226.092-15.529l14.063-0.142l29.26-0.132
		l28.9,0.12l7.872,0.041h1.896l7.875-0.041l26.5-0.101l9.836,0.02l11.926,0.041c91.33,0.519,167.027,4.579,225.002,12.057
		l9.521,1.307c34.379,4.812,61.721,10.93,81.26,18.193l6.879,2.733c17.453,7.451,27.463,16.103,29.781,25.686
		c4.145,18.152,21.121,112.218,23.906,132.417C943.141,643.611,933.77,651.615,925.221,655.748 M795.479,569.482
		c0,10.211-8.691,11.525-16.26,11.525h-7.789v-22.205h7.658C787.617,558.805,795.479,560.082,795.479,569.482 M238.82,567.396
		c0,9.195-6.823,9.967-13.827,9.967h-9.097v-19.307h9.583C232.079,558.057,238.82,559.17,238.82,567.396 M681.436,557.812
		l9.441,28.547h-20.492l9.582-28.547c0.15-0.445,0.477-0.467,0.477-0.467s0.121,0,0.264,0c0.145,0,0.242,0,0.242,0
		S681.273,557.367,681.436,557.812 M438.19,51.358c0,0-0.208,0.142-0.218,0.152l-0.79,0.607c-0.127,0.091-0.218,0.203-0.289,0.334
		c-11.411,22.448-27.979,68.984-27.285,97.56c0.01,0.314,0.177,0.851,0.426,1.023l0.208,0.152
		c7.243,5.196,53.328,24.635,74.512,33.236l2.282,0.921c0.311,0.122,0.653,0.091,0.922-0.091c0.271-0.183,0.446-0.476,0.456-0.8
		l0.012-0.719c0-0.01-0.012-1.763-0.012-1.763c0.554-27.391-7.663-64.811-20.913-95.332c-5.154-10.991-10.609-20.037-15.786-26.155
		c-4.396-5.186-8.673-8.367-12.363-9.228C439.081,51.186,438.418,51.196,438.19,51.358 M712.453,367.458l-0.02,0.02
		c-10.504,6.95-25.791,15.499-38.949,16.674l-0.598,0.041c-0.314,0.029-0.588,0.182-0.75,0.436
		c-0.184,0.243-0.225,0.567-0.131,0.861l0.182,0.588l2.057,5.348c3.029,6.008,7.172,10.881,12.338,14.486l0.387,0.273
		c0.426,0.293,1.033,0.213,1.355-0.213l0.283-0.375c2.736-3.414,6.869-5.673,10.535-7.658l2.725-1.52
		c2.23-1.287,4.439-3.181,5.633-4.832l1.512-2.359c1.062-1.793,1.982-3.323,3.119-3.323l1.469,0.456
		c1.084,0.576,2.139,1.6,1.531,4.68c-0.895,4.518-4.396,8.276-7.803,11.902c-2.146,2.33-4.312,4.64-5.834,7.132l-0.385,0.618
		c-0.162,0.283-0.184,0.638-0.051,0.932c0.131,0.293,0.404,0.518,0.719,0.577l0.73,0.132c3.332,0.598,6.727,0.912,10.09,0.912
		l7.951-0.598c14.24-8.549,34.553-31.139,33.561-46.03c-0.324-4.883-2.797-8.276-7.557-10.373c-2.107-0.891-4.336-1.347-6.646-1.347
		C731.375,354.897,722.613,360.722,712.453,367.458 M285.002,335.783h-0.01c-8.924,2.998-14.141,8.347-14.688,15.063
		c-0.664,7.871,5.338,16.177,15.661,21.698c-0.021-0.02,3.631,1.56,3.631,1.56c0.375,0.162,0.75,0.061,1.039-0.233l0.633-0.638
		c0.279-0.284,0.385-0.668,0.238-1.043l-1.692-4.173c-1.307-3.09-2.74-6.483-3.373-9.897c-0.755-4.021,0-7.232,1.099-8.215
		c0.603-0.557,1.195-0.841,1.682-0.841c0.729,0,1.463,0.679,1.996,1.833c0,0.01,0.618,2.259,0.618,2.259
		c0.643,2.725,1.504,6.463,4.361,10.109c3.161,4.083,5.544,7.243,9.552,13.888c0.155,0.253,0.535,0.628,0.829,0.668l9.938,0.962
		c0.446,0.041,0.815-0.223,0.973-0.648l0.346-0.881c0.142-0.404,0.021-0.861-0.314-1.134c-5.308-4.234-7.344-10.606-8.742-16.866
		c-0.01-0.03-0.77-3.374-0.77-3.374l-0.218-1.043c-2.312-11.163-5.052-20.392-15.154-20.392
		C290.406,334.445,287.833,334.891,285.002,335.783 M109.493,141.027l0.329,0.233c21.389,14.577,57.624,46.333,71.212,71.304
		l0.122,0.223c0.157,0.294,0.041,0.861-0.101,1.165c-4.629,9.106-43.888,54.853-54.012,66.32l-0.446,0.517
		c-0.208,0.233-0.521,0.364-0.831,0.324c-0.324-0.02-0.603-0.192-0.77-0.466l-0.506-0.81l-2.644-4.528
		c-0.01-0.01-0.208-0.354-0.208-0.365c-10.403-19.267-18.816-47.012-22.508-74.18c-2.016-14.911-2.502-27.807-1.454-38.362
		l0.111-0.75l0.436-2.715c1.57-7.911,4.295-13.321,7.729-15.519l2.264-2.27C108.556,140.804,109.098,140.753,109.493,141.027"/>
	<path d="M504.027,498.431c-189.958,0-349.016-14.222-361.232-20.502c5.9-3.199,47.134-9.381,110.035-14.864
		c13.184-1.137,27.3-2.261,42.256-3.304c15.676-1.104,32.264-2.138,49.616-3.059c12.034-0.638,24.438-1.226,37.166-1.743
		c38.584-1.58,80.106-2.542,123.24-2.542c33.266,0,65.57,0.578,96.293,1.57c7.963,0.263,15.834,0.557,23.572,0.859
		c40.043,1.611,76.945,3.882,109.219,6.412c7.619,0.608,14.953,1.218,22.033,1.833c62.369,5.477,103.203,11.636,109.047,14.835
		C853.086,484.209,694.027,498.431,504.027,498.431 M762.494,460.977c-1.559-0.144-3.018-0.273-4.295-0.375
		c-4.559-0.405-9.602-0.831-15.092-1.276c-30.391-2.461-74.475-5.45-127.516-7.405c-6.85-0.253-13.857-0.497-20.988-0.709
		c-27.918-0.841-57.953-1.355-89.496-1.355c-41.313,0-80.112,0.892-114.994,2.219c-9.628,0.375-18.953,0.77-27.941,1.195
		c-34.522,1.631-64.188,3.596-87.344,5.379c-8.96,0.688-16.978,1.347-23.886,1.955c-2.365,0.19-5.227,0.454-8.463,0.737
		c-32.375,2.947-102.726,10.104-102.726,16.588c0,1.521,0,3.828,30.84,7.68c19.763,2.45,47.372,4.941,79.833,7.15
		c45.007,3.061,137.792,8.227,253.603,8.227c115.82,0,208.602-5.167,253.605-8.227c32.455-2.209,60.049-4.7,79.832-7.15
		c30.824-3.852,30.824-6.158,30.824-7.68C868.291,471.143,792.186,463.64,762.494,460.977 M924.572,654.41
		c-29.205,14.162-123.359,21.557-201.279,21.557c-33.469,0-71.109,0.307-107.537,0.566c-36.375,0.264-74.01,0.547-107.463,0.547
		h-7.074c-33.267,0-70.402-0.283-106.322-0.547c-36.057-0.262-73.334-0.566-106.849-0.566c-74.408,0-180.376-9.42-205.468-21.557
		c-11.077-5.369-14.511-11.406-11.649-34.725c3.328-26.805,23.506-115.418,27.882-133.208c4.037-17.119,34.067-30.852,86.833-40.736
		c4.417-0.831,8.98-1.621,13.721-2.401c54.959-8.975,131.166-14.283,225.869-15.509c4.629-0.061,9.351-0.101,14.062-0.132
		c9.593-0.091,19.291-0.152,29.238-0.152c9.461,0,19.125,0.051,28.887,0.132c3.56,0.03,6.224,0.041,7.896,0.041h1.898
		c1.66,0,4.324-0.01,7.881-0.041c12.389-0.102,24.465-0.109,36.326-0.091c4.002,0.01,7.973,0.021,11.912,0.041
		c91.734,0.527,167.455,4.649,224.818,12.044c3.252,0.425,6.395,0.861,9.514,1.296c34.279,4.812,61.438,10.879,80.928,18.123
		c2.398,0.893,4.67,1.793,6.826,2.714c16.826,7.188,26.691,15.413,28.91,24.651c4.123,18.051,21.102,112.036,23.877,132.295
		C941.529,642.883,932.656,650.48,924.572,654.41 M129.049,405.202c40.124-27.481,77.245-46.962,120.534-59.432
		c0.871-0.243,1.378-1.155,1.12-2.036c-0.249-0.871-1.165-1.368-2.036-1.104c-43.888,12.611-81.449,32.386-122.054,60.263
		c-3.778-3.627-7.222-7.416-10.261-11.377c41.471-25.719,81.043-41.278,134.442-54.355c0.872-0.213,1.423-1.104,1.206-2.006
		c-0.218-0.881-1.129-1.418-1.99-1.195c-53.871,13.209-93.751,28.911-135.587,54.883c-2.279-3.211-4.295-6.503-6.038-9.906
		c42.839-23.005,91.406-39.791,145.18-50.072c0.892-0.162,1.484-1.033,1.297-1.935c-0.157-0.892-1.028-1.469-1.93-1.307
		c-54.053,10.342-102.898,27.229-146.006,50.365c-12.576-27.462-5.562-57.406,20.888-89.041l1.357-1.641
		c3.454-3.495,10.687-11.811,27.472-31.828c29.103-34.725,29.615-38.281,29.863-39.993l0.152-1.033l-0.476-0.932
		c-12.997-25.102-48.106-56.504-70.929-72.61c5.465-1.276,12.521-1.955,20.837-1.955c30,0,69.303,8.641,91.406,20.107l2.365,1.226
		l1.808-1.945c25.005-27.046,42.819-37.104,65.682-37.104c11.199,0,24.241,2.441,41.046,7.668l2.527,0.78l1.434-2.229
		c18.183-28.384,63.038-63.737,88.119-71.344c-11.918,24.919-27.107,69.551-25.831,97.479l0.041,1.043l0.653,0.831
		c3.88,4.943,50.882,24.595,73.647,33.813c3.135,1.276,5.789,2.35,7.83,3.15c2.679,1.063,4.305,1.691,4.381,1.691l1.448,0.628
		c32.041,12.48,51.146,30.875,57.396,54.498c1.021,3.89,1.713,7.921,2.035,12.095c0.053,0.496,0.053,1.023,0.092,1.54
		c-48.398,1.53-98.877,11.71-150.843,30.521c-0.859,0.304-1.307,1.246-0.998,2.107c0.238,0.669,0.871,1.094,1.545,1.094
		c0.188,0,0.375-0.041,0.562-0.111c51.667-18.71,101.83-28.809,149.906-30.329c0.041,1.671,0.021,3.373-0.07,5.095
		c-0.111,2.522-0.406,5.095-0.779,7.678c-48.947-1.155-94.289,5.622-143.134,20.796c-0.871,0.274-1.347,1.195-1.079,2.057
		c0.218,0.699,0.871,1.155,1.57,1.155c0.162,0,0.33-0.021,0.484-0.071c48.324-15.022,93.209-21.739,141.629-20.655
		c-0.092,0.577-0.15,1.134-0.264,1.712c-0.852,4.285-1.996,8.641-3.441,13.037c-0.041,0.142-0.104,0.273-0.145,0.405
		c-48.23-3.931-90.013-2.107-133.623,9.339c-0.881,0.233-1.408,1.135-1.18,2.006c0.197,0.729,0.861,1.236,1.595,1.236
		c0.137,0,0.278-0.03,0.416-0.061c42.925-11.264,84.123-13.098,131.637-9.299c-6.93,19.287-19.146,39.304-35.109,58.388
		c-2.111,2.532-4.299,5.044-6.543,7.537c-19.044,21.181-42.485,40.853-67.871,56.666c-90.439,0.79-183.309,5.31-249.821,17.605
		C164.204,430.141,144.142,418.918,129.049,405.202 M100.614,200.56c-2.147-15.813-2.396-28.465-1.448-37.967
		c0.162-1.134,0.309-2.31,0.517-3.373c1.494-7.486,4.001-12.581,7.253-14.688l2.041-2.036c22.448,15.286,57.735,46.88,70.741,70.777
		c-4.467,8.813-43.026,53.819-53.804,66.016c-0.051-0.081-0.091-0.162-0.142-0.243c-0.978-1.55-1.899-3.191-2.821-4.822
		C112.679,255.19,104.342,228.052,100.614,200.56 M438.843,52.715c0.056,0,0.116-0.01,0.167-0.01
		c3.383,0.79,7.334,3.768,11.558,8.752c5.27,6.22,10.611,15.225,15.569,25.801c11.771,27.117,21.379,65.003,20.774,94.683
		c-0.01,0.567,0.03,1.185,0.021,1.742c-0.486-0.192-1.079-0.436-1.621-0.648c-18.512-7.516-66.999-27.897-74.206-33.063
		c-0.664-27.279,15.053-73.107,27.117-96.841L438.843,52.715z M558.775,274.872c0.191-1.752,0.375-3.515,0.475-5.268
		c0.082-1.823,0.104-3.708,0.062-5.602c4.781-0.071,9.543-0.041,14.283,0.061C568.59,267.265,563.627,270.891,558.775,274.872
		 M542.627,421.035c-9.27,0.01-18.467,0.05-27.572,0.111c-3.535,0.041-6.195,0.05-7.84,0.05h-1.9c-1.66,0-4.305-0.01-7.839-0.05
		c-15.737-0.111-31.762-0.144-47.914-0.062c20.498-13.756,39.957-30.055,56.617-47.823
		C511.275,390.27,524.496,406.671,542.627,421.035 M864.887,447.768c-17.383-5.087-38.107-9.271-61.244-12.693
		c6.25-6.979,10.637-14.779,12.682-23.268c0.479,1.498,0.881,3.019,1.398,4.498c4.518,12.672,17.018,16.795,28.08,20.451
		c5.904,1.937,11.486,3.778,14.482,6.597l3.104,2.986C863.895,446.825,864.381,447.291,864.887,447.768 M494.613,185.132
		c20.979-14.921,36.356-32.284,50.071-47.812c19.945-22.6,37.156-42.1,65.541-48.198c25.709-7.547,66.947-6.696,110.373,2.279
		c43.295,8.711,81.414,24.312,102.146,41.887c23.359,17.079,31.23,41.937,40.357,70.726c7.01,22.124,14.939,47.205,31.4,71.982
		c43.822,66.532,42.305,139.882-3.645,178.629c-6.037,2.208-12.602-3.667-22.641-13.321l-3.15-3.009
		c-4.133-3.89-10.424-5.966-17.078-8.165c-9.998-3.292-20.342-6.696-23.703-16.147c-9.543-26.873-9.773-56.098-10.061-87.054
		c-0.201-26.115-0.455-53.131-5.904-82.335c-0.346-1.884-2.188-3.15-4.053-2.786c-1.885,0.354-3.141,2.178-2.775,4.062
		c5.328,28.596,5.551,55.298,5.773,81.14c0.102,9.958,0.203,19.712,0.588,29.305c-11.082-27.492-30.652-55.288-54.031-69.095
		c-1.662-0.982-3.789-0.425-4.762,1.216c-0.982,1.671-0.445,3.798,1.215,4.761c37.582,22.225,65.885,85.222,59.574,115.997
		c-1.955,9.146-7.104,17.423-14.721,24.667c-69.045-9.461-157.438-12.604-241.574-12.814
		c-22.711-16.349-37.887-35.383-41.754-53.971c19.021-21.455,33.73-44.723,41.471-67.839c20.18,1.833,41.512,4.579,64.646,8.043
		c0.924,0.101,1.754-0.486,1.887-1.398c0.121-0.892-0.486-1.732-1.398-1.864c-22.883-3.414-44.004-6.149-64.02-7.982
		c1.07-3.515,1.982-7.02,2.732-10.504c1.844-1.671,3.729-3.302,5.633-4.883c18.518,0.881,37.621,2.857,57.699,5.936
		c0.861,0.111,1.732-0.486,1.873-1.377c0.133-0.902-0.486-1.732-1.377-1.874c-18.852-2.887-36.832-4.812-54.307-5.774
		c6.545-5.126,13.25-9.593,19.875-12.997c11.994,0.679,23.846,1.854,35.516,3.667c0.891,0.111,1.742-0.497,1.883-1.398
		c0.145-0.892-0.465-1.732-1.365-1.874c-9.826-1.499-19.773-2.573-29.803-3.302c4.014-1.651,7.992-2.897,11.82-3.606
		c1.904-0.354,3.141-2.167,2.797-4.062c-0.354-1.896-2.146-3.11-4.072-2.796c-7.922,1.479-16.248,4.954-24.533,9.735
		c-6.504-0.233-13.027-0.312-19.604-0.223c-0.252-4.103-0.779-8.337-1.781-12.663c7.506-15.65,15.895-31.473,26.609-47.113
		c1.096-1.591,0.688-3.758-0.893-4.842c-1.59-1.084-3.758-0.679-4.852,0.912c-9.432,13.776-17.061,27.614-23.867,41.33
		c-7.383-19.125-24.381-38.615-59.781-52.513C494.623,185.588,494.598,185.355,494.613,185.132 M944.658,617.861
		c-2.865-21.008-19.682-114.121-23.996-132.881c-2.359-9.849-11.143-18.234-24.938-25.393
		c48.338-41.178,50.305-118.042,4.578-187.421c-15.904-23.977-23.359-47.499-30.572-70.25c-9.48-29.964-17.676-55.835-42.676-74.089
		c-17.09-14.496-45.557-27.695-78.902-36.984c1.621-2.492,2.463-4.123,3.779-6.422c1.234-2.146,1.662-2.725,5.096-9.34
		c0.83-1.601,0.799-3.484-0.646-4.568c-1.43-1.074-3.656-0.912-4.561,0.648c-3.951,6.807-5.096,8.955-6.838,11.933
		c-0.598,1.043-1.418,2.441-2.785,4.67c-0.283,0.497-0.508,0.912-0.688,1.317c-2.596-0.668-5.287-1.206-7.922-1.823
		c1.396-2.036,2.088-3.353,3.211-5.308c0.75-1.287,1.914-3.647,5.045-9.269c0.881-1.57,0.801-3.474-0.639-4.558
		c-1.438-1.084-3.678-0.912-4.58,0.648c-2.633,4.66-4.436,7.84-5.691,10.201c-0.586,1.063-1.904,3.636-4.186,6.402
		c-0.068,0.081-0.109,0.182-0.172,0.273c-1.273-0.273-2.512-0.587-3.758-0.871c0-0.03,0.01-0.061,0.01-0.102
		c0-1.742,0.162-3.393,0.75-6.949c0.617-3.859,1.398-5.541,1.904-13.108c0.121-1.803-1.398-3.282-3.201-3.323
		c-1.701,0.091-3.24,1.398-3.322,3.191c-0.271,6.453-1.549,11.092-1.844,12.49c-0.365,1.813-0.719,3.829-0.811,6.503
		c-2.807-0.547-5.611-1.043-8.389-1.519c0.254-2.482,0.467-3.839,0.641-4.923c0.395-2.583,0.605-4.011,0.818-15.164
		c0.039-1.793-1.396-3.282-3.199-3.312c-1.732,0.131-3.283,1.398-3.305,3.191c-0.213,10.717-0.404,11.983-0.77,14.283
		c-0.162,1.094-0.375,2.462-0.629,4.883c-2.514-0.395-4.975-0.668-7.455-1.003c-0.242-2.29-0.445-3.616-0.629-4.69
		c-0.346-2.32-0.547-3.596-0.748-14.172c-0.031-1.793-1.48-3.221-3.334-3.181c-1.793,0.03-3.223,1.509-3.189,3.323
		c0.223,10.991,0.445,12.419,0.852,15.012c0.109,0.739,0.242,1.611,0.385,2.826c-31.26-3.565-59.025-2.492-78.852,3.343
		c-30.367,6.514-48.299,26.824-69.045,50.335c-13.098,14.83-26.631,30.076-44.712,43.669c-0.436-22.174-6.025-47.751-13.995-70.301
		c-10.581-32.425-25.952-59.371-40.233-60.363c-0.497-0.041-0.993-0.061-1.535-0.061c-24.094,0-77.837,39.496-101.03,73.826
		c-16.299-4.913-29.255-7.202-40.6-7.202c-1.58,0-3.135,0.041-4.66,0.132c1.443-9.745,4.66-17.454,19.054-27.037
		c1.494-1.003,1.899-3.019,0.907-4.518c-0.998-1.499-3.019-1.904-4.523-0.912c-17.307,11.528-20.614,21.566-22.127,33.175
		c-1.089,0.152-2.188,0.344-3.277,0.557c-0.486-3.181-1.752-6.25-3.019-9.238c-3.206-7.587-4.721-12.125,1.388-17.15
		c1.393-1.155,1.58-3.191,0.451-4.589c-1.155-1.388-3.206-1.59-4.589-0.446c-10.175,8.357-6.179,17.818-3.256,24.727
		c1.246,2.927,2.385,5.733,2.649,8.286c-3.698,1.125-7.344,2.613-10.996,4.447c-1.246-9.177-4.305-17.919-16.122-27.836
		c-1.368-1.165-3.434-0.983-4.594,0.395c-1.155,1.388-0.978,3.434,0.405,4.599c11.188,9.401,13.204,16.978,14.146,26.257
		c-9.689,5.966-19.626,14.627-30.86,26.56c-23.597-11.487-61.802-19.702-92.237-19.702c-10.818,0-25.411,1.124-33.489,6.523
		c-8.043,5.369-10.5,19.905-10.813,34.218c-1.261,24.221,4.452,58.034,15.955,86.721c3.9,10.262,8.332,19.49,13.083,27.016
		c-26.712,32.902-33.641,65.662-20.042,94.886c-18.699,10.435-36.315,22.043-52.735,34.857c-0.714,0.557-0.841,1.59-0.279,2.311
		c0.319,0.414,0.811,0.627,1.297,0.627c0.349,0,0.714-0.11,1.003-0.344c16.258-12.703,33.691-24.199,52.208-34.512
		c1.824,3.525,3.92,6.949,6.276,10.261c-16.112,10.322-32.593,22.154-50.371,36.054c-0.724,0.557-0.851,1.578-0.289,2.31
		c0.319,0.415,0.805,0.628,1.307,0.628c0.339,0,0.704-0.111,1.003-0.344c17.763-13.868,34.213-25.68,50.279-35.971
		c3.079,4.062,6.574,7.941,10.383,11.668c-16.243,11.377-33.028,23.998-50.973,38.018c-0.714,0.557-0.841,1.591-0.278,2.31
		c0.319,0.416,0.81,0.64,1.296,0.64c0.339,0,0.704-0.121,1.008-0.354c18.097-14.141,35.009-26.854,51.363-38.28
		c13.716,12.692,31.377,23.38,51.181,31.979c-46.182,9.725-77.28,23.78-81.985,43.755c-4.391,17.811-24.656,106.852-28.019,133.938
		c-2.664,21.719-1.059,33.471,15.291,41.391c28.439,13.758,140.48,22.205,208.299,22.205c33.484,0,70.762,0.283,106.809,0.547
		c35.92,0.283,73.086,0.568,106.363,0.568h7.074c33.484,0,71.127-0.285,107.514-0.568c36.396-0.264,74.039-0.547,107.486-0.547
		c63.625,0,170.506-5.916,204.115-22.225C942.197,653.113,947.668,639.621,944.658,617.861 M342.058,202.981
		c0.805,0,1.604-0.304,2.249-0.892c16.606-15.771,36.71-22.751,56.585-19.743c1.771,0.273,3.444-0.932,3.702-2.725
		c0.277-1.772-0.942-3.434-2.722-3.708c-21.926-3.363-43.958,4.265-62.06,21.435c-1.307,1.246-1.357,3.302-0.122,4.609
		C340.336,202.637,341.197,202.981,342.058,202.981 M316.583,377.284c-5.75-4.589-7.836-11.305-9.265-17.687
		c-0.334-1.317-0.653-2.856-0.988-4.457c-2.259-10.9-4.698-19.206-13.7-19.206c-2.077,0-4.503,0.425-7.167,1.276
		c-8.292,2.775-13.164,7.658-13.675,13.766c-0.608,7.253,5.105,15.022,14.896,20.25c0.861,0.507,2.077,0.993,3.403,1.469
		c-1.433-4.011-4.128-8.985-5.125-14.313c-0.755-4.083-0.162-8.013,1.58-9.593c2.634-2.391,4.913-0.982,6.038,1.489
		c0.932,2.087,1.043,7.263,4.792,12.075c3.476,4.467,5.789,7.607,9.669,14.02C310.468,376.839,313.811,377.173,316.583,377.284
		 M314.277,307.115c-0.623-2.512-2.188-4.072-3.434-3.748c-1.557,0.304-2.497,2.168-1.879,4.67c0.322,2.198,1.879,4.072,3.442,3.748
		C313.978,311.471,314.596,309.283,314.277,307.115 M402.417,343.036c0.604,1.702-0.287,3.565-1.979,4.163
		c-6.098,2.147-11.145,7.172-16.005,12.024c-3.86,3.869-7.79,7.172-11.474,9.501c-6.451,4.072-10.976,4.933-16.051,4.802
		c-2.127-0.051-4.229-0.396-6.265-1.297c-1.667-0.76-3.277-1.884-4.832-3.424c-0.456,2.613-1.246,4.792-2.385,6.634
		c-2.347,3.789-6.038,6.099-11.73,7.426c-3.561,0.75-5.222,0.831-8.856,1.074c-1.403,0-2.422-0.071-3.852-0.071
		c-9.451,0-28.434-2.765-35.495-6.979c-12.004-6.382-19.029-16.552-18.208-26.458c0.74-8.732,7.354-15.812,18.153-19.419
		c3.353-1.083,6.432-1.6,9.193-1.6c15.017,0,18.066,14.678,20.083,24.393c0.31,1.529,0.612,2.968,0.941,4.295
		c2.056,9.106,4.801,14.171,12.323,17.23c1.443,0.599,2.48,0.831,4.224,0.831c1.646-0.081,2.527-0.162,3.725-0.74
		c1.97-0.79,3.631-2.087,4.543-3.556c1.585-2.532,1.979-6.199,1.662-8.195c-0.273-1.57-1.166-4.285-1.742-5.946
		c-3.644-10.333-5.293-14.557-9.816-27.219c-10.93-1.368-29.696-5.754-33.671-19.763c-1.469-5.166-0.755-10.221,2.107-15.033
		c6.184-10.403,18.684-15.549,24.509-17.038c1.393-0.354,4.103-0.831,7.023-1.003c7.82-0.425,28.753,1.236,31.701,15.083
		c2.188,10.596-4.67,22.296-20.219,34.816c2.254,10.312,3.166,14.617,5.312,24.544c0.664,2.877,1.15,4.873,2.229,8.013
		c0.861,2.512,2.801,5.105,5.759,6.149c4.087,1.458,9.334,1.175,16.593-3.09c3.748-2.208,6.453-5.125,9.907-8.57
		c5.126-5.115,10.945-10.93,18.446-13.563C399.959,340.453,401.824,341.354,402.417,343.036 M284.257,297.077
		c-2.077-12.51-13.265-36.619-36.417-36.619c-5.779,0-11.974,1.55-18.436,4.609c-2.604,8.894-1.692,16.471,2.74,22.519
		c3.09,4.224,7.562,7.212,12.531,9.319c-2.345-3.981-3.135-10.282-1.555-16.957c2.188-10.626,9.046-18.426,15.286-17.474
		c5.926,0.922,9.36,10.282,7.162,20.918c-1.798,7.709-5.926,14.06-10.333,16.603c3.404,0.607,6.782,0.901,9.907,0.901
		C272.35,300.895,279.218,299.528,284.257,297.077 M287.828,300.318c-5.875,3.282-13.934,5.104-22.686,5.104
		c-12.358,0-28.465-4.001-36.64-15.174c-5.404-7.364-6.483-16.866-3.12-27.462l0.289-0.922l0.861-0.425
		c7.405-3.657,14.572-5.5,21.308-5.5c27.143,0,39.603,28.951,41.127,42.15l0.177,1.489L287.828,300.318z M394.51,220.343
		c-12.604,1.064-21.987,5.622-27.994,13.493c0.395-0.608,0.871-1.175,1.448-1.651c4.68-3.728,14.678-0.293,21.858,7.81
		c4.438,5.035,6.844,10.657,6.918,15.174c2.249-2.846,4.087-5.905,5.257-9.096C405.384,236.814,402.862,228.153,394.51,220.343
		 M388.589,263.273c-5.116-0.203-11.515-3.525-16.567-9.228c-6.255-7.081-8.474-15.337-5.642-20.027
		c-0.595,0.8-1.19,1.581-1.724,2.441c-7.84,12.773-6.098,29.376-2.801,38.453C370.188,274.204,380.364,269.797,388.589,263.273
		 M406.235,247.623c-6.498,17.707-29.543,31.453-45.822,31.898l-1.544,0.041l-0.598-1.428c-4.006-9.501-6.64-29.083,2.537-44.034
		c6.787-11.052,18.34-17.21,34.345-18.335l0.958-0.071l0.704,0.638C409.811,227.971,409.107,239.772,406.235,247.623
		 M205.817,234.231c-0.593,0.496-1.327,0.729-2.041,0.729c-0.958,0-1.889-0.416-2.543-1.206c-1.129-1.398-0.912-3.444,0.486-4.589
		c16.329-13.24,38.58-17.14,62.714-10.971c1.742,0.446,2.791,2.219,2.355,3.971c-0.456,1.742-2.249,2.775-3.971,2.34
		C240.431,218.783,220.723,222.146,205.817,234.231 M724.529,149.445c0.029-1.803,1.396-3.221,3.322-3.211
		c21.271,0.344,40.742,12.956,54.762,35.525c0.951,1.53,0.486,3.536-1.033,4.498c-0.547,0.324-1.135,0.486-1.74,0.486
		c-1.084,0-2.148-0.547-2.758-1.529c-12.822-20.625-30.34-32.152-49.332-32.466C725.947,152.727,724.508,151.238,724.529,149.445
		 M720.133,411.229c-5.855,0.791-11.67,0.668-17.363-0.364c3.93-6.422,12.268-11.649,13.838-19.552
		c0.598-3.059-0.152-5.114-2.311-6.27c-4.355-2.34-5.553,2.249-8.021,5.663c-1.145,1.61-3.293,3.343-5.146,4.417
		c-4.377,2.532-10.068,4.994-13.695,9.553c-5.064-3.535-9.006-8.257-11.854-13.929c-0.771-1.521-1.396-3.252-1.967-5.116
		c13.516-1.205,28.893-9.775,39.629-16.907c12.34-8.185,22.977-15.235,32.721-11.112c4.225,1.864,6.359,4.852,6.645,9.097
		C753.551,380.658,733.99,402.831,720.133,411.229 M656.072,265.897c-0.629,3.748-3.443,6.24-5.938,5.926
		c-2.188-0.618-3.748-4.356-2.807-8.114c0.922-3.728,3.424-6.24,5.904-5.926C655.748,258.411,657.023,262.159,656.072,265.897
		 M754.848,397.352c-2.949,1.944-7.162,4.689-15.246,8.246c-1.316,0.576-2.613,1.084-3.91,1.58
		c13.027-11.387,24.189-28.039,23.43-40.844c-0.402-6.736-4.041-11.821-10.562-14.698c-12.996-5.511-25.588,2.826-38.898,11.669
		c-11.629,7.709-23.49,15.662-36.873,15.376l-0.729-0.01c-1.094-6.97-1.297-15.448-0.771-25.354
		c0.406-7.699,1.703-16.501,3.021-23.947c17.787-5.977,47.355-25.183,51.055-44.43c4.041-20.816-20.4-38.868-37.553-41.157
		c-16.562-4.923-46.383,1.641-51.062,22.499c-4.682,19.631,16.156,50.436,30.096,62.167c-2.301,7.546-5.418,16.826-8.822,24.413
		c-6.838,15.225-13.676,26.033-20.949,31.32c-9.055,6.584-19.691,9.179-31.746,5.957c-12.355-3.312-23.115-11.133-31.979-22.053
		c-5.572-6.868-8.055-11.244-9.775-14.303c-1.135-1.975-3.02-5.663-5.662-4.224c-3.027,1.661-1.529,5.521,0.658,9.259
		c2.207,3.758,4.812,9.086,13.229,18.082c6.625,7.061,15.217,15.215,29.113,19.854c11.053,3.688,25.365,2.867,35.291-3.312
		c9.908-6.169,18.072-16.097,25.123-30.217c0.83-1.641,1.611-3.312,2.369-4.994c-0.039,0.932-0.1,1.854-0.1,2.796
		c-0.186,15.781,2.529,28.333,8.527,38.361c5.996,10.028,18.334,17.303,29.842,19.084c14.477,2.239,25.854-1.074,34.971-4.326
		c11.629-4.133,16.369-7.697,20.047-10.018c3.676-2.32,6.756-5.074,4.832-7.932C760.115,393.704,756.742,396.126,754.848,397.352
		 M684.373,195.961c2.453,5.814,2.516,12.196,0.135,18.011c-0.232,0.608-0.568,1.175-0.861,1.752
		c1.256-8.215-3.303-16.511-11.355-19.743c-9.045-3.738-19.984,0.638-23.713,9.998c-3.223,8.053-0.162,17.028,6.514,21.769
		c-0.576-0.182-1.146-0.293-1.711-0.517c-5.957-2.391-10.639-6.938-13.131-12.804c-2.471-5.855-2.529-12.369-0.141-18.335
		c3.586-8.793,12.52-14.678,22.225-14.678c3.068,0,6.066,0.578,8.914,1.742C677.213,185.547,681.871,190.096,684.373,195.961
		 M635.912,194.401c-2.836,7.081-2.754,14.82,0.193,21.79c2.969,6.979,8.498,12.398,15.57,15.215
		c3.361,1.388,6.918,2.086,10.572,2.086c11.568,0,22.188-7.162,26.439-17.828c2.836-6.919,2.766-14.546-0.162-21.455
		c-2.959-6.99-8.51-12.399-15.6-15.235c-3.363-1.377-6.932-2.086-10.598-2.086C650.814,176.887,640.209,183.927,635.912,194.401
		 M612.33,169.988c-0.646,0.739-1.539,1.104-2.449,1.104c-0.771,0-1.529-0.263-2.146-0.811c-1.355-1.205-1.469-3.271-0.283-4.619
		c17.303-19.51,38.451-28.15,59.543-24.312c1.764,0.314,2.938,2.016,2.613,3.779c-0.324,1.772-2.016,2.958-3.789,2.633
		C647.096,144.36,628.053,152.251,612.33,169.988 M705.383,217.507c0.283-12.743,10.707-23.116,23.219-23.116
		c0.354,0,0.719,0.01,1.133,0.021c6.443,0.152,12.4,2.816,16.797,7.516c4.355,4.67,6.604,10.748,6.312,17.16
		c-0.314,12.743-11.002,23.106-23.826,23.106h-0.486c-0.75-0.03-1.469-0.213-2.197-0.304c8.246-1.55,14.68-8.813,14.951-17.504
		c0.307-9.988-7.506-18.416-17.787-18.72c-8.51-0.264-15.844,5.369-18.029,13.422C705.443,218.56,705.342,218.054,705.383,217.507
		 M728.377,246.711l0.639,0.01c15.266,0,27.969-12.358,28.334-27.482c0.344-7.587-2.33-14.83-7.527-20.391
		c-5.227-5.602-12.307-8.772-19.926-8.945c-15.457-0.709-28.666,11.893-29.021,27.442c-0.361,7.303,2.221,14.354,7.256,19.885
		C713.355,242.973,720.537,246.347,728.377,246.711"/>
</g>
</svg>
