<?xml version="1.0" encoding="utf-8"?>
<!-- Generator: Adobe Illustrator 18.0.0, SVG Export Plug-In . SVG Version: 6.00 Build 0)  -->
<!DOCTYPE svg PUBLIC "-//W3C//DTD SVG 1.1//EN" "http://www.w3.org/Graphics/SVG/1.1/DTD/svg11.dtd">
<svg version="1.1" id="Layer_1" xmlns="http://www.w3.org/2000/svg" xmlns:xlink="http://www.w3.org/1999/xlink" x="0px" y="0px"
	 viewBox="0 0 150 150" enable-background="new 0 0 150 150" xml:space="preserve">
<g>
	<path fill="none" d="M150,93.1c0,31.2-25.5,56.7-56.7,56.7H56.4c-31.2,0-56.7-25.5-56.7-56.7V56.2C-0.3,25,25.2-0.5,56.4-0.5h36.9
		C124.5-0.5,150,25,150,56.2V93.1z"/>
</g>
<linearGradient id="SVGID_1_" gradientUnits="userSpaceOnUse" x1="-0.3315" y1="149.8315" x2="150" y2="-0.5">
	<stop  offset="1.212120e-02" style="stop-color:#A82923"/>
	<stop  offset="0.7" style="stop-color:#D84936"/>
	<stop  offset="1" style="stop-color:#D84936"/>
</linearGradient>
<rect x="-0.3" y="-0.5" fill="url(#SVGID_1_)" width="150.3" height="150.3"/>
<g>
	<path id="G_shadow" fill="#8F221D" d="M71.2,18.3C81,22.5,84,33.7,84,41c0,9.2-5,16.9-13.8,23.3c-4.1,3-5.2,7.2-5.2,9
		c0,2.9,2.9,6.1,4.6,8C72,84.1,82.3,91,84.6,94.9c1.7,3,3,4.1,4,9c0.7,3.2,1.4,7,0.7,12c-1.2,8.1-5.5,13.6-11,18
		c-6.1,4.8-18.4,6.8-32.6,7c-11.9-0.1-20.7-2.6-26.6-7.6c-5.9-4.6-8.9-10.2-8.9-16.6c0-3.1,1-6.6,2.9-10.5
		c1.9-3.9,9.6-10.5,14.7-12.8c7.6-3.5,14.6-4.7,27.6-4.4c-4-3.8-5.3-7.8-5.5-11.3c-0.1-2.7,1.2-6,2.2-7.4
		c-8.8,0.9-18.5-1.4-24.3-6.7c-5.3-4.9-9.2-12.8-9.2-19.7c0-8.3,2.1-16,9.2-22.8c4.8-4,13.2-9.2,24.8-9.2h40l-8.9,6.5L71.2,18.3z
		 M79.3,115.9c0-4.3-0.9-8.6-3.7-11.8c-3-3-7.1-5.9-12.7-9.9c-7.4-2.1-14.6-1.8-21.9,0.3c-3.9,1.1-10.5,4.9-13.1,8.4
		c-1.5,2-3.2,7.2-3.2,10.3c0,6,2.7,10.8,8.1,14.7c5.2,3.8,12.1,6,21.1,6c8,0,14.1-1.9,18.3-5.3C76.2,125.1,79.3,121.2,79.3,115.9z
		 M54.7,66.3c11.5-0.2,15.1-12.9,15.2-20.1c0.1-16.5-12.3-28.8-22.7-28.8c-11.5,0-15.4,12-15.4,19.7C31.8,50.3,41.9,66.5,54.7,66.3z
		"/>
	<polygon id="Plus_shadow" fill="#8F221D" points="139.7,30 122.2,30 122.2,12.7 113.4,12.7 113.4,30 95.7,30 95.7,38.9 113.4,38.9 
		113.4,56.5 122.2,56.5 122.2,38.9 139.7,38.9 	"/>
	<path id="G" fill="#FFFFFF" d="M71.2,16.7C81,20.9,84,32.2,84,39.5c0,9.2-5,16.9-13.8,23.3c-4.1,3-5.2,7.2-5.2,9
		c0,2.9,2.9,6.1,4.6,8c2.4,2.7,12.8,9.6,15.1,13.5c1.7,3,3,4.1,4,9c0.7,3.2,1.4,7,0.7,12c-1.2,8.1-5.5,13.6-11,18
		c-6.1,4.8-18.4,6.8-32.6,7c-11.9-0.1-20.7-2.6-26.6-7.6c-5.9-4.6-8.9-10.2-8.9-16.6c0-3.1,1-6.6,2.9-10.5
		c1.9-3.9,9.6-10.5,14.7-12.8c7.6-3.5,14.6-4.7,27.6-4.4c-4-3.8-5.3-7.8-5.5-11.3c-0.1-2.7,1.2-6,2.2-7.4
		c-8.8,0.9-18.5-1.4-24.3-6.7c-5.3-4.9-9.2-12.8-9.2-19.7c0-8.3,2.1-16,9.2-22.8c4.8-4,13.2-9.2,24.8-9.2h40l-8.9,6.5L71.2,16.7z
		 M79.3,114.3c0-4.3-0.9-8.6-3.7-11.8c-3-3-7.1-5.9-12.7-9.9c-7.4-2.1-14.6-1.8-21.9,0.3c-3.9,1.1-10.5,4.9-13.1,8.4
		c-1.5,2-3.2,7.2-3.2,10.3c0,6,2.7,10.8,8.1,14.7c5.2,3.8,12.1,6,21.1,6c8,0,14.1-1.9,18.3-5.3C76.2,123.5,79.3,119.6,79.3,114.3z
		 M54.7,64.7c11.5-0.2,15.1-12.9,15.2-20.1c0.1-16.5-12.3-28.8-22.7-28.8c-11.5,0-15.4,12-15.4,19.7C31.8,48.7,41.9,65,54.7,64.7z"
		/>
	<polygon id="Plus" fill="#FFFFFF" points="138.4,28.4 120.9,28.4 120.9,11.2 112.1,11.2 112.1,28.4 94.4,28.4 94.4,37.4 
		112.1,37.4 112.1,55 120.9,55 120.9,37.4 138.4,37.4 	"/>
</g>
<path fill="none" d="M150,135c0,8.1-6.7,14.8-14.8,14.8H14.5c-8.1,0-14.8-6.7-14.8-14.8V14.3c0-8.1,6.7-14.8,14.8-14.8h120.7
	c8.1,0,14.8,6.7,14.8,14.8V135z"/>
</svg>
