<?xml version="1.0" encoding="utf-8"?>
<!-- Generator: Adobe Illustrator 18.0.0, SVG Export Plug-In . SVG Version: 6.00 Build 0)  -->
<!DOCTYPE svg PUBLIC "-//W3C//DTD SVG 1.1//EN" "http://www.w3.org/Graphics/SVG/1.1/DTD/svg11.dtd">
<svg version="1.1" id="Layer_1" xmlns="http://www.w3.org/2000/svg" xmlns:xlink="http://www.w3.org/1999/xlink" x="0px" y="0px"
	 viewBox="0 0 300 150" enable-background="new 0 0 300 150" xml:space="preserve">
<rect y="0.9" fill="#FFFFFF" width="300" height="149.1"/>
<g>
	<g>
		<g>
			<path fill="#EC2130" d="M171.7,75.2c0,35.1-28.5,63.6-63.6,63.6c-35.2,0-63.6-28.5-63.6-63.6s28.5-63.6,63.6-63.6
				C143.2,11.6,171.7,40.1,171.7,75.2z"/>
			<g>
				<path fill="#FCB131" d="M193.4,11.6c-16.5,0-31.4,6.2-42.7,16.5c-2.3,2.1-4.5,4.3-6.4,6.7h12.9c1.7,2.1,3.4,4.4,4.8,6.7h-22.5
					c-1.3,2.2-2.6,4.4-3.7,6.7h29.9c1,2.2,1.9,4.4,2.7,6.7h-35.3c-0.7,2.2-1.4,4.5-1.8,6.7h38.9c0.9,4.3,1.4,8.8,1.4,13.5
					c0,7.1-1.2,13.9-3.3,20.2h-35.3c0.8,2.3,1.7,4.5,2.7,6.7h29.9c-1.1,2.3-2.3,4.6-3.7,6.7h-22.5c1.5,2.3,3.1,4.6,4.8,6.7h12.8
					c-2,2.4-4.1,4.7-6.4,6.7c11.3,10.2,26.3,16.5,42.7,16.5c35.1,0,63.6-28.5,63.6-63.6C257,40.1,228.6,11.6,193.4,11.6z"/>
			</g>
		</g>
		<path fill="#FCB131" d="M248.6,110.7c0-1.1,0.9-2,2-2s2,0.9,2,2c0,1.1-0.9,2-2,2C249.5,112.7,248.6,111.8,248.6,110.7z
			 M250.6,112.2c0.9,0,1.5-0.7,1.5-1.6c0-0.9-0.7-1.5-1.5-1.5c-0.9,0-1.6,0.7-1.6,1.5C249.1,111.5,249.8,112.2,250.6,112.2z
			 M250.3,111.6h-0.4v-1.8h0.7c0.2,0,0.3,0,0.5,0.1c0.1,0.1,0.2,0.3,0.2,0.5c0,0.2-0.1,0.4-0.3,0.5l0.3,0.8h-0.5l-0.3-0.7h-0.3
			L250.3,111.6L250.3,111.6z M250.3,110.6h0.2c0.1,0,0.2,0,0.2,0c0.1,0,0.1-0.1,0.1-0.2s0-0.2-0.1-0.2c-0.1,0-0.2,0-0.2,0h-0.2
			L250.3,110.6L250.3,110.6z"/>
	</g>
	<g>
		<g>
			<path fill="#203A70" d="M93.2,82.2c-0.7-0.1-1-0.1-1.5-0.1c-3.9,0-5.9,1.3-5.9,4c0,1.6,1,2.7,2.5,2.7
				C91,88.7,93.1,86.1,93.2,82.2z M98.2,93.9c-0.9,0-5.7,0-5.7,0l0.1-2.7c-1.7,2.2-4.1,3.2-7.2,3.2c-3.7,0-6.3-2.9-6.3-7.2
				c0-6.4,4.5-10.1,12.1-10.1c0.8,0,1.8,0.1,2.8,0.2c0.2-0.9,0.2-1.2,0.2-1.7c0-1.7-1.2-2.4-4.4-2.4c-3.4,0-6.2,0.8-7.3,1.2
				c0.1-0.4,1-5.9,1-5.9c3.5-1,5.7-1.4,8.2-1.4c5.9,0,9.1,2.7,9.1,7.7c0,1.3-0.2,3-0.5,5.2C99.6,83.7,98.4,91.9,98.2,93.9z"/>
			<polygon fill="#203A70" points="76.2,93.9 69.3,93.9 73.2,69.1 64.4,93.9 59.7,93.9 59.1,69.2 55,93.9 48.5,93.9 53.9,61.6 
				63.8,61.6 64.4,79.7 70.4,61.6 81.5,61.6 			"/>
			<path fill="#203A70" d="M202,82.2c-0.7-0.1-1-0.1-1.5-0.1c-3.9,0-5.9,1.3-5.9,4c0,1.6,1,2.7,2.5,2.7
				C199.8,88.7,201.9,86.1,202,82.2z M207,93.9c-0.9,0-5.7,0-5.7,0l0.1-2.7c-1.7,2.2-4.1,3.2-7.2,3.2c-3.7,0-6.3-2.9-6.3-7.2
				c0-6.4,4.5-10.1,12.1-10.1c0.8,0,1.8,0.1,2.8,0.2c0.2-0.9,0.2-1.2,0.2-1.7c0-1.7-1.2-2.4-4.4-2.4c-3.4,0-6.2,0.8-7.3,1.2
				c0.1-0.4,1-5.9,1-5.9c3.5-1,5.7-1.4,8.2-1.4c5.9,0,9.1,2.7,9.1,7.7c0,1.3-0.2,3-0.5,5.2C208.4,83.7,207.1,91.9,207,93.9z"/>
			<path fill="#203A70" d="M128.9,93.5c-1.9,0.6-3.4,0.8-5,0.8c-3.5,0-5.5-2-5.5-5.7c0-1.2,0.5-4.2,1-7c0.4-2.5,3-17.9,3-17.9h6.9
				l-0.8,4h4.2l-0.9,6.3h-4.2c-0.8,5-1.9,11.2-2,12c0,1.3,0.7,2,2.4,2c0.8,0,1.4-0.1,1.9-0.2L128.9,93.5z"/>
			<path fill="#203A70" d="M149.9,93.3c-2.4,0.7-4.6,1.1-7,1.1c-7.7,0-11.7-4-11.7-11.7c0-9,5.1-15.6,12-15.6c5.7,0,9.3,3.7,9.3,9.5
				c0,1.9-0.2,3.8-0.8,6.5H138c-0.5,3.8,2,5.4,6,5.4c2.5,0,4.7-0.5,7.1-1.7L149.9,93.3z M146.1,77.7c0-0.5,0.7-4.7-3.2-4.7
				c-2.2,0-3.7,1.7-4.4,4.7H146.1z"/>
			<path fill="#203A70" d="M102.4,75.9c0,3.3,1.6,5.6,5.2,7.3c2.8,1.3,3.2,1.7,3.2,2.9c0,1.6-1.2,2.4-4,2.4c-2.1,0-4-0.3-6.2-1
				c0,0-0.9,5.8-1,6.1c1.6,0.3,3,0.7,7.2,0.8c7.3,0,10.7-2.8,10.7-8.8c0-3.6-1.4-5.7-4.9-7.3c-2.9-1.3-3.2-1.6-3.2-2.8
				c0-1.4,1.2-2.1,3.4-2.1c1.4,0,3.2,0.1,5,0.4l1-6.1c-1.8-0.3-4.5-0.5-6.1-0.5C105,67,102.3,71.1,102.4,75.9z"/>
			<path fill="#203A70" d="M183.5,67.8c1.9,0,3.7,0.5,6.2,1.7l1.1-7c-1-0.4-4.6-2.7-7.6-2.7c-4.6,0-8.5,2.3-11.3,6.1
				c-4-1.3-5.7,1.4-7.7,4l-1.8,0.4c0.1-0.9,0.2-1.7,0.2-2.6h-6.3c-0.9,8.1-2.4,16.4-3.6,24.5l-0.3,1.7h6.9
				c1.2-7.5,1.8-12.3,2.2-15.5l2.6-1.5c0.4-1.5,1.6-1.9,4-1.9c-0.3,1.7-0.5,3.5-0.5,5.4c0,8.6,4.6,13.9,12.1,13.9
				c1.9,0,3.5-0.2,6.1-1l1.2-7.4c-2.3,1.1-4.2,1.7-5.9,1.7c-4,0-6.5-3-6.5-7.9C174.7,72.7,178.4,67.8,183.5,67.8z"/>
			<path fill="#203A70" d="M242,61.6l-1.5,9.3c-1.9-2.5-3.9-4.3-6.6-4.3c-3.5,0-6.7,2.6-8.7,6.5c-2.9-0.6-5.9-1.6-5.9-1.6v0
				c0.2-2.2,0.3-3.5,0.3-4h-6.3c-0.9,8.1-2.4,16.4-3.6,24.5l-0.3,1.7h6.9c0.9-6,1.7-11.1,2.2-15.1c2.4-2.1,3.5-4,5.9-3.9
				c-1,2.5-1.7,5.5-1.7,8.5c0,6.5,3.3,10.9,8.3,10.9c2.5,0,4.5-0.9,6.4-2.9l-0.3,2.5h6.5l5.2-32.3L242,61.6L242,61.6z M233.3,87.8
				c-2.3,0-3.5-1.7-3.5-5.2c0-5.2,2.2-8.8,5.4-8.8c2.4,0,3.7,1.8,3.7,5.1C238.8,84.2,236.6,87.8,233.3,87.8z"/>
		</g>
		<g>
			<polygon fill="#FFFFFF" points="78.2,92 71.2,92 75.2,67.2 66.4,92 61.7,92 61.1,67.3 56.9,92 50.5,92 55.9,59.7 65.8,59.7 
				66.1,79.7 72.8,59.7 83.5,59.7 			"/>
			<path fill="#FFFFFF" d="M95.1,80.3c-0.7-0.1-1-0.1-1.5-0.1c-3.9,0-5.9,1.3-5.9,4c0,1.6,1,2.7,2.5,2.7
				C93,86.8,95.1,84.2,95.1,80.3z M100.2,92c-0.9,0-5.7,0-5.7,0l0.1-2.7c-1.7,2.2-4.1,3.2-7.2,3.2c-3.7,0-6.3-2.9-6.3-7.2
				c0-6.4,4.5-10.1,12.1-10.1c0.8,0,1.8,0.1,2.8,0.2c0.2-0.9,0.2-1.2,0.2-1.7c0-1.7-1.2-2.4-4.4-2.4c-3.4,0-6.2,0.8-7.3,1.2
				c0.1-0.4,1-5.9,1-5.9c3.5-1,5.7-1.4,8.2-1.4c5.9,0,9.1,2.7,9.1,7.7c0,1.3-0.2,3-0.5,5.2C101.6,81.8,100.4,90,100.2,92z"/>
			<path fill="#FFFFFF" d="M192.8,60.6l-1.1,7c-2.5-1.2-4.2-1.7-6.2-1.7c-5.2,0-8.8,5-8.8,12.1c0,4.9,2.4,7.9,6.5,7.9
				c1.7,0,3.6-0.5,5.9-1.7l-1.2,7.4c-2.5,0.7-4.2,1-6.1,1c-7.5,0-12.1-5.3-12.1-13.9c0-11.5,6.4-19.6,15.5-19.6
				C188.2,58.9,191.8,60.2,192.8,60.6z"/>
			<path fill="#FFFFFF" d="M203.9,80.3c-0.7-0.1-1-0.1-1.5-0.1c-3.9,0-5.9,1.3-5.9,4c0,1.6,1,2.7,2.5,2.7
				C201.8,86.8,203.9,84.2,203.9,80.3z M209,92c-0.9,0-5.7,0-5.7,0l0.1-2.7c-1.7,2.2-4.1,3.2-7.2,3.2c-3.7,0-6.3-2.9-6.3-7.2
				c0-6.4,4.5-10.1,12.1-10.1c0.8,0,1.8,0.1,2.8,0.2c0.2-0.9,0.3-1.2,0.3-1.7c0-1.7-1.2-2.4-4.4-2.4c-3.4,0-6.2,0.8-7.3,1.2
				c0.1-0.4,1-5.9,1-5.9c3.5-1,5.7-1.4,8.2-1.4c5.9,0,9.1,2.7,9.1,7.7c0,1.3-0.2,3-0.5,5.2C210.4,81.8,209.1,90,209,92z"/>
			<path fill="#FFFFFF" d="M130.9,91.6c-1.9,0.6-3.4,0.8-5,0.8c-3.5,0-5.5-2-5.5-5.7c0-1.2,0.5-4.2,1-7c0.4-2.5,3-17.9,3-17.9h6.8
				l-0.8,4h3.5l-0.9,6.3h-3.5c-0.8,5-1.9,11.2-2,12c0,1.4,0.7,2,2.4,2c0.8,0,1.4-0.1,1.9-0.2L130.9,91.6z"/>
			<path fill="#FFFFFF" d="M151.9,91.4c-2.4,0.7-4.6,1.1-7,1c-7.7,0-11.7-4-11.7-11.7c0-9,5.1-15.6,12-15.6c5.7,0,9.3,3.7,9.3,9.5
				c0,1.9-0.2,3.8-0.8,6.5H140c-0.5,3.8,2,5.4,6,5.4c2.5,0,4.7-0.5,7.1-1.7L151.9,91.4z M148.1,75.8c0-0.5,0.7-4.7-3.2-4.7
				c-2.2,0-3.7,1.7-4.4,4.7H148.1z"/>
			<path fill="#FFFFFF" d="M104.3,74c0,3.3,1.6,5.6,5.2,7.3c2.8,1.3,3.2,1.7,3.2,2.9c0,1.6-1.2,2.4-4,2.4c-2,0-4-0.3-6.2-1
				c0,0-0.9,5.8-1,6c1.6,0.3,3,0.7,7.2,0.8c7.3,0,10.7-2.8,10.7-8.8c0-3.6-1.4-5.7-4.9-7.3c-2.9-1.3-3.2-1.6-3.2-2.8
				c0-1.4,1.2-2.2,3.4-2.2c1.4,0,3.2,0.2,5,0.4l1-6.1c-1.8-0.3-4.5-0.5-6.1-0.5C107,65.1,104.3,69.2,104.3,74z"/>
			<path fill="#FFFFFF" d="M245.6,92H239l0.3-2.5c-1.9,2-3.8,2.9-6.4,2.9c-5,0-8.3-4.3-8.3-10.9c0-8.7,5.2-16.1,11.2-16.1
				c2.7,0,4.7,1.1,6.6,3.6l1.5-9.3h6.8L245.6,92z M235.3,85.9c3.2,0,5.5-3.7,5.5-8.8c0-3.3-1.3-5.2-3.7-5.2c-3.1,0-5.4,3.7-5.4,8.8
				C231.8,84.2,233,85.9,235.3,85.9z"/>
			<path fill="#FFFFFF" d="M215.2,65.7c-0.9,8.1-2.4,16.3-3.6,24.5l-0.3,1.7h6.9c2.5-16,3.1-19.2,7-18.8c0.6-3.3,1.7-6.2,2.6-7.6
				c-2.9-0.6-4.5,1-6.6,4.1c0.2-1.3,0.5-2.7,0.4-4L215.2,65.7L215.2,65.7z"/>
			<path fill="#FFFFFF" d="M158.3,65.7c-0.9,8.1-2.4,16.3-3.6,24.5l-0.3,1.7h6.9c2.5-16,3.1-19.2,7-18.8c0.6-3.3,1.8-6.2,2.6-7.6
				c-2.9-0.6-4.5,1-6.6,4.1c0.2-1.3,0.5-2.7,0.4-4L158.3,65.7L158.3,65.7z"/>
			<g>
				<path fill="#FFFFFF" d="M248.6,89.9c0-1.1,0.9-2,2-2c1.1,0,2,0.9,2,2c0,1.1-0.9,2-2,2C249.5,92,248.6,91,248.6,89.9z
					 M250.6,91.5c0.9,0,1.6-0.7,1.6-1.5c0-0.9-0.7-1.6-1.6-1.6c-0.9,0-1.5,0.7-1.5,1.6C249.1,90.8,249.8,91.5,250.6,91.5z
					 M250.3,90.8h-0.4V89h0.7c0.2,0,0.3,0,0.5,0.1c0.2,0.1,0.2,0.3,0.2,0.5c0,0.2-0.1,0.4-0.3,0.5l0.3,0.8H251l-0.3-0.7h-0.3
					L250.3,90.8L250.3,90.8z M250.3,89.8h0.2c0.1,0,0.2,0,0.2,0c0.1,0,0.1-0.1,0.1-0.2c0-0.1,0-0.2-0.1-0.2c-0.1,0-0.2,0-0.2,0h-0.2
					L250.3,89.8L250.3,89.8z"/>
			</g>
		</g>
	</g>
</g>
</svg>
