<?xml version="1.0" encoding="utf-8"?>
<!-- Generator: Adobe Illustrator 18.0.0, SVG Export Plug-In . SVG Version: 6.00 Build 0)  -->
<!DOCTYPE svg PUBLIC "-//W3C//DTD SVG 1.1//EN" "http://www.w3.org/Graphics/SVG/1.1/DTD/svg11.dtd">
<svg version="1.1" id="Layer_1" xmlns="http://www.w3.org/2000/svg" xmlns:xlink="http://www.w3.org/1999/xlink" x="0px" y="0px"
	 viewBox="0 0 300 150" enable-background="new 0 0 300 150" xml:space="preserve">
<rect y="0.9" fill="#FFFFFF" width="300" height="149.1"/>
<path fill="#1C7FAD" d="M231.8,54.9c-6.8,0-12.2,1.8-16.4,2.6l-1.3,10.4c2.1-1,8.6-2.8,14-3c5.4-0.2,8.6,1,7.5,5.6
	c-16,0-26.9,3.3-29.1,13.7c-3.2,17.8,16.4,17.3,24.2,9.6l-1,4.3h14.3l6.2-28.4C252.9,57.7,241.8,54.7,231.8,54.9z M232.8,83.9
	c-0.8,3.8-3.8,5.5-7.5,5.6c-3.2,0.2-6-2.6-4-5.9c1.6-2.8,6-3.5,8.8-3.5c1.1,0,2.4,0,3.5,0C233.3,81.5,233.1,82.6,232.8,83.9z"/>
<polygon fill="#1C7FAD" points="262.5,43.7 250.7,98.1 265.3,98.1 277.2,43.7 "/>
<path fill="#1C7FAD" d="M195.7,43.8h-26.6l-11.8,54.3h15.5l4-18h11c10.9,0,19.8-6.6,22.1-17.8C212.6,49.6,203.4,43.8,195.7,43.8z
	 M195.3,62.3c-1,4.1-5.1,7.4-9.1,7.4H179l3.2-14.9h7.6C193.8,54.9,196.2,58.2,195.3,62.3z"/>
<path fill="#1B5B80" d="M92.4,54.9c-6.7,0-12.1,1.8-16,2.6l-1.2,10.4c1.9-1,8.3-2.8,13.7-3c5.3-0.2,8.5,1,7.5,5.6
	c-15.9,0-26.6,3.3-28.8,13.7c-3.2,17.8,16.2,17.3,23.7,9.6l-1,4.3h14.3l6.1-28.4C113.3,57.7,102.3,54.7,92.4,54.9z M93.5,83.9
	c-0.8,3.8-3.9,5.5-7.5,5.6c-3.2,0.2-5.8-2.6-3.8-5.9c1.6-2.8,6-3.5,8.5-3.5c1.3,0,2.4,0,3.6,0C94,81.5,93.7,82.6,93.5,83.9z"/>
<polygon fill="#1B5B80" points="117,55.7 131.3,55.7 133.6,80.9 147.6,55.7 162.4,55.7 128.4,116.2 112.4,116.2 122.9,98.4 "/>
<path fill="#1B5B80" d="M56.9,43.8H30.1L18.3,98.1H34l3.9-18H49c10.7,0,19.7-6.6,22-17.8C73.8,49.6,64.7,43.8,56.9,43.8z M56.4,62.3
	c-1,4.1-5,7.4-8.9,7.4h-7.4l3.4-14.9h7.6C54.9,54.9,57.5,58.2,56.4,62.3z"/>
<path fill="#1B5B80" d="M280.4,50.7v-6.4H278v-0.9h5.8v0.9h-2.4v6.4H280.4z"/>
<path fill="#1B5B80" d="M284.7,50.7v-7.3h1.4l1.7,5.1c0.2,0.5,0.3,0.9,0.4,1.1c0.1-0.3,0.2-0.6,0.4-1.2l1.8-5.1h1.3v7.3h-0.9v-6.1
	l-2.1,6.1h-0.9l-2.1-6.2v6.2L284.7,50.7L284.7,50.7z"/>
</svg>
