<?xml version="1.0" encoding="utf-8"?>
<!-- Generator: Adobe Illustrator 18.0.0, SVG Export Plug-In . SVG Version: 6.00 Build 0)  -->
<!DOCTYPE svg PUBLIC "-//W3C//DTD SVG 1.1//EN" "http://www.w3.org/Graphics/SVG/1.1/DTD/svg11.dtd">
<svg version="1.1" id="Layer_1" xmlns="http://www.w3.org/2000/svg" xmlns:xlink="http://www.w3.org/1999/xlink" x="0px" y="0px"
	 viewBox="0 0 150 150" enable-background="new 0 0 150 150" xml:space="preserve">
<rect fill="#2CAAE1" width="150.5" height="150.5"/>
<path fill="#FFFFFF" d="M125.4,44.1c-3.7,1.6-7.7,2.7-11.8,3.2c4.2-2.5,7.5-6.6,9.1-11.4c-4,2.4-8.4,4.1-13.1,5
	c-3.8-4-9.1-6.5-15-6.5C83.2,34.5,74,43.7,74,55.1c0,1.6,0.2,3.2,0.5,4.7c-17.1-0.9-32.3-9.1-42.4-21.5c-1.8,3-2.8,6.6-2.8,10.3
	c0,7.1,3.6,13.4,9.2,17.1c-3.4-0.1-6.5-1-9.3-2.6c0,0.1,0,0.2,0,0.3c0,10,7.1,18.3,16.5,20.2c-1.7,0.5-3.5,0.7-5.4,0.7
	c-1.3,0-2.6-0.1-3.9-0.4c2.6,8.2,10.2,14.1,19.2,14.3c-7,5.5-15.9,8.8-25.6,8.8c-1.7,0-3.3-0.1-4.9-0.3c9.1,5.8,19.9,9.2,31.6,9.2
	c37.9,0,58.6-31.4,58.6-58.6c0-0.9,0-1.8-0.1-2.7C119.2,51.9,122.7,48.3,125.4,44.1z"/>
</svg>
