<?xml version="1.0" encoding="utf-8"?>
<!-- Generator: Adobe Illustrator 18.0.0, SVG Export Plug-In . SVG Version: 6.00 Build 0)  -->
<!DOCTYPE svg PUBLIC "-//W3C//DTD SVG 1.1//EN" "http://www.w3.org/Graphics/SVG/1.1/DTD/svg11.dtd">
<svg version="1.1" id="Layer_1" xmlns="http://www.w3.org/2000/svg" xmlns:xlink="http://www.w3.org/1999/xlink" x="0px" y="0px"
	 viewBox="0 0 300 150" enable-background="new 0 0 300 150" xml:space="preserve">
<rect y="0.9" fill="#FFFFFF" width="300" height="149.1"/>
<g>
	<g>
		<polygon fill="#0A67B2" points="124.3,116.4 102.7,116.4 116.2,33.5 137.8,33.5 		"/>
		<path fill="#0A67B2" d="M84.6,33.5L64,90.5l-2.4-12.3l0,0L54.3,41c0,0-0.9-7.5-10.2-7.5h-34l-0.4,1.4c0,0,10.4,2.2,22.5,9.5
			l18.8,72h22.5l34.3-82.8H84.6z"/>
		<path fill="#0A67B2" d="M254.2,116.4H274l-17.3-82.8h-17.4c-8,0-9.9,6.2-9.9,6.2l-32.2,76.7h22.5l4.5-12.3h27.4L254.2,116.4z
			 M230.5,87l11.3-31l6.4,31H230.5z"/>
		<path fill="#0A67B2" d="M199,53.4l3.1-17.8c0,0-9.5-3.6-19.4-3.6c-10.7,0-36.1,4.7-36.1,27.4c0,21.4,29.8,21.7,29.8,32.9
			s-26.7,9.2-35.6,2.1l-3.2,18.6c0,0,9.6,4.7,24.4,4.7s36.9-7.6,36.9-28.3c0-21.6-30.1-23.5-30.1-32.9
			C168.8,47.1,189.8,48.3,199,53.4z"/>
	</g>
	<path fill="#FAA634" d="M61.6,78.2L54.3,41c0,0-0.9-7.5-10.2-7.5h-34l-0.4,1.4c0,0,16.3,3.4,32,16.1C56.7,63.1,61.6,78.2,61.6,78.2
		z"/>
</g>
</svg>
