<?xml version="1.0" encoding="utf-8"?>
<!-- Generator: Adobe Illustrator 17.1.0, SVG Export Plug-In . SVG Version: 6.00 Build 0)  -->
<!DOCTYPE svg PUBLIC "-//W3C//DTD SVG 1.1//EN" "http://www.w3.org/Graphics/SVG/1.1/DTD/svg11.dtd">
<svg version="1.1" id="Layer_1" xmlns="http://www.w3.org/2000/svg" xmlns:xlink="http://www.w3.org/1999/xlink" x="0px" y="0px"
	 viewBox="0 107 512 266" enable-background="new 0 107 512 266" xml:space="preserve">
<linearGradient id="SVGID_1_" gradientUnits="userSpaceOnUse" x1="255.515" y1="144" x2="255.515" y2="401" gradientTransform="matrix(1 0 0 -1 0 512)">
	<stop  offset="0" style="stop-color:#C1C1C1"/>
	<stop  offset="1" style="stop-color:#FFFFFF"/>
</linearGradient>
<rect x="3.7" y="111" fill="url(#SVGID_1_)" stroke="#BCBEC0" stroke-width="4" stroke-miterlimit="10" width="503.6" height="257"/>
<g>
	<path fill="#F48E08" d="M57.6,172.1H70l12.6,48.1h0.2l13-48.1h11.8l-19,62.4H76.4L57.6,172.1z"/>
	<path fill="#F48E08" d="M135.6,171.2c13,0,24.8,9.6,24.8,32.1s-11.9,32.1-24.8,32.1s-24.8-9.6-24.8-32.1S122.6,171.2,135.6,171.2z
		 M135.6,226.6c7.2,0,13-6.2,13-23.3s-5.8-23.3-13-23.3s-13,6.2-13,23.3S128.3,226.6,135.6,226.6z"/>
	<path fill="#F48E08" d="M170.6,172.1h19.5c11.1,0,18.6,5,18.6,16.4c0,8.1-5.1,13.6-12.1,14.7v0.3c2.3,0.4,4.9,1.4,6.9,7.2l8.1,23.8
		h-12.2l-6.2-20.3c-1.5-4.9-4.5-6.5-8.7-6.5H182v26.8h-11.4V172.1z M186.7,199.3c6.1,0,10.2-3.1,10.2-9.5c0-7.1-3.8-8.9-10.2-8.9
		H182v18.4L186.7,199.3L186.7,199.3z"/>
	<path fill="#F48E08" d="M220.8,172.1h11.4v26.4h0.3l17.8-26.4h13.1l-21.2,29.4l22.9,33h-13.9l-18.8-29.3h-0.3v29.3h-11.4
		L220.8,172.1L220.8,172.1z"/>
	<path fill="#F48E08" d="M303.4,219.5h-21.4l-4.5,15H266l20.9-62.4h12.5l20.1,62.4h-11.8L303.4,219.5z M301,210.7l-7.9-29.1h-0.2
		l-8.6,29.1H301z"/>
	<path fill="#F48E08" d="M325.9,222.4c2.2,1.4,7.1,3.8,13.2,3.8c5,0,9.5-2.8,9.5-9c0-4.5-2.6-6.4-8.1-9.5l-5.8-3.2
		c-6.2-3.4-10.2-8.3-10.2-16.4c0-11.2,9.2-17,19.7-17c6.6,0,11.3,1.7,13,2.2l-0.5,9.6c-2.8-1.1-6.4-2.7-11.7-2.7
		c-5.7,0-8.7,3-8.7,7.3c0,4.6,3.1,6.4,6.6,8.4l6.7,3.8c7.3,4.1,10.8,8,10.8,16.8c0,12.7-9,18.8-20.9,18.8c-6.3,0-11.1-0.9-14.2-2.8
		L325.9,222.4z"/>
	<path fill="#F48E08" d="M370.6,222.4c2.2,1.4,7.1,3.8,13.2,3.8c5,0,9.5-2.8,9.5-9c0-4.5-2.6-6.4-8.1-9.5l-5.8-3.2
		c-6.2-3.4-10.2-8.3-10.2-16.4c0-11.2,9.2-17,19.7-17c6.6,0,11.3,1.7,13,2.2l-0.5,9.6c-2.8-1.1-6.4-2.7-11.7-2.7
		c-5.7,0-8.7,3-8.7,7.3c0,4.6,3.1,6.4,6.6,8.4l6.7,3.8c7.3,4.1,10.8,8,10.8,16.8c0,12.7-9,18.8-20.9,18.8c-6.3,0-11.1-0.9-14.2-2.8
		L370.6,222.4z"/>
	<path fill="#F48E08" d="M416,172.1h32.8v9.1h-21.4v16.6h20.2v9.1h-20.2v18.4h22.2v9.1H416V172.1z"/>
</g>
<g>
	<path fill="#58595B" d="M64.8,262.3v29.5c0,7.6,2.3,10,7.2,10c4.8,0,7.1-2.5,7.1-10v-29.5h8.3v29.5c0,12-6.9,16.7-15.5,16.7
		c-8.6,0-15.5-4.7-15.5-16.7v-29.5H64.8z M63.3,250.9h6.3v7.2h-6.3C63.3,258.1,63.3,250.9,63.3,250.9z M74.3,250.9h6.3v7.2h-6.3
		V250.9z"/>
	<path fill="#58595B" d="M96.7,262.3H110c9.4,0,13.7,3.5,13.7,11.2c0,7.2-4.6,9.4-7.6,10.5v0.1c3.5,0.8,8.6,3.3,8.6,10.9
		c0,8.3-6.1,12.8-14.2,12.8H96.7V262.3z M104.7,281.3h4.3c4.1,0,6.5-3.1,6.5-6.8c0-3.8-2.7-6.1-6.7-6.1h-4.1V281.3z M104.7,301.4
		h4.6c4.5,0,7-2.7,7-7c0-4-2.1-7-7.2-7h-4.4L104.7,301.4L104.7,301.4z"/>
	<path fill="#58595B" d="M132.9,262.3h23.9v6.7h-15.6V281H156v6.7h-14.7v13.4h16.2v6.7h-24.6V262.3z"/>
	<path fill="#58595B" d="M165.1,262.3h14.2c8.1,0,13.6,3.7,13.6,12c0,5.9-3.7,9.9-8.8,10.7v0.2c1.7,0.3,3.6,1,5,5.3l5.9,17.4h-8.9
		l-4.5-14.8c-1.1-3.6-3.3-4.8-6.3-4.8h-1.9v19.6h-8.4L165.1,262.3L165.1,262.3z M176.9,282.1c4.4,0,7.4-2.3,7.4-6.9
		c0-5.2-2.7-6.5-7.4-6.5h-3.4v13.4L176.9,282.1L176.9,282.1z"/>
	<path fill="#58595B" d="M224.2,270.5h-0.1l-7.2,37.3h-9.9l-9.2-45.5h7.8l6.4,35.1h0.1l6.8-35.1h10.2l6.8,35.1h0.1l6.7-35.1h7.6
		l-9.4,45.5h-10L224.2,270.5z"/>
	<path fill="#58595B" d="M256.1,262.3h23.9v6.7h-15.6V281h14.7v6.7h-14.7v13.4h16.2v6.7h-24.6L256.1,262.3L256.1,262.3z"/>
	<path fill="#58595B" d="M288.8,262.3h8.4v45.5h-8.4V262.3z"/>
	<path fill="#58595B" d="M306.3,299c1.6,1,5.2,2.8,9.7,2.8c3.7,0,6.9-2,6.9-6.6c0-3.3-1.9-4.7-5.9-6.9l-4.2-2.3
		c-4.5-2.5-7.4-6.1-7.4-11.9c0-8.2,6.7-12.4,14.4-12.4c4.8,0,8.2,1.2,9.5,1.6l-0.4,7c-2-0.8-4.7-2-8.5-2c-4.2,0-6.3,2.2-6.3,5.3
		c0,3.4,2.3,4.7,4.8,6.1l4.9,2.7c5.3,3,7.9,5.9,7.9,12.3c0,9.3-6.6,13.7-15.3,13.7c-4.6,0-8.1-0.7-10.4-2L306.3,299z"/>
	<path fill="#58595B" d="M347.5,262.3v29.5c0,7.6,2.3,10,7.2,10c4.8,0,7.1-2.5,7.1-10v-29.5h8.4v29.5c0,12-6.9,16.7-15.5,16.7
		c-8.6,0-15.5-4.7-15.5-16.7v-29.5H347.5z"/>
	<path fill="#58595B" d="M379.3,262.3h9.9l15.1,35.7h0.1v-35.7h7.6v45.5h-10L387,272.3h-0.1v35.5h-7.6L379.3,262.3L379.3,262.3z"/>
	<path fill="#58595B" d="M439.8,282.3h14.7v23.8c-2.3,1.2-6.4,2.3-12.3,2.3c-14.6,0-22.4-9.9-22.4-23.4s7.8-23.4,22.4-23.4
		c5.2,0,9.3,1.2,11.1,2l-0.5,7.5c-2.7-1.6-6.3-2.8-10.5-2.8c-8.9,0-13.6,7.3-13.6,16.8c0,10.2,4.6,16.8,13.2,16.8
		c2,0,3.7-0.4,4.8-0.8v-12.3h-6.9L439.8,282.3L439.8,282.3z"/>
</g>
</svg>
