<?xml version="1.0" standalone="no"?> <!DOCTYPE svg PUBLIC "-//W3C//DTD SVG 1.0//EN" "http://www.w3.org/TR/2001/REC-SVG-20010904/DTD/svg10.dtd" > <svg xmlns="http://www.w3.org/2000/svg" width="100%" height="100%">
<defs >
<font id="fressnapfkipppronoone" horiz-adv-x="628" ><font-face
    font-family="FressnapfKippPro-NoOne"
    units-per-em="2048"
    panose-1="2 0 5 6 2 0 0 2 0 4"
    ascent="1620"
    descent="-428"
    alphabetic="0" />
<missing-glyph horiz-adv-x="735" d="M616 1346L715 1268L694 1188L707 1120L709 1122V1100L705 1098L711 1012L719 956L707 772L709 750V494L686 414V248L700 231L696 174L702 33L332 16L252 8L285 20L152 0H94L80 10L66 6V27L61 39L125 139V156L70 172L104 317L100
389L104 446V467L111 469V539L115 580L109 649L90 756L86 768V895L80 893V915L123 985L88 971V1067L61 1071L80 1100L68 1151L86 1174L63 1225L90 1290V1303L82 1300L74 1337L80 1339V1354H266L252 1348H287L330 1368H543L567 1364L616 1346ZM268 178H281L270 174H365H358L512
199L504 266V287L553 322L487 354L545 414V428L516 416L489 444V467L532 483V504L537 506L528 569L516 565L532 612V633L539 635V705L498 707V727L543 745L537 815L494 799L537 854L522 864V887L526 889L518 922L508 950V973L549 1096L518 1137L479 1182L487 1186L379
1180L408 1190H371L313 1024V1004L272 971L279 975L307 911V891L272 877V860L283 864L311 856L301 727L309 651L303 616L256 487L270 451L272 420V342L281 346V328L307 283L317 211L268 193V178Z" />
<glyph unicode=" " glyph-name="space" horiz-adv-x="409" />
<glyph unicode="!" glyph-name="exclam" horiz-adv-x="380" d="M319 1300L313 1026L305 950L315 891V627L281 436Q276 428 276 408V397Q276 346 254 346L215 344H127L123 348Q112 355 109 391Q97 490 84 543L72 608L84 684V1161L92 1243L88 1268V1300Q88 1329
109 1337H211L223 1339L303 1335Q319 1335 319 1300ZM305 221V39L307 27Q307 16 303 8T293 0L289 -2H82Q73 -2 67 4T61 20L63 23V233Q63 246 86 246H285Q297 246 301 240Q305 233 305 221Z" />
<glyph unicode="&quot;" glyph-name="quotedbl" horiz-adv-x="544" d="M467 1436L465 1372L457 1286V1223L459 1196L463 1178L455 1159L446 1155H410L397 1157H360L340 1159L334 1182L328 1260V1294L322 1358V1407L324 1427V1477L338 1495L350 1491L367 1495L406
1493L416 1495H430L457 1485L465 1468L467 1436ZM207 1436L205 1372L197 1286V1223L199 1196L203 1178L195 1159L186 1155H150L137 1157H100L80 1159L74 1182L68 1260V1294L61 1358V1407L63 1427V1477L78 1495L90 1491L106 1495L145 1493L156 1495H170L197 1485L205
1468L207 1436Z" />
<glyph unicode="#" glyph-name="numbersign" horiz-adv-x="1208" d="M1147 838L1143 821V733L1118 727H885L879 700L860 578L1004 571L1020 578L1034 573L1051 580L1073 565L1077 555V500L1073 485V395L1049 391H979V387L819 393L809 334L805 324V315L795 283L793
246L784 223V205L778 182L772 135L752 53L754 39L748 27L752 10L733 -10L719 -12H657L643 -10H545L541 12L553 76L557 84L582 193V201L588 219L598 297L618 387L598 389L565 385L557 387L502 389L461 385L420 391L410 334L406 324V315L395 283L393 246L385 223V205L379
182L373 135L352 53L354 39L348 27L352 10L334 -10L319 -12H258L244 -10H145L141 12L154 76L158 84L182 193V201L188 219L199 297L219 389H215L160 387L135 395L102 393L82 395L63 412L66 426L63 449V506Q61 506 61 514L66 535Q66 541 68 543Q68 545 69 550T72
559L90 573H127L174 569L201 571H256L276 664V680L283 725H209L184 731L152 729L131 731L113 748L115 764L113 784V842Q111 844 111 852L115 872Q115 877 117 881Q120 893 121 895L139 911H176L223 907H322L328 930L332 967L346 1004L350 1042L360 1083L358 1094L373
1165L381 1188L391 1239L401 1262L410 1309L432 1325L449 1323L473 1325H537Q541 1327 547 1327T559 1325Q575 1325 596 1317L608 1300L602 1268L590 1225L586 1202L565 1114L561 1083L549 1059L524 909H666L715 905H721L727 930L731 967L745 1004L750 1042L760
1083L758 1094L772 1165L780 1188L791 1239L801 1262L809 1309L831 1325L848 1323L872 1325H936Q940 1327 946 1327T958 1325Q974 1325 995 1317L1008 1300L1001 1268L989 1225L985 1202L965 1114L961 1083L950 1059L924 911L1022 913L1073 909L1090 913L1104 911L1120
915L1143 903L1147 893V838ZM682 725L647 727L614 723L606 725L551 727L510 723L485 727L479 700L461 571H616L653 567L676 664V680L682 725Z" />
<glyph unicode="$" glyph-name="dollar" horiz-adv-x="794" d="M520 -14L481 -25V-98L485 -117L481 -131L487 -154L477 -176L461 -182H418L401 -178H350L326 -176L319 -150V-29Q283 -26 262 -12L201 14Q163 43 133 76L117 104L90 164Q76 195 66 276L61 307L68
414Q71 444 117 444H219L246 449L313 438L326 403L324 352Q324 346 326 342Q326 341 327 332T328 315Q334 244 349 215T397 186Q431 186 453 210T475 272Q475 328 432 414L440 432Q427 435 416 446L420 467Q395 478 379 490T322 543Q318 546 311 554T299 565L270
592L281 604H276L270 606H260L252 608L244 616L188 688Q143 751 113 823Q72 922 72 967Q72 984 78 1004L70 1012V1098L76 1128L100 1200Q120 1257 181 1301T311 1354H313V1399L317 1427V1487L338 1509L350 1505L362 1509L412 1507L422 1509Q426 1511 430 1511H432Q436
1511 439 1510L442 1509L465 1499Q468 1499 471 1493Q477 1484 477 1479V1358Q528 1347 571 1321Q631 1282 666 1231Q692 1191 712 1111T733 971L731 948Q729 932 727 930L725 918L723 909L698 891L649 893H608H573H565L528 901L496 911L477 950L471 1077Q471 1108
428 1139L401 1149Q364 1148 343 1122T322 1055V1016Q322 979 351 912T416 801L463 739Q465 736 474 727T497 702T524 674L555 645L606 582Q621 555 631 543Q634 541 643 524Q654 509 666 487H668L657 467Q667 461 680 451L690 432Q691 430 702 406Q719 360 719
358Q725 343 725 309V233L713 209V203Q713 178 666 94Q636 37 578 10L520 -14Z" />
<glyph unicode="%" glyph-name="percent" horiz-adv-x="1280" d="M512 1071L510 991L508 983V926L510 893L508 874V778Q508 747 496 725Q481 692 440 643Q392 617 363 610T283 602Q200 602 152 629Q116 647 89 687T61 760V1190Q61 1212 82 1243T131 1296Q201 1348
281 1348Q386 1348 449 1292T512 1141V1071ZM1217 463L1214 383L1212 375V317L1214 285L1212 266V170Q1212 139 1200 117Q1187 85 1145 35Q1096 9 1067 2T985 -6Q907 -6 856 20Q821 39 794 79T766 152V582Q766 603 787 634T836 688Q904 739 985 739Q1091 739 1154
683T1217 532V463ZM961 1303L950 1270L932 1227L915 1178L887 1118L815 924L803 899L801 881L762 788L750 750L727 709L659 512L649 492L631 442L629 428L618 416L584 322L569 291L559 254L545 229L543 213L532 190L483 47L477 37L473 18L459 0L442 -4H391L375
-2H322L299 0L301 23L371 211L381 229L412 328L424 346L483 506H481L522 610L551 670V686L575 743L580 764L614 848L623 877L629 885L664 971L682 1008L692 1047L709 1085L711 1096L766 1241L778 1262L797 1311L823 1329L834 1325L854 1329L899 1327L913 1329H932L956
1319L961 1303ZM1036 393L1034 408V446L1036 465V518Q1036 544 1028 557T999 578Q946 574 946 526L948 508V455L950 446L952 403L950 385V346L948 328V199Q948 177 961 162T995 147H1001Q1021 157 1027 168T1034 207V362L1036 393ZM332 1001L330 1016V1055L332
1073V1126Q332 1152 324 1165T295 1186Q242 1183 242 1135L244 1116V1063L246 1055L248 1012L246 993V954L244 936V807Q244 785 257 771T291 756H297Q317 765 323 776T330 815V971L332 1001Z" />
<glyph unicode="&amp;" glyph-name="ampersand" horiz-adv-x="1095" d="M1075 29L1049 6L1006 -8L985 -23L961 -27L946 -18L932 -27H872Q819 -27 756 -10Q731 -2 670 25L647 33Q571 -4 524 -16T406 -29H381L334 -23Q286 -16 225 15T135 80Q111 107 90 160Q61 239
61 285Q61 325 83 395T133 514Q164 571 236 645L231 655Q226 677 219 694Q205 789 203 819V842Q199 916 199 942Q199 1056 221 1133Q242 1197 287 1262Q324 1317 363 1340T457 1364Q548 1364 612 1305Q659 1266 670 1221Q688 1163 688 1096Q688 1035 667 955T612
803Q606 789 575 745Q573 743 569 735L565 729Q553 709 547 700L522 664V662L520 657L516 653L500 629L506 604L512 586L520 571L522 561L555 506L557 500L561 492Q561 491 565 483Q570 467 575 461L596 418L598 414L633 354Q655 386 678 440Q699 492 717 553L725
578L745 672H748Q760 682 778 682H864Q865 682 879 678Q899 671 899 657V655L895 635V612L879 510Q868 457 834 354Q810 285 801 264T770 213Q773 194 801 181T870 168Q934 168 1008 201Q1026 195 1028 180V176Q1029 175 1036 158Q1054 123 1075 29ZM512 1133V1151Q512
1170 506 1180T483 1198Q433 1195 416 1128L410 1102L403 1061L399 1006V930Q399 911 412 881Q418 870 422 870H424Q466 917 494 1044L512 1133ZM459 199Q455 204 450 210T442 219Q395 279 356 344L348 358L334 319Q330 307 330 299Q330 253 357 225T430 193L459
199Z" />
<glyph unicode="&apos;" glyph-name="quotesingle" horiz-adv-x="274" d="M207 1436L205 1372L197 1286V1223L199 1196L203 1178L195 1159L186 1155H150L137 1157H100L80 1159L74 1182L68 1260V1294L61 1358V1407L63 1427V1477L78 1495L90 1491L106 1495L145 1493L156
1495H170L197 1485L205 1468L207 1436Z" />
<glyph unicode="(" glyph-name="parenleft" horiz-adv-x="442" d="M379 1440L354 1151Q326 1149 311 1117T295 1024V764L309 637V317L305 266L311 174V68Q311 -17 367 -53V-350Q113 -338 113 100V190L106 246V883L102 936V1051L106 1102Q119 1255 184 1347T344 1440H379Z" />
<glyph unicode=")" glyph-name="parenright" horiz-adv-x="442" d="M381 936L371 883V100Q371 -117 308 -230T123 -350V-53Q172 -15 172 68V174L178 266L174 317L180 410V731L184 764V1024Q184 1083 170 1116T129 1151L104 1440H139Q234 1440 299 1348T377 1102L381
1051V936Z" />
<glyph unicode="*" glyph-name="asterisk" horiz-adv-x="804" d="M782 1032L766 1022L733 1008L686 997L596 971L526 946L535 932L559 911L682 754L684 731L672 727L659 715L627 696L621 690L608 682L582 676L563 684L541 709L514 745L406 877L393 864L377 838L297
739L281 723L250 684L225 676L219 686L203 690L184 707L152 725L135 745L139 764L160 791L190 823L285 946L270 952L236 958L109 995L86 1004L35 1020L20 1038L27 1047L29 1061L39 1081L43 1096V1104L47 1116L66 1135L86 1137L121 1130L188 1106L338 1067L334 1108V1229L336
1251V1298L350 1317L362 1315L379 1317H418H428H442L469 1309L477 1292L479 1260V1069L496 1073L528 1085L655 1124L711 1137L731 1145L756 1137L754 1126L764 1114L782 1059V1032Z" />
<glyph unicode="+" glyph-name="plus" horiz-adv-x="1056" d="M618 412L612 373V369L610 346V127Q610 94 596 80H580L565 76L541 80L506 76L459 80Q438 83 438 123V451H434L424 446L412 444Q406 442 399 442Q393 442 387 444Q381 444 375 446H365L358 449H356L332
442L299 451H119Q81 451 66 463V477L61 489L66 512L61 543L66 586Q69 604 115 604H440V729L446 748L442 782V909Q442 935 467 938L500 944L551 938H586Q610 938 610 889V844L612 821V602H758L778 598L817 600H956Q986 600 989 580L995 549L989 504V471Q989 451
934 451H885L860 449H610V436Q618 422 618 412Z" />
<glyph unicode="," glyph-name="comma" horiz-adv-x="503" d="M442 270Q420 209 399 166Q246 -160 236 -190Q232 -199 225 -201Q217 -205 158 -205L133 -203H70L61 -193Q69 -171 72 -166Q75 -160 78 -147Q87 -122 94 -96V-94Q97 -83 111 -59Q119 -46 131 -20L139
0Q143 4 143 6L154 37L166 49L164 63Q188 101 207 143L238 211Q255 252 266 268L268 270Q274 276 305 279H426L442 270Z" />
<glyph unicode="-" glyph-name="hyphen" horiz-adv-x="743" d="M684 557L680 492V446Q680 414 643 414H610H594H379H352H309Q301 409 287 406L270 410L264 412Q262 412 261 413T258 414L242 406L219 414H100Q63 414 63 434V455L61 473L63 506V610Q63 635 96 635H211L272
639L350 635H526L539 627L565 633H659Q664 633 670 627Q678 619 680 598L684 557Z" />
<glyph unicode="." glyph-name="period" horiz-adv-x="403" d="M342 8Q328 -1 316 -3T268 -6L240 -4H164L160 -5Q156 -6 152 -6H109Q66 -6 66 23L68 25V180L66 184V244Q66 260 78 272L115 279H137L170 274L201 281L254 276H313Q328 276 333 273T338 258V193L342 147V8Z" />
<glyph unicode="/" glyph-name="slash" horiz-adv-x="907" d="M887 1309L872 1264L848 1210L827 1149L793 1073L768 999L719 887L709 856L680 793L674 770L649 707L625 653L610 602L545 449L494 301L479 274L455 211L451 193L375 18L360 -31L344 -61L340 -82L330
-113L266 -274L262 -293L252 -307L250 -332L229 -354L207 -358H141L121 -356H51L20 -354L23 -326L111 -100L113 -86L127 -63L158 33L262 289L260 293L311 424L350 500V520L381 594L389 618L434 727L444 764L455 772L496 885L520 932L535 981L555 1030L559 1044L633
1227L647 1255L659 1294L670 1317L705 1339L719 1335L748 1339L807 1337L823 1339H848L879 1329V1327Q887 1319 887 1311V1309Z" />
<glyph unicode="0" glyph-name="zero" horiz-adv-x="798" d="M74 1153L78 1167Q84 1182 88 1188Q97 1207 123 1249Q147 1296 229 1333Q279 1356 328 1356H436Q453 1356 477 1348Q556 1319 604 1288Q617 1278 621 1272L623 1268L651 1241Q653 1238 656 1234Q659
1232 659 1231Q663 1227 678 1192Q680 1189 686 1176T696 1153L711 1100Q711 1099 712 1097T713 1092L711 1087V1022L727 866L723 856L731 834L727 827V807L715 788L729 770H715L731 707L723 705L727 662V643L735 631L727 621L731 604L723 573L731 524L721 510L717
469L735 449L727 428L725 416V383L737 365Q721 350 721 340V330L731 322L725 313L723 293L733 276L721 262L713 195L694 147L684 127V125L678 119Q675 111 672 106Q669 95 666 92L625 43L600 29L594 14L567 8Q551 0 543 0H541Q517 -7 494 -12Q469 -20 461 -20H457L418
-29L383 -31H377Q259 -31 163 44T66 215L70 217V659L66 668L55 936L63 1096L74 1153ZM457 401L455 430L457 459L451 520L457 651L453 674V821L455 852L446 993Q441 1073 428 1098Q422 1110 407 1118T377 1126Q354 1126 340 1113T311 1065L315 1034L311 1004L317
977L311 932V911L324 893L311 868Q313 861 330 840L315 844L319 774L328 758L319 756V727L332 711L319 709V635L328 616L319 612L328 563L315 555V270L319 248Q326 233 342 215Q358 199 379 199Q412 199 433 220T455 274L453 299L457 401Z" />
<glyph unicode="1" glyph-name="one" horiz-adv-x="444" d="M383 463L371 459V385L379 367L371 362L375 315L373 303V111L369 92L371 63L377 29L367 12Q363 3 361 2T350 0L322 -2H188L139 41V322L137 346V487L133 535V719L131 735V915Q129 922 129 928Q127 934
127 940V983Q127 1012 115 1024L96 1020H74Q36 1020 27 1026Q20 1033 20 1069Q20 1114 33 1124L82 1151L117 1176L147 1212Q167 1241 180 1290L190 1323L211 1333H305Q330 1333 339 1324T348 1290L352 1272V1159L356 1130V1038Q356 1028 358 1016V993L362 969V903L369
838L367 813L371 782L362 754L369 727L362 684V664L375 643L362 618Q369 604 381 592L367 596L371 524L379 508L371 506V477L383 463Z" />
<glyph unicode="2" glyph-name="two" horiz-adv-x="802" d="M741 8L713 0H489L420 -4L399 0L377 -4L356 -2H106Q88 16 88 31L86 84L82 90V147L80 168L82 199L86 225Q96 287 135 365Q179 449 244 530Q319 628 332 643Q372 696 420 782Q485 909 485 983L483 1036Q483
1047 473 1077Q464 1090 446 1110L442 1116L440 1118L430 1122L424 1126Q417 1128 414 1133L389 1135H383Q358 1135 341 1116T319 1065L313 1016L324 1001L311 991L315 981L311 954V930L326 918L311 895L317 848L311 809H203Q190 809 186 811H92Q71 811 68 831L63
870V934L61 965V1036Q61 1160 158 1259T377 1358H401L424 1356Q561 1345 639 1260T717 1034V1004L719 985L731 967L717 956L705 874Q700 864 700 858L696 852Q696 846 692 838L690 831V825Q690 822 691 819T692 815V803L684 797L682 770L670 760L666 731L655 729L631
678L641 653H618Q598 623 590 610Q586 606 573 592Q569 584 569 584L537 545Q531 543 528 530L492 473L465 440Q464 438 463 436T458 429T453 420L391 305L377 272Q369 256 360 229L362 213H621L651 215H715Q727 215 732 209T741 182L739 166L741 141V8Z" />
<glyph unicode="3" glyph-name="three" horiz-adv-x="802" d="M741 256L727 238L733 213Q731 211 727 211Q721 205 721 199L719 190Q717 186 717 170L702 137L680 106Q674 97 643 63Q635 55 627 45H625Q602 28 598 27L547 -4Q498 -31 387 -31Q237 -31 152 45Q110
80 91 134T66 285L63 315V397Q63 434 71 442T117 453L238 451L272 453L295 446Q298 423 309 326L313 272Q316 234 341 205T397 176Q415 176 440 193L446 205Q451 215 453 217L459 229V332L457 338V440Q457 488 418 518Q414 521 409 524Q406 525 406 526Q402 530
397 534T389 540T385 543L365 551L346 549L317 561L276 557Q250 569 250 592V770L311 772Q363 773 398 791T467 850V1042L465 1069Q463 1079 455 1096T438 1124Q432 1133 420 1133H401Q372 1133 354 1118T334 1077L332 1028L330 1022V983L328 969L334 954L326 905L332
889L334 874Q332 858 326 852Q321 844 295 844L285 846H213L195 850H106Q67 850 61 862V1042Q61 1075 73 1123T102 1206Q137 1271 207 1313Q267 1348 338 1354L369 1358H412Q465 1358 526 1335Q596 1311 627 1286Q669 1251 692 1206Q725 1148 729 1104V1040L727
1020L731 1004L727 983L735 926Q733 919 731 907T727 893L735 874L727 868Q726 866 725 862T723 856Q722 855 721 853T719 850V848Q698 795 676 750Q655 717 635 696L621 682L592 662L594 659L612 641Q616 638 621 634T629 629L649 616L680 584Q687 577 694 563Q700
554 700 551L727 465L729 451V276L741 256Z" />
<glyph unicode="4" glyph-name="four" horiz-adv-x="923" d="M862 446L860 317L836 309H743Q713 309 713 291V248L705 205L711 35V29Q711 13 708 8T694 2L537 -6Q523 -6 496 6L471 16V270Q471 294 459 303H287L238 301H131Q72 301 66 305Q61 309 61 336L63 381L61
414V481Q62 484 64 488T68 494Q78 521 84 530L444 1243Q446 1246 449 1251T457 1267T467 1286L485 1319L510 1325L561 1323L666 1327H672Q692 1327 699 1318T707 1282V1276L700 1255L709 1108L702 1047V963L707 932V907L702 887V864L707 831V760L709 750V711L713
702L709 657L711 639L709 604L715 592L711 561L707 551L715 524L711 504L766 500H831L860 487L862 446ZM471 516L473 571L467 717L469 741L467 764L469 786V893L463 991L446 963L432 958L418 911L401 879L410 877L408 868L397 862Q393 861 392 858L391 856L385
850Q379 844 375 838Q373 834 373 815V801L358 788L369 776H344L348 754L334 752L315 717L313 690L309 676L315 672Q305 655 291 627L285 643L279 637L281 623L270 600L266 584L211 512L215 498H432Q471 498 471 516Z" />
<glyph unicode="5" glyph-name="five" horiz-adv-x="796" d="M735 596L733 584V561L727 467V358L731 324V307Q729 291 729 264V244Q729 210 724 185T711 146T686 100Q658 49 587 8T451 -33H371L307 -20H293Q255 -20 197 23Q132 67 97 126T61 250V385Q61 407 69
413T102 420L111 418H266L270 414Q280 409 283 377Q297 244 322 205Q337 176 385 176Q429 176 465 211T502 289V297L498 324V399L500 426V610Q500 735 487 760Q480 774 461 791Q433 811 416 811Q396 811 379 797L358 780Q353 775 344 760Q343 760 340 756Q336 750
332 745L326 733L324 731Q322 727 322 717L319 709V688L322 674V649L317 627L287 623L244 621L229 616L215 621H178L162 616H131L68 627V739L74 819V1051L76 1057L74 1071V1145L76 1174V1321L98 1341L174 1335H207H432L473 1333H713Q733 1333 733 1298V1292L731
1280Q730 1279 727 1262L731 1233V1143L721 1120H719Q715 1118 702 1118Q696 1116 688 1116H670L657 1114Q650 1115 643 1116T630 1117T621 1118Q612 1118 608 1116H594L569 1122H444L430 1118L416 1122H383V1116L371 1124L338 1120L332 1110V1004L328 975V930L334
901Q326 885 326 866Q326 860 328 856Q375 931 417 961T516 991Q558 991 596 976T657 934Q677 912 698 872Q727 822 727 797V776L733 768V696L731 684L733 649V606L735 596Z" />
<glyph unicode="6" glyph-name="six" horiz-adv-x="780" d="M719 905Q719 895 713 877L670 872H465L467 922L469 930L467 967L471 1047V1053Q471 1089 451 1111T397 1133Q361 1133 335 1109T305 1051L313 872L311 850L313 834V733L317 729L348 750Q403 787 424
797T465 809L498 811H506Q584 811 648 754T713 627V618Q713 569 715 559L713 553V446L711 438L715 381V336L711 328V205Q687 141 670 109T625 47Q539 -37 418 -37Q412 -37 410 -35H334L309 -31Q284 -28 219 10Q216 12 193 29Q157 62 154 70L104 156Q90 176 90 193Q88
201 88 211Q88 227 82 227H76V256Q76 261 70 264L61 270Q66 276 66 285V291L70 303V381L76 397L63 410H74L76 416L74 440L76 457L68 514L76 528L68 584L74 594L72 635L66 643L76 666L74 707L78 733Q78 739 76 745L74 795L76 801L74 823L76 866L70 936L74 952L72
991L78 1034V1040Q78 1050 90 1102Q103 1157 117 1188Q129 1216 174 1266Q250 1352 373 1358H379L453 1354Q504 1353 536 1344T602 1313Q654 1278 682 1233Q682 1232 688 1223T696 1206Q710 1179 713 1167Q716 1158 719 1104V1071Q717 1061 717 1055L719 1032V905ZM473
248L469 594Q469 647 459 665T410 696Q351 693 319 631L317 612V567L322 545L317 512L324 485L315 467L317 449L313 434L317 385L313 354V297Q313 261 322 227Q342 199 353 191T391 178Q437 187 455 202T473 248Z" />
<glyph unicode="7" glyph-name="seven" horiz-adv-x="675" d="M655 1157Q655 1142 649 1126L643 1110Q636 1093 606 1059Q592 1038 571 1010Q559 991 551 975Q539 947 539 926L524 899L516 877Q515 874 498 844V823L473 784L477 748L467 743L459 700L444 688Q429
634 426 612L424 594L418 584L416 537L412 524L406 514L401 461L385 371V301L381 258V129L387 47V10L381 0H201Q160 0 154 2Q149 4 143 10V20L135 37L143 201V209Q147 221 147 236L150 266Q150 267 150 269Q152 277 152 285Q153 289 154 297T156 311Q157 319 158
327T159 339T160 346Q160 351 170 406L174 422L209 565Q212 582 223 606T244 659Q267 719 274 731Q274 732 277 735Q281 741 283 745L330 834L416 958L492 1051Q508 1071 516 1079Q543 1106 543 1114L539 1118H463L455 1122H381L369 1124L350 1122L317 1126H266L244
1124H213L156 1128H61Q34 1128 27 1133Q20 1137 20 1184V1315L31 1335H96L127 1333H272L326 1329H637L649 1311L655 1280V1157Z" />
<glyph unicode="8" glyph-name="eight" horiz-adv-x="786" d="M725 459L721 436V246L719 211V207Q719 184 698 127L694 113Q648 51 602 25Q513 -33 403 -33H334Q310 -33 272 -16Q192 10 170 29Q131 59 104 109T72 207V391Q72 494 82 512L84 518Q85 519 88 524T96
535Q96 557 127 590Q128 590 130 592Q134 596 137 598Q163 626 164 627Q166 629 174 641Q115 693 91 734T66 821L61 838V1110Q61 1184 129 1255Q170 1298 229 1327T338 1360L371 1362L414 1360L459 1354L492 1346Q549 1329 602 1289T678 1206L686 1190Q708 1145
713 1100L715 1085Q721 1076 721 1073Q721 1061 715 1055L721 1032L719 1001L721 973L719 950V887Q719 842 709 801L715 786L702 778L688 737L678 719L643 690Q638 688 616 655L614 653L649 618L684 578Q696 560 707 532Q710 519 715 512Q721 500 721 489V473L725
459ZM465 268L463 276V403Q463 559 401 559H395L367 555L350 545L319 492V248Q319 221 350 193Q369 172 395 172Q427 172 446 198T465 268ZM463 838L461 862V1030Q461 1044 453 1063Q449 1075 449 1079Q445 1091 432 1108T408 1128Q403 1128 403 1130H399L385 1133H383Q361
1133 344 1112T326 1061L322 1016Q321 1012 320 1008T317 1001L322 889L326 874L322 860L328 797L330 793Q341 773 354 762Q363 758 367 754Q382 745 395 745Q426 745 444 770T463 838Z" />
<glyph unicode="9" glyph-name="nine" horiz-adv-x="786" d="M725 352L717 315L721 285V270Q721 214 700 170L686 139Q680 133 680 119L655 102V86Q600 37 563 12Q528 -8 503 -16T434 -31Q402 -35 391 -35H358Q234 -35 148 33T61 203V317L63 340V408L72 426L90
440H176L207 438Q213 438 220 437L227 436Q232 436 236 428T244 420Q249 420 268 436H279Q289 436 317 432H319V276Q319 274 326 250Q349 198 352 195Q369 176 408 176Q420 176 426 180Q449 190 466 214T483 264L475 342V616L463 614L434 575L354 526Q341 524 335
523T326 520T322 519T312 517T289 514H268Q248 514 242 516Q238 516 199 530Q195 534 182 539L162 547Q126 582 111 600T86 643Q66 684 66 733V1042L63 1059Q61 1067 61 1083Q61 1183 146 1265T342 1354L381 1356Q481 1356 526 1335Q529 1334 539 1329Q547 1325
551 1321L612 1280L639 1249Q671 1211 692 1158T717 1059V608L721 584L717 489L721 442V362L725 352ZM469 707V727L463 813V1001L457 1051V1079Q457 1105 435 1126T385 1147Q348 1147 329 1119T309 1040V895L311 860V690Q311 663 338 639Q352 625 373 625Q395 625
410 633Q434 643 451 665T469 707Z" />
<glyph unicode=":" glyph-name="colon" horiz-adv-x="407" d="M346 678Q324 666 272 666L244 668H168L164 667Q160 666 156 666H113Q70 666 70 692L72 694V852L70 856V913Q70 929 82 944L119 948H141L174 946L205 950L258 948H317Q332 948 337 945T342 930V862L346
819V678ZM342 117Q328 107 316 105T268 102L240 104H164L160 103Q156 102 152 102H109Q66 102 66 131L68 133V289L66 293V352Q66 369 78 381L115 387H137L170 383L201 389L254 385H313Q328 385 333 382T338 367V301L342 256V117Z" />
<glyph unicode=";" glyph-name="semicolon" horiz-adv-x="550" d="M442 475Q420 414 399 371Q246 45 236 14Q232 6 225 4Q217 0 158 0L133 2H70L61 12Q69 34 72 39Q75 45 78 57Q87 83 94 109V111Q97 123 111 145Q117 156 131 184Q135 193 139 205Q143 209 143
211L154 242L166 254L164 266Q189 309 207 348L238 414Q255 456 266 473L268 475Q274 481 305 483H426L442 475ZM492 678Q469 666 418 666L389 668H313Q312 668 308 667T301 666H258Q215 666 215 692L217 694V852L215 856V913Q215 929 227 944L264 948H287L319
946L350 950L403 948H463Q478 948 482 945T487 930V862L492 819V678Z" />
<glyph unicode="&lt;" glyph-name="less" horiz-adv-x="698" d="M635 18L621 6Q612 9 596 20Q579 31 569 33Q534 49 508 57L504 59Q420 113 389 137L352 156L338 172H319Q287 200 250 225L145 291Q83 332 76 338Q68 343 68 381V420L61 473L72 530L63 598L68 623V643Q68
692 72 700Q85 720 242 813L254 819L275 834Q296 850 307 858L313 864Q314 864 315 865T319 868H338L352 889L389 901Q392 915 479 969L504 985Q529 991 569 1012Q578 1012 596 1022Q605 1029 621 1038L635 1024V778Q635 776 631 768Q631 763 621 756Q580 732 522
694Q435 637 248 524L362 453Q433 410 580 311L621 285Q625 285 629 281L633 274L635 266V18Z" />
<glyph unicode="=" glyph-name="equal" horiz-adv-x="745" d="M684 721L680 674V643Q680 621 643 621H610L594 618H379L352 621H309Q305 618 287 614Q279 616 264 616L260 618H258L242 614L219 621H100Q79 621 63 635V649L61 662L63 684L61 715L63 758Q63 765
72 770T96 776H233L272 778L350 774H526L539 768L565 772H662Q677 772 680 750L684 721ZM684 395L680 348V317Q680 295 643 295H610L594 293H379L352 295H309Q301 290 287 287Q271 291 264 291L260 293H258L242 287L219 295H100Q81 295 63 307V322L61 336L63 358L61
389L63 432Q63 440 73 445T96 451H233H272L350 449H526L539 442L565 446H662Q676 446 680 424L684 395Z" />
<glyph unicode="&gt;" glyph-name="greater" horiz-adv-x="698" d="M637 473L631 420V399Q631 360 627 344Q621 333 582 309L449 225Q415 204 379 172H360L346 156L309 137Q284 117 195 59L190 57Q168 51 129 33H127Q115 29 102 20Q91 11 78 6L63 18V266Q66 270
66 274Q68 282 78 285L119 311Q298 430 336 453L451 524L78 756Q71 761 66 768Q66 770 65 773T63 778V1024L78 1038Q94 1028 102 1022Q121 1012 129 1012Q172 990 195 985L219 969Q272 936 289 923T309 901L346 889L360 868H379L385 864L391 858Q437 825 475 801L553
752Q571 741 587 731T612 714T623 707Q631 700 631 670V623L635 598L627 530L637 473Z" />
<glyph unicode="?" glyph-name="question" horiz-adv-x="671" d="M651 1104Q635 1052 635 1016L627 1004Q612 955 588 909Q572 876 555 854Q554 852 552 849T543 837T532 821Q460 722 457 678L444 653Q439 621 436 580L432 518Q432 514 431 508T430 500V444L424
373L418 358H266Q248 358 242 365V375Q242 383 240 391V408L233 422L236 463Q236 465 235 471T233 486T231 504Q227 528 227 555Q224 608 221 627Q221 629 221 631T219 639T217 649V653Q217 668 218 688T219 715Q222 735 231 764Q245 804 259 827T326 918Q389 999
389 1075Q389 1103 373 1122T334 1141Q324 1141 315 1139H305Q286 1136 276 1116Q254 1088 254 1069V1020L260 1006Q276 973 276 954V948H172L98 944L82 946Q20 982 20 1096Q20 1209 108 1288T322 1368Q463 1368 549 1301T643 1118L651 1104ZM457 55L455 14L449
0L426 -10L412 -4H209V248L289 256L307 248H332H442L457 236V55Z" />
<glyph unicode="@" glyph-name="at" horiz-adv-x="1837" d="M1810 506L1808 489Q1771 342 1714 260L1694 229Q1675 200 1669 190Q1649 151 1633 134T1579 94L1450 27L1339 0H1266Q1260 -4 1247 -4Q1235 -4 1225 -2Q1204 0 1167 0H1116Q1066 0 1041 11T995 55Q983
59 981 59Q971 59 934 45Q923 40 893 20L879 12Q857 5 848 0Q826 -6 817 -10H815Q813 -10 811 -10T803 -12T793 -14Q778 -17 770 -20L754 -23H750L692 -20Q679 -15 653 -12Q595 17 542 70T471 170L442 244L440 287L430 354L436 436Q441 519 451 590Q457 637 477
672L565 811Q609 877 651 912T756 967Q835 993 934 993Q1039 993 1102 944L1124 999L1147 1022L1157 1018L1180 1022L1229 1020L1239 1022H1249H1260L1270 1020L1278 1016Q1298 1006 1298 989L1296 948L1288 893L1257 760L1255 705L1253 690L1249 680L1239 569L1235
551L1237 543L1227 537L1221 475L1227 467L1217 440L1219 426L1214 387L1204 340H1202Q1200 319 1200 287Q1200 212 1247 154L1303 160H1376L1481 199Q1495 205 1513 227T1540 272Q1564 284 1572 295T1587 332Q1591 356 1606 373L1673 563L1651 696L1614 788L1602
836Q1582 905 1548 944L1475 1022Q1427 1076 1306 1126T1055 1198L940 1219L772 1192Q664 1178 565 1130Q504 1100 438 1051T342 965L227 817Q217 804 178 702Q174 690 174 688L152 489L174 285Q224 172 258 119Q274 89 291 66Q308 44 319 33T365 -4Q367 -6 376
-13T393 -29Q417 -49 516 -121Q537 -134 586 -156L659 -180Q713 -194 786 -205Q852 -213 870 -213H1010L1096 -197Q1112 -201 1116 -201Q1134 -201 1182 -182Q1245 -162 1294 -156Q1310 -177 1317 -205Q1321 -222 1343 -250Q1352 -261 1356 -268Q1289 -276 1219
-301Q1166 -319 1139 -319Q1130 -319 1120 -317L1022 -332H932Q798 -332 709 -318T524 -268Q516 -265 502 -259T483 -250Q416 -213 301 -117Q294 -110 282 -101T266 -88L229 -59Q215 -49 184 -10L143 47Q97 124 43 250L18 489L43 719Q43 720 51 750Q66 788 102
866L106 872L240 1042Q318 1144 457 1219T743 1313L940 1335L1073 1317Q1208 1301 1356 1241Q1430 1212 1463 1192T1546 1128Q1551 1124 1555 1120T1562 1114T1569 1108T1577 1098Q1631 1041 1632 1040Q1701 959 1722 891L1741 834L1782 727L1806 573V516Q1810
516 1810 506ZM1020 682V745Q982 774 924 774Q813 774 756 727Q734 707 709 672Q670 617 659 575L655 555L635 362L637 338Q645 315 648 306T657 286T665 272T678 256T698 231Q741 196 760 186Q770 186 782 182L815 180H817Q823 180 829 182Q842 184 854 188L872
195L889 207Q891 209 899 212T911 217H913L967 266L977 367L981 381L985 418L983 432L993 457L987 465L993 524L1004 528L1001 537L1014 659L1020 682Z" />
<glyph unicode="A" glyph-name="A" horiz-adv-x="821" d="M760 2Q760 -12 739 -12H737L674 -10H580Q546 -10 510 2L500 68Q499 69 487 88V121L481 137Q479 144 477 156T473 174Q473 181 469 195Q469 205 467 209V211L459 250L449 254L451 231V205L334 209L317
203V188Q317 178 311 147Q305 131 301 98V94Q297 37 290 20T260 -6H203L180 -8H176Q170 -8 166 -6Q144 -1 96 2L86 4H72L63 6H61V39L63 49V76L76 168L90 229Q88 238 88 248V254Q98 356 121 473Q123 485 127 508T133 539Q138 552 141 582Q141 597 150 655L160 698V711L182
838V856L190 893L209 1044L223 1059L219 1083L262 1118L246 1122Q229 1125 229 1145Q229 1157 236 1178Q241 1199 248 1243L252 1280Q257 1310 266 1321T295 1333H297L348 1331L373 1333L408 1331L428 1333L547 1329L557 1323Q573 1287 573 1243Q575 1237 575 1231L586
1192L584 1182Q588 1175 592 1157L600 1075L604 1057V1026L612 1014L600 989L709 328Q713 310 713 309L715 303L756 49L760 2ZM455 285L444 375L438 387L436 393L432 401Q432 409 431 413T430 418Q430 432 436 453L434 471Q434 481 432 492Q431 496 429 501Q428
505 428 506L426 512Q424 514 424 520Q422 524 422 528V532L414 596L403 598L408 616L401 653Q389 617 381 571L367 489Q360 472 360 453Q360 442 367 442H375L371 426L389 432L401 416L422 414L446 285H455Z" />
<glyph unicode="B" glyph-name="B" horiz-adv-x="765" d="M707 1079L705 1038L702 1028V922L700 907L702 885V782Q692 741 670 713Q641 678 592 653Q654 623 678 596T702 524Q702 518 700 514V238Q700 141 626 69T451 -4H332L283 0H276L246 -10H158L125 -8L98
-10H96Q83 -10 73 -2T63 18V45L68 88V422L61 434L66 451L68 487V590L61 608L70 618L66 676V768L68 786V879L66 889L76 911L66 942L72 952V1036L68 1059L72 1108L68 1120L72 1151V1174L68 1221L70 1225L72 1260V1313L90 1325H186L193 1329H385L387 1331L440 1329Q560
1326 612 1288Q649 1261 676 1219T707 1143V1079ZM457 360V403Q455 406 455 412Q453 420 453 428L451 442Q440 549 352 549Q339 549 335 544T328 520V285L324 221Q336 209 352 209Q386 209 430 242L432 248Q453 316 453 326V342L457 360ZM457 948L451 971Q453 985
453 1001Q453 1045 421 1077T346 1110Q324 1110 324 1051L330 971L322 934L324 911L322 864L326 784L332 778L371 776Q404 791 420 807Q434 821 436 829Q439 832 442 856L444 860V870L457 948Z" />
<glyph unicode="C" glyph-name="C" horiz-adv-x="774" d="M713 1128L707 1053L709 1022L705 985V903L698 893H668H633H449L436 905V1047Q436 1071 426 1081Q418 1094 408 1096Q393 1106 387 1106H385L362 1104H356Q347 1104 332 1092Q315 1075 315 1055V958Q315
957 315 952T313 936T311 911L309 893V637L315 616L309 502L311 489V322L315 285V254Q315 216 358 201Q402 204 419 226T436 307Q436 322 434 332V397L436 432L444 451H498L508 449L688 455L698 444L696 428V365L698 356L694 330V238Q694 178 674 137Q660 109 639
86T571 25Q555 16 540 8T514 -6H512Q511 -6 509 -7T504 -8L498 -10Q471 -15 432 -29H412L373 -31L317 -29Q287 -25 256 -12Q188 9 162 29L133 51L117 61Q66 149 66 176Q66 178 67 181T68 188Q61 201 61 227L68 240V315L70 326V461Q70 473 72 479V502L74 512L72
543L74 582L78 596V635L76 649L80 666V805L82 809V1030L84 1044L82 1063L84 1102Q82 1112 82 1122Q82 1182 147 1262Q185 1308 252 1335T395 1362L457 1358H461Q485 1354 498 1350Q579 1322 610 1298Q659 1261 692 1190Q713 1142 713 1130V1128Z" />
<glyph unicode="D" glyph-name="D" horiz-adv-x="780" d="M719 1032L717 1022V897L715 877V776L711 754V487L715 475L711 461L715 426V395L711 358V336L715 311V279Q715 162 641 83T457 4H428L410 -2L356 4L348 0H152L76 4Q70 28 70 37L63 84L66 104L63 147L68
195L66 221L70 311L63 424L61 428V506L63 526V633L61 659L63 684V795L66 799V909L63 930L68 938V995L66 1016L70 1073L68 1114L70 1165L72 1178L68 1208L70 1231V1268Q70 1309 74 1317Q79 1327 137 1327L164 1329H406L408 1331Q507 1328 547 1317Q582 1307 612
1280Q650 1248 680 1194T711 1106L713 1094Q719 1054 719 1038V1032ZM449 1014V1038Q449 1053 444 1059T422 1077Q397 1102 356 1108L344 1110L326 987L330 938L332 934L330 885L326 868L330 776L326 748V463L330 459L326 416V358L330 338V262L328 244Q335 227
358 227Q396 227 420 253T444 322V332L438 342V459L440 487L438 516L440 539V651L446 700L444 735L449 770V1014Z" />
<glyph unicode="E" glyph-name="E" horiz-adv-x="768" d="M707 27Q707 15 696 8Q688 4 686 4H678L647 2L616 4L608 0L588 2H465L428 0H150L66 8L61 37L63 86L61 111V156L63 184V580L66 586V795L70 844V1014L74 1053V1321L100 1335L158 1329H608Q659 1329 694 1321V1317Q698
1293 698 1286V1155L694 1112H623L580 1108H338Q334 1108 332 1106Q322 1103 322 1098L319 1069L315 1051V895L313 866L317 860V774H537V561H313V444L311 418L315 362V266L317 236L332 227H387L416 229L451 227H612L647 229H700L705 147L700 66L707 29V27Z" />
<glyph unicode="F" glyph-name="F" horiz-adv-x="659" d="M657 1149L653 1124Q653 1118 635 1118L596 1120H322L301 1122V1083L305 1034V940L311 930L303 907L311 860L307 840V811L313 772H506Q530 772 535 770Q541 769 542 764T543 741V705L545 684L543 643L547
623V573L532 561H373L305 557L313 471V408L315 373V207L311 137L315 33L305 -4H102L68 8V225L72 248L68 299V360L66 365V414L63 434V834L61 854L63 866V999L61 1024V1264Q61 1317 65 1329T90 1341H92L152 1339L190 1341L270 1335H623Q651 1335 651 1321L653 1270L657
1260V1149Z" />
<glyph unicode="G" glyph-name="G" horiz-adv-x="798" d="M737 45L733 23Q735 16 735 10Q735 -12 707 -12Q671 -12 646 2T586 57L584 55H580Q572 53 551 35Q549 32 546 29T538 21T528 12Q433 -31 367 -31Q247 -31 163 46T78 233V289L76 322L78 369L74 424V676L70
709V768L74 799L68 813V932L61 936V1055Q61 1184 150 1274T367 1364H381Q459 1364 531 1339T641 1274Q709 1200 715 1141L717 1116Q719 1112 719 1106L727 967V911L719 895L664 897L500 891H494Q486 891 478 893Q476 893 475 893Q469 897 469 958V981L463 1061Q463
1076 444 1092Q421 1112 395 1112Q375 1112 358 1096T340 1059L334 1004V852L336 825V754Q336 735 334 715V594Q332 580 332 565L326 524L328 520Q338 483 338 465V442L340 438L328 381L334 326V266Q337 170 393 170Q426 170 450 191T475 240L473 262L479 416L471
438L451 436L401 438L397 446L399 502L397 539L399 561L397 580V608Q397 645 403 649Q406 653 442 653H655L715 657L729 647V580L727 555L729 535V455L731 434L729 414V334L737 205V45Z" />
<glyph unicode="H" glyph-name="H" horiz-adv-x="774" d="M713 27L700 8L647 6L612 8L584 6H506L489 8H457Q449 8 449 35V86L451 104V143L449 162V543Q449 563 430 563H428L406 561H338L319 559V391L322 369V285L319 266L326 137L330 131L326 100V6L283 4L279
2H188L168 6L154 10Q141 14 137 18L129 27Q113 43 84 68Q79 80 76 152L72 258L74 283L70 319V469L72 500V666L63 745V924L66 920V981L61 1049L63 1067V1198L61 1206L63 1217V1323L102 1329H299L309 1313V1096L317 1067L309 924L307 913L311 877V803L317 774H446V954L449
979L446 1001V1208L442 1227L446 1331L475 1337L682 1329L692 1303V1202L696 1182L692 1163V1110L696 1065V881L707 823V297L711 244V201L713 176V27Z" />
<glyph unicode="I" glyph-name="I" horiz-adv-x="372" d="M311 37Q311 -6 242 -6H238L182 -4L125 -6Q100 -6 86 3T72 29L70 82L66 102L68 137L63 199V664L68 723L63 817L68 885V965L70 989V1040Q70 1054 81 1065T106 1077H109L160 1071L174 1077L176 1065L184
1053L211 1055L221 1051V1063L231 1057L227 1042L236 1036L238 1040H246V1036L254 1038L268 1024V1014L244 999L254 989L270 993V983L260 981L270 973L258 969L262 958L270 946V940Q270 935 260 932L266 922Q287 921 294 912T305 874L309 834L303 795L311 748L301
618V592L309 582L307 563L311 506V37ZM305 1130L285 1133L281 1124L268 1126V1118L276 1116V1112L262 1114L252 1102L242 1106L256 1116H203L195 1126L188 1116H174L150 1130L141 1120L121 1133V1122L100 1124Q85 1125 80 1131T74 1149V1151L80 1188L82 1221L72
1231L76 1249V1298Q76 1309 87 1317T113 1325H115L141 1319H143Q159 1329 172 1329H231V1317Q238 1315 238 1309V1305L236 1298V1294L246 1292Q240 1301 240 1305Q240 1315 256 1315Q262 1315 270 1311Q276 1305 276 1303Q276 1296 260 1296V1284L276 1296L279
1286Q299 1284 299 1280Q299 1275 276 1272V1262H287V1245L289 1243Q299 1223 299 1214Q299 1204 276 1204H274V1192L281 1182L287 1188H297L295 1171L303 1167L301 1151L295 1139L305 1130Z" />
<glyph unicode="J" glyph-name="J" horiz-adv-x="724" d="M664 537L659 520V457L662 434V207Q662 112 569 42T350 -29Q284 -29 218 -3T113 66L78 104Q41 147 25 213Q23 221 23 229Q20 238 20 324V389Q20 431 31 441T88 451H152L211 449L246 451Q270 451 270 432L274
367L279 342L287 248Q288 225 304 209T340 193Q363 193 406 227Q422 270 422 313V322L420 356V569L418 578L416 612V666L406 776L410 797L406 825V1028L408 1044L406 1061V1128L403 1151V1241Q401 1249 401 1257L403 1313Q403 1335 434 1335H600Q620 1335 641 1329V1292L651
1161V868L659 793V547L664 537Z" />
<glyph unicode="K" glyph-name="K" horiz-adv-x="745" d="M684 25Q684 12 675 7T639 2H563Q511 2 455 10Q451 18 451 18Q450 20 448 24T446 29Q417 122 414 154L412 170Q410 199 365 352Q357 373 330 477L317 500L309 446L317 283L313 252V150L309 119V92Q311
80 311 57Q311 37 303 12L281 8H127L88 14L74 27L76 61V676L74 682L76 694V799L74 821V928L70 950V977L74 997L70 1018L68 1042L74 1061L66 1079V1178L63 1182V1202L61 1206V1257Q61 1311 63 1317L68 1321Q72 1325 74 1325L166 1329L221 1327L262 1329H266Q289
1329 295 1321T301 1280V1235L303 1231V1067L309 1030V948L313 913V844L307 778L408 1167V1169Q408 1211 418 1231L426 1251Q429 1278 444 1329L479 1335H664Q682 1335 682 1303Q682 1269 659 1200Q655 1146 614 971Q591 872 586 838L582 817V815L578 799Q576 797
575 791T573 782Q560 715 555 698L551 686Q545 680 545 664Q545 655 547 655L551 635L561 604L571 565Q571 561 573 557Q573 555 574 551T575 543L578 537Q578 533 584 506Q585 503 586 498T588 485T592 469Q596 444 602 420L616 358Q616 354 618 350Q618 347 620
338T623 322L631 287Q631 286 639 250Q684 74 684 25Z" />
<glyph unicode="L" glyph-name="L" horiz-adv-x="784" d="M721 59L723 27Q723 11 706 7T631 2H588Q572 2 545 -4H416L344 -10L266 -4H258Q251 -4 215 -8Q209 -8 205 -10H180L152 -12L115 -10Q111 -10 106 -8Q103 -8 103 -6Q101 -3 96 0V2Q96 11 141 16H152Q152
31 137 31H129Q106 33 82 39H78Q72 48 72 68L68 147L72 199L68 217L66 248L68 270V360L66 365V397L70 444L68 475L66 485V633L63 653L66 688L72 698L66 709V842L61 868V926L63 942V1186L66 1206V1331L90 1337H182L209 1335L266 1337Q306 1337 316 1333T326 1311V1288L324
1274V1249L326 1233L324 1225L322 1196V1190L326 1176L324 1169V868Q322 852 322 838L326 811L324 778L326 748L324 709L328 682L322 664L319 651L334 281L332 236L334 219L342 221H676Q705 221 712 212T719 164V90L721 59Z" />
<glyph unicode="M" glyph-name="M" horiz-adv-x="1136" d="M1075 158L1073 49Q1073 20 1071 14Q1067 8 1044 8H1024Q1006 8 985 6H958Q940 4 926 4L872 2Q841 2 835 7T827 37V160L823 193V348L819 399V510L817 522L819 541V563L815 608L819 651L805 637L803 631Q803
630 799 598Q797 589 795 578T792 562T791 553L745 283V266Q745 259 735 211Q724 159 721 141Q708 61 700 39Q698 35 698 31Q696 29 696 23Q693 11 690 8T678 4L649 6H612L569 0H463Q443 0 432 20L340 543Q336 576 315 629L309 612V41L307 27L309 16Q309 9 300
5T262 -4H133L80 2Q66 12 66 27L68 29V125L74 143L68 285L70 317L68 338V618L66 627L68 635L70 672L66 690V842L72 864L66 891L70 997L68 1047L61 1071L68 1081L66 1102V1108L70 1188L68 1208L74 1296Q77 1327 111 1327H115L141 1325H426Q443 1325 449 1315Q453
1279 469 1206L512 1020Q573 754 573 748V745Q575 743 575 739L584 713L600 788L602 795Q604 805 614 870Q616 883 624 922T637 987Q641 1003 641 1006Q649 1052 651 1057Q651 1058 651 1061T653 1069T655 1081Q656 1084 657 1088T660 1101T664 1118L680 1200V1206Q680
1222 692 1272Q701 1307 705 1323L735 1331L754 1327L911 1333L930 1331H1032Q1053 1331 1057 1327Q1061 1324 1067 1309V969L1061 936L1067 844V653L1071 641V416L1067 403L1075 217L1073 178L1075 158Z" />
<glyph unicode="N" glyph-name="N" horiz-adv-x="874" d="M813 6L801 -6L643 -10L621 -8L588 -10H559Q555 -10 555 -8L537 27L328 616L319 629L317 625V436L319 426V84L322 61L319 8Q319 -5 312 -8T279 -12H90Q74 -12 74 6L76 12L68 174V180L72 211L68 242L72
262L68 299V580L72 588L68 641V702L66 707V985L63 1004V1071L61 1096L63 1116V1315Q63 1335 94 1335H98L143 1333H236L242 1335H303L348 1337L358 1331L528 874L532 864Q535 862 539 850H545V901L543 936L541 942V1096L539 1114V1165L537 1171L543 1186L537 1206V1280L532
1298L539 1329L543 1337L557 1339L590 1337H766L784 1335V1186L786 1165V1096L793 1042L786 901L805 430L801 410L807 322V236L809 201V133L813 80V6Z" />
<glyph unicode="O" glyph-name="O" horiz-adv-x="788" d="M727 266Q727 211 699 144T633 39Q596 2 536 -18T408 -39Q247 -39 157 54T66 315V926L61 967V1057L66 1096Q78 1211 162 1283T373 1360L412 1362Q547 1362 631 1285T721 1087Q721 1081 719 1079V1014L721
983V924L719 897L721 874L727 840V266ZM461 330L459 459L461 483L459 524L461 547L457 616V664L459 686V1073Q459 1075 455 1087Q446 1108 438 1114L408 1133L387 1135H383Q355 1135 336 1109T317 1040V834L319 807V598L328 555V289Q328 237 360 211Q380 193 395
193Q402 193 414 199Q446 214 451 223L461 242V330Z" />
<glyph unicode="P" glyph-name="P" horiz-adv-x="722" d="M702 842Q702 710 643 651Q606 613 537 582Q490 563 467 563H332V25Q332 3 315 -2T227 -8H111Q81 -8 75 3T68 66V164L61 174V430L63 451V596L66 614V754L63 774V1124L61 1145V1298Q61 1325 69 1332T109
1339H494Q573 1339 629 1275T692 1114Q698 1111 698 1106Q698 1100 688 1090L700 1077L698 1047L702 1030V842ZM453 987V1010Q453 1051 440 1077Q436 1092 424 1098Q414 1108 401 1114L369 1126L342 1130L330 1126V973L328 948V793L336 784Q401 797 426 813T451
862V870L449 885V961L451 981Q453 985 453 987Z" />
<glyph unicode="Q" glyph-name="Q" horiz-adv-x="806" d="M745 276L733 254L729 178Q729 168 721 152Q707 113 686 84Q656 46 582 0Q551 -20 530 -25T467 -33L453 -47L451 -74V-82Q451 -108 459 -127Q468 -150 485 -178Q500 -201 508 -209L524 -221Q537 -234 537
-240T526 -246L455 -242L442 -244H342Q323 -244 306 -215T279 -141L281 -135Q279 -123 279 -109Q279 -85 287 -49Q293 -43 293 -33Q293 -29 291 -25Q221 -3 178 29Q144 54 116 97T82 172L76 225V231L74 238V248L70 258V532Q70 553 66 565L70 633L66 639V801L63
809V901L61 932V1090Q61 1148 103 1210T207 1305Q219 1312 256 1325Q325 1349 356 1352H426Q482 1352 544 1320T653 1235Q686 1199 725 1130V1110L729 1100L723 1085V1083L733 1038L725 999L741 979L729 958L737 952Q743 949 743 944Q743 935 734 922T725 895V893L737
874L729 862V840L733 803Q727 777 727 758Q727 745 729 741L737 721V713L733 694V532L741 522L737 498Q745 486 745 479Q745 473 741 469L731 453L741 440L725 387L729 373V336L733 324L729 309L731 276H745ZM395 197Q424 197 444 218T469 274L467 301V358L463
367V514L465 549V602L463 635L465 666L459 743V844L453 920L455 952V1022Q455 1124 385 1124Q348 1124 327 1092T305 1004L311 997V754L315 748Q315 743 319 731L311 711L317 700V385L324 350V285Q324 248 360 213Q381 197 395 197Z" />
<glyph unicode="R" glyph-name="R" horiz-adv-x="804" d="M743 4Q743 0 739 -4L727 -8L668 -4L606 -8H563L535 -4H520Q488 -4 465 26T442 100L438 156V371L444 469Q444 513 416 541T342 569H324L317 508V127L319 98V41Q319 37 320 29T322 18Q322 3 313 -2T274
-8H238L205 -6Q111 0 106 2Q105 3 102 4Q94 7 90 10Q81 20 78 32T72 92L70 121L72 139L70 168V389L68 416V465L70 483V520L74 541L68 616V719L66 745V782L68 815L63 846L66 866L63 887V1022L61 1036V1161L63 1184L61 1217V1335L84 1337H393Q518 1337 593 1287T676
1149L678 1124L684 1108V971L688 946V838Q688 774 671 741T600 672Q682 623 688 557L690 535V494L688 469L692 410V223L696 188L692 152Q692 130 700 94Q700 93 711 66L725 41L729 35L735 23Q743 11 743 4ZM438 883L436 915L438 948L436 985L438 1016V1020Q438
1064 411 1093T342 1122H315V1042L311 1038L315 1030V784Q331 774 344 774Q380 774 412 803Q436 827 436 844V877L438 883Z" />
<glyph unicode="S" glyph-name="S" horiz-adv-x="794" d="M733 971Q733 961 723 909L698 891L649 893H608H573H565Q514 905 496 911L477 950L471 1077Q471 1108 428 1139L401 1149Q364 1148 343 1122T322 1055V1016Q322 979 351 912T416 801L463 739Q465 736 474
727T497 702T524 674L555 645Q570 629 581 614T597 591T606 582Q616 561 631 543Q634 541 643 524Q654 509 666 487H668L657 467Q667 461 680 451L690 432Q691 430 702 406Q719 360 719 358Q725 343 725 309V233L713 209V203Q713 178 666 94Q635 35 578 10L514
-16Q500 -22 455 -29L414 -31H365Q294 -31 268 -16L248 -6L201 14Q163 43 133 76L117 104L90 164Q76 195 66 276L61 307L68 414Q71 444 117 444L156 442H219L246 449L313 438L326 403L324 352Q324 346 326 342Q326 341 327 332T328 315Q334 244 349 215T397 186Q431
186 453 210T475 272Q475 328 432 414L440 432Q427 435 416 446L420 467Q395 478 379 490T322 543Q318 546 311 554T299 565L270 592L281 604H276L270 606Q264 607 257 608Q248 609 244 616L188 688Q143 751 113 823Q72 922 72 967Q72 984 78 1004L70 1012V1098L76
1128L100 1200Q109 1223 131 1251T178 1298Q206 1323 240 1335Q267 1347 315 1354L344 1358L408 1362L451 1360Q510 1357 570 1321T666 1231Q692 1191 712 1111T733 971ZM604 471L586 473L551 467L575 457L596 465L604 471Z" />
<glyph unicode="T" glyph-name="T" horiz-adv-x="655" d="M594 1145Q594 1135 584 1124H547L514 1122H463L451 1118V897L449 868V702L444 696V326L449 303V276L442 178V12Q442 -10 424 -10H250Q215 -10 215 10L217 12V147L215 156L217 178V403L215 399V582L217
604L215 627L217 647V801L219 807L217 823V1130H94L66 1135L63 1159V1221L61 1241L63 1294L74 1329Q92 1335 109 1335H111H170H193L256 1331L301 1333L379 1327H543Q551 1329 578 1329L592 1317V1176L590 1161L594 1145Z" />
<glyph unicode="U" glyph-name="U" horiz-adv-x="770" d="M709 1307L702 909L698 887V864L702 803L698 778V737L694 696V229Q694 188 674 135T627 55Q593 21 536 -3T428 -29H371L342 -27Q251 -11 199 20Q152 48 113 102T66 205L61 229L63 258V377L70 387V745L76
825V1317L86 1333L115 1335H272H291H315Q328 1335 328 1317Q328 1296 326 1274L324 1243L326 1208V1040L319 967V836L322 815L319 793V662L322 647L319 612L322 582L319 559L322 539V451L319 440V262Q319 232 356 195L381 190H387Q410 190 428 207T449 248V541L451
549V731L455 778V973L459 1008V1083L467 1096L459 1266V1274Q459 1315 462 1324T483 1333L506 1335H686Q709 1335 709 1309V1307Z" />
<glyph unicode="V" glyph-name="V" horiz-adv-x="741" d="M680 1313Q680 1295 674 1262L673 1254Q672 1247 672 1241Q671 1238 670 1230T668 1217Q645 1051 639 1028Q631 996 631 977V928L612 834V811L604 772L608 754L594 702V664L588 653L586 612L575 586V559L569
549V516L553 385Q553 376 549 336L526 186L524 143L518 133L524 98L514 86V55L508 18L496 0Q486 -3 481 -6L469 -10Q463 -10 461 -6H453L442 -8L369 0H305Q283 0 250 6L238 37L231 61L236 66L231 100V129L217 215V217L215 231Q212 255 209 266Q205 282 205 285Q203
285 203 291L201 313L186 397V414L184 420V424L183 430Q182 435 182 440Q179 443 176 477L145 659Q144 665 142 682T137 711Q133 749 129 766Q125 796 125 797L119 854Q117 869 113 883Q113 893 109 911L104 940Q104 950 102 965Q102 979 92 1030L61 1317L76 1329L109
1333H219L254 1335L270 1325Q285 1272 285 1239Q285 1227 291 1206Q305 1140 311 1069L319 993L322 991L324 983L328 975L330 934Q330 933 334 911Q334 907 335 901T336 893L340 881V856Q340 843 346 801Q348 797 348 791L360 735L371 752V770L375 778V821L395
926Q396 930 403 979Q407 993 410 1024Q425 1116 428 1147V1176Q428 1182 430 1186L453 1319Q456 1333 471 1333H623L651 1335Q670 1335 675 1332T680 1313Z" />
<glyph unicode="W" glyph-name="W" horiz-adv-x="1191" d="M1130 1294L1128 1272Q1127 1260 1120 1202L1090 991Q1087 968 1083 961V938L1079 934V889Q1079 887 1079 885T1077 877T1075 868Q1074 865 1067 827L1038 610Q1038 609 1037 602T1036 588Q1034 580 1034
573L1032 539L1018 469Q1018 468 1018 463T1017 450T1016 432Q1016 431 1012 397L991 252Q988 226 979 172Q973 142 973 127L967 78Q966 72 965 65T964 55T963 49Q960 15 942 0H770Q761 -1 753 -2T739 -3T731 -4Q723 -4 713 0H707Q700 0 696 2L686 14Q683 29 682
33L649 276L637 336Q637 340 631 358T618 416L614 449Q610 469 610 471V481Q609 482 606 508Q605 513 603 530T598 559L590 604L543 352V348L537 326V322L530 297L522 248V233H520V231L514 201Q514 193 514 187T512 178V174V172Q512 171 510 166Q509 162 508 160L506
152L510 123L504 98L500 96L502 84L492 63L496 37H483L489 12L467 2L344 6L315 2H256L223 6H221Q217 6 205 12Q184 41 184 57V63L182 70Q181 77 178 98L176 141V137L166 256L156 303L141 451L137 473V481L133 555Q133 573 131 592L125 629V633L121 653V682L117
711L104 717L113 721L106 811Q103 846 96 858V893L88 928Q85 994 82 1038T77 1096T74 1122T72 1145Q72 1152 70 1156T66 1184Q66 1196 63 1198V1253L61 1262L68 1313L72 1315L78 1329L106 1333H213L233 1335H258Q281 1335 281 1325Q281 1317 276 1313L352 944L356
936L352 930L362 829L371 782L385 778L410 918L414 930L412 942Q418 951 418 954V958L420 965Q433 1032 440 1100L442 1118Q443 1124 444 1130T445 1140T446 1147V1149Q447 1150 469 1262L477 1319Q490 1335 514 1335H518L565 1331H610L637 1329L668 1331Q692 1331
700 1315T713 1239Q714 1234 715 1225T717 1201T721 1174L735 1087Q750 983 768 926L766 881L776 848V831L780 801L781 796Q782 791 782 786V780Q782 765 803 700V705Q812 740 815 764V770Q820 810 823 819Q836 890 836 946V950Q852 989 852 1016V1059Q852 1062
868 1137L877 1194Q883 1244 883 1255L885 1282Q886 1311 894 1321T924 1331H1106Q1120 1331 1125 1327T1130 1309V1294Z" />
<glyph unicode="X" glyph-name="X" horiz-adv-x="720" d="M700 1317Q700 1300 647 1147L537 825Q479 663 479 637V633Q480 630 481 625T483 616L678 39L680 27Q681 26 682 24T684 20V2L633 -2L618 0H481Q453 0 444 10L358 252Q292 64 291 59V53Q285 18 277 9T242
0H145L111 6L72 4L51 14L20 27Q23 34 39 82L43 98L125 322Q229 600 240 653L102 1083Q89 1128 73 1179T55 1235Q40 1276 29 1319V1321Q40 1335 63 1335H111H125L154 1333Q160 1333 166 1331L242 1335H246Q265 1335 270 1317L332 1124Q335 1117 338 1104Q344 1078
354 1055L358 1042Q360 1038 361 1031Q363 1024 365 1024Q366 1024 375 1042Q380 1058 383 1063L463 1292Q463 1296 467 1307T475 1321Q483 1335 500 1335H502L528 1331H694Q700 1328 700 1317Z" />
<glyph unicode="Y" glyph-name="Y" horiz-adv-x="712" d="M266 1319H264L371 1044Q374 1036 383 1036L377 1038L459 1321L479 1335L494 1333H608L623 1329H692L696 1321L606 1008Q590 966 588 950Q569 893 563 872Q560 864 557 838Q533 787 520 741L500 672L502
653L494 449L496 428V360L494 342V80L492 76L494 51V16Q494 -6 479 -6L424 -2H299Q263 -2 256 12V129L258 147L256 176V362L254 383L256 414L254 434V571L252 575L256 586V616L254 625V668L242 688Q236 697 227 727Q223 744 188 838Q167 892 106 1075L31 1290Q31
1294 29 1294L20 1315Q20 1327 24 1331T39 1335L80 1337L250 1333Q258 1333 264 1321H266V1319Z" />
<glyph unicode="Z" glyph-name="Z" horiz-adv-x="677" d="M655 68L657 47Q657 24 647 4L586 0H322Q295 -2 281 -2H225L209 0H188L178 2L141 0H51L41 10Q74 142 82 170Q95 224 129 342Q148 413 154 428Q161 454 162 455L170 485V498L176 522L203 598Q210 613 223
672Q275 862 344 1081L352 1106V1124H260L227 1126H33L20 1147V1305L37 1323H393L463 1329H645L651 1317L647 1305Q622 1200 612 1167L598 1106V1110L586 1067L578 1038V1034L571 1020L565 999Q559 978 559 973L555 956Q553 944 553 924L543 899Q528 863 522 838L473
655Q473 654 472 650Q470 645 469 641Q465 623 451 573T428 492L426 481Q425 475 424 471T423 464T422 461V455Q418 441 414 429T408 412L360 246L356 223L365 209H397L401 211H559Q590 211 604 213H618Q648 213 653 201L657 188L655 174L657 152L653 78Q655 76
655 68Z" />
<glyph unicode="[" glyph-name="bracketleft" horiz-adv-x="624" d="M563 -244L559 -260V-317L557 -344L526 -352H276L266 -350L250 -356H190L172 -352H109L78 -350L70 -324V500L66 520V727L61 764L66 772V883L70 930L66 979L68 1028L66 1040V1225L70 1253V1401Q70
1417 79 1427T102 1438L147 1436L199 1438L231 1436L256 1438H289L356 1442H469L489 1444L506 1442L530 1446L557 1436L563 1421V1368L559 1352V1294L557 1266L526 1260H281L272 1257V301L268 274V211L272 193L268 178V82L266 70L268 59L266 18L268 -29L266 -57L268
-80V-109L272 -170H469L489 -168L506 -170L530 -164L557 -176L563 -190V-244Z" />
<glyph unicode="\" glyph-name="backslash" horiz-adv-x="907" d="M887 -354L856 -356H786L766 -358H700L678 -354L657 -332L655 -307L635 -276L582 -111L567 -82L563 -61L547 -31L532 18L469 176L457 193L453 211L428 274L414 301L362 449L297 602L283 653L258
707L233 770L227 793L139 999L115 1073L80 1149L59 1210L35 1264L20 1309V1311Q20 1320 29 1329L59 1339H84L100 1337L160 1339L188 1335L203 1339L238 1317L248 1294L260 1255L274 1227L348 1044L352 1030L373 981L387 932L457 774V764L557 520V500L596 424L647
293H657L780 -63L795 -86L797 -100L885 -326L887 -354Z" />
<glyph unicode="]" glyph-name="bracketright" horiz-adv-x="624" d="M563 764L555 -61L557 -84L555 -98V-324L547 -350L516 -352H453L434 -356H375L358 -350L348 -352H98L68 -344L66 -317V-260L61 -244V-190L68 -176L94 -164L119 -170L156 -164L352 -174L356
-109V-80L358 -57L356 -29L358 18L356 59L358 70V178L352 193L356 211V1257L344 1260H98L68 1266L66 1294V1352L61 1368V1421L68 1436L94 1446L119 1442L135 1444L156 1442H268L336 1438H369L393 1436L426 1438L477 1436L522 1438Q536 1438 545 1428T557 1401V1253L559
1225V1040L557 1028L559 979L555 930L559 883V772L563 764Z" />
<glyph unicode="^" glyph-name="asciicircum" horiz-adv-x="843" d="M823 985L813 977H700Q628 977 608 985Q586 991 545 1061Q515 1119 424 1221L238 985Q226 977 143 977H31L20 985L39 1016L41 1018Q55 1035 61 1059L106 1114Q111 1118 117 1125Q118 1127 119
1128L123 1133L137 1155L150 1165V1176Q180 1203 205 1237L242 1284Q270 1323 285 1331Q287 1335 328 1335H344L385 1337L430 1331L481 1335H516Q549 1335 555 1333Q562 1333 586 1307Q599 1285 600 1284Q601 1282 603 1280Q607 1276 612 1270Q614 1267 623 1257T639
1237Q658 1210 692 1176V1165L707 1155L717 1133L719 1128Q763 1084 782 1059Q784 1045 805 1016L809 1010Q811 1007 815 999T823 985Z" />
<glyph unicode="_" glyph-name="underscore" horiz-adv-x="1056" d="M995 -162L989 -190V-213Q989 -246 934 -246H885L860 -248H537L498 -246H434Q414 -254 399 -254Q383 -250 365 -250L358 -248H356L332 -254L299 -246H119Q66 -246 66 -225V-205L61 -186L66 -109Q69
-84 115 -84H287L319 -82L377 -84H758L778 -92L817 -86H930Q966 -86 979 -96Q987 -104 989 -121L995 -162Z" />
<glyph unicode="`" glyph-name="grave" horiz-adv-x="462" d="M401 1128L391 1118H303Q241 1118 229 1126Q225 1131 202 1165T131 1272T33 1427Q24 1444 20 1450L35 1460L158 1454Q184 1454 188 1452Q198 1452 211 1427Q217 1421 225 1409L254 1362Q277 1328 297
1305V1296L307 1286L317 1264Q331 1248 360 1206L367 1196V1194Q368 1192 369 1187Q370 1184 371 1182L389 1151Q390 1147 401 1128Z" />
<glyph unicode="a" glyph-name="a" horiz-adv-x="724" d="M702 41Q702 29 694 12Q686 -7 678 -12Q662 -27 590 -27Q527 -27 495 -12T428 49H426Q413 49 408 41L406 39L399 35Q398 34 395 32T389 27Q380 21 375 16L350 0L324 -10Q274 -23 266 -23L213 -20Q200 -15
176 -12Q94 31 56 85T18 213L23 260V299L29 348V358Q29 376 46 410T88 473Q147 535 238 571L301 598Q349 617 366 642T383 715Q383 752 370 768T326 784Q301 784 295 764L264 690L254 680L231 674L205 672H104L100 674L59 672Q45 686 39 705V727L43 770L41 791Q64
847 81 875T125 930Q189 991 307 991Q332 991 406 983Q457 972 494 948Q546 907 557 889L582 848L623 760L629 705V569L627 551L631 543L623 537L625 526V475L633 467L627 440L631 426V387L629 373V340Q629 240 659 201L680 174L698 141V119L702 96L698 72L702
41ZM401 305V373L391 446V469H387L379 461Q301 357 297 350Q266 297 266 266Q266 260 268 252V248Q268 232 275 221T303 193L322 186L348 193Q399 218 399 264L401 305Z" />
<glyph unicode="b" glyph-name="b" horiz-adv-x="698" d="M678 156L676 139V111Q676 75 625 27Q565 -23 510 -23H440Q426 -23 418 0L389 -2L352 20L309 53H297L291 45Q228 -25 211 -25H168Q125 -25 99 -13T72 18V78L70 88L74 121V150L72 160L74 168L72 176V203L66
225L70 248L68 270V383L63 391L68 397L66 414L70 424L68 434L70 451L63 461V745L68 799V1040L66 1059L68 1100L70 1108V1214L68 1227V1247L70 1257L68 1264V1272L70 1282V1305Q70 1324 92 1327L123 1329L147 1333H272Q298 1333 301 1305L303 1284L297 1253V924L305
918L334 942Q360 961 379 967H383Q386 967 395 973Q419 991 455 991Q506 991 551 975T618 930Q635 908 664 854L666 848V793L672 758L668 745L670 715V436L674 412V248L676 236V178L678 156ZM436 436L432 457V485L428 543V643L424 657L430 684L428 692L420 696L424
707L416 727Q413 737 398 746T365 758L354 750L342 754L334 750V739H322V731L319 727Q307 703 307 692L309 659L303 643L305 616L303 608V537L299 514L303 483L299 451L303 399L299 385L301 362V256Q301 224 324 199T377 174Q388 174 397 180Q414 190 422 201V203L424
207Q433 232 438 311L432 424L436 436Z" />
<glyph unicode="c" glyph-name="c" horiz-adv-x="747" d="M686 322L684 287V233Q684 133 605 57T422 -20H303Q212 -20 139 53T66 215V438L61 451L66 457V565L61 582H68L63 653L68 666L66 688V772Q63 780 63 786Q63 812 86 855T137 926Q205 991 309 997H395Q398
997 438 993Q451 991 463 991Q465 989 469 989H471Q526 982 598 924Q643 885 653 862Q674 823 678 756L682 659V653Q682 631 676 625Q671 616 621 614L524 608H496Q446 608 440 610Q438 610 434 614Q428 618 428 680V702Q428 776 373 776H367L336 770L330 764V745L315
741L307 705L311 672L309 655V455L311 438L303 432L309 311L315 299L311 287V227Q311 211 329 198T369 184Q404 184 420 209T436 291V330L434 338Q434 358 440 364T463 371H471L510 367L594 373L645 371Q653 373 664 373Q684 373 684 356L686 322Z" />
<glyph unicode="d" glyph-name="d" horiz-adv-x="710" d="M649 160L647 57L637 -10L616 -18H463Q406 -18 406 18V47H377L362 35L358 27L350 25L332 8Q307 -10 262 -12L256 -10L246 -12Q229 -16 201 -16Q160 -16 135 -6Q103 10 55 63L47 82Q38 103 37 113Q31 131
31 137L29 168L20 211L25 221L31 229V322L27 356L20 365L25 379V559L20 567L25 582V670L20 686L25 692L31 834Q34 873 49 903Q61 926 61 938L80 952Q142 1004 223 1004Q288 1004 338 965Q369 932 393 881L403 893V944L399 963L408 981L401 1012V1327L410 1341L428
1346H616L629 1341L635 1327L637 1313V922L635 915L637 874L639 862L637 838V729L639 705L643 696L635 651L645 446L643 430L647 418L643 395V289L645 276V176L649 160ZM406 528L401 543L406 553L401 618L406 709V711Q406 736 393 752T348 780Q316 779 299 758T281
698V322L279 291L283 244Q284 221 299 207T336 193Q396 193 399 240V354L395 358L406 528Z" />
<glyph unicode="e" glyph-name="e" horiz-adv-x="665" d="M645 252Q645 180 622 129T549 37Q511 10 498 6Q465 -10 440 -14Q387 -29 373 -29H272Q224 -29 166 0Q136 16 86 61L84 68L76 76L70 92L59 106Q23 158 23 209V434L25 453L23 487V571L25 590L31 606L20
643L23 672V774Q23 794 47 838Q82 897 121 926Q198 985 303 991L334 993L358 991Q468 983 530 941T614 813V811Q615 810 616 807T618 801Q628 775 631 735L633 723Q633 713 637 705V641L643 633L639 623V543L641 524L645 518L639 508V449L637 438Q632 424 602 422H406L369
424H289L276 414L268 369V365L274 352V266Q274 244 307 211Q323 195 342 195Q364 195 379 219Q382 226 389 233L391 260L389 301L391 317V324Q391 352 489 352L506 350H621Q645 350 645 252ZM395 713V715Q395 719 393 723Q391 740 379 750L354 768L332 770L287
745L272 723V645L274 621L272 590L340 584Q383 584 383 596V598L391 631L389 635V668L391 672L395 713Z" />
<glyph unicode="f" glyph-name="f" horiz-adv-x="546" d="M526 1243L514 1151Q481 1148 459 1141Q417 1135 408 1120Q397 1110 391 1096Q389 1091 386 1082T379 1066T373 1051V1026L391 1014H465L475 1004V918L473 911V807Q461 795 451 795H406Q383 795 379 791L377
786L375 782Q375 779 375 772T373 751T371 725V457L367 416L373 389L365 362L373 344L365 328V219L367 193V10L356 -10H154L123 -2V125L129 195V240L123 244L133 412L131 430V539L133 559V750L131 758V782L125 791H37L27 797L20 813L25 913L20 961V1004L41 1012H135V1133L154
1157L145 1194V1200Q145 1217 162 1246T201 1296Q259 1354 324 1354L371 1356H512L526 1348V1243Z" />
<glyph unicode="g" glyph-name="g" horiz-adv-x="864" d="M844 -137Q844 -248 757 -313T522 -379H479L362 -385L326 -383Q315 -383 307 -381Q160 -344 129 -328Q103 -314 82 -273T61 -193Q61 -161 76 -130T115 -84Q170 -42 170 -41Q170 -37 145 -20L115 -6L94
18Q81 35 71 63T61 113Q61 243 266 270Q190 319 158 366T125 481V559L123 575L127 590L123 612L129 745Q134 840 223 915T422 991H444Q471 1002 471 1014Q473 1016 477 1028Q479 1032 482 1039T487 1051Q501 1085 510 1096Q516 1102 532 1116T551 1133Q585 1160
633 1181T713 1202Q734 1202 745 1188L752 1157L748 1108Q748 1104 746 1097T743 1083L733 1079Q643 1050 629 1040Q601 1017 567 983H565L668 905L672 899Q674 896 690 877Q748 795 748 741V727L752 707V676L748 637L752 606L748 580L752 532V487L745 434Q742
412 725 381Q703 345 684 326L674 317Q662 305 625 285Q614 278 602 272T582 260Q501 231 446 229H406L358 233Q342 236 330 236Q322 236 287 229Q278 224 271 220T261 215T257 213T254 211L244 195L254 154L258 147V145Q262 145 266 141L274 137Q275 137 287 133L326
123H539Q662 123 753 46T844 -137ZM500 657V672Q500 712 483 734T434 756Q430 756 426 754Q400 746 393 733L381 709L377 664L381 608L377 588V508Q377 495 393 471Q411 453 434 453Q461 453 481 473Q498 492 498 508V635L500 657ZM588 -123Q588 -99 576 -93T516
-84H387Q346 -84 326 -125Q335 -155 342 -160Q357 -178 428 -178L551 -170Q588 -160 588 -123Z" />
<glyph unicode="h" glyph-name="h" horiz-adv-x="741" d="M680 358L670 332L672 307L676 297L670 281V141L674 74L672 72Q670 69 649 41Q645 30 637 20L633 12L598 0L580 -4L547 -6L492 -2L463 -4Q428 -4 428 27L426 59V137L430 156L426 254L428 289L426 317V588L422
598V715Q422 747 407 761T360 776H348L328 764L324 758L303 725L295 682L303 649L295 610L301 600L293 578V233L295 199V86L299 49V45Q299 -6 258 -6H207L199 -8L182 -6H119Q87 -6 78 3T68 45V86L66 111V360Q66 442 61 485V688L63 723V942L61 975L66 1030V1122L63
1145V1264Q63 1303 69 1316T96 1329H172Q234 1329 279 1319Q297 1317 297 1284L295 1243L299 1206V1124L295 1102V1049L293 1014L295 981V975Q295 966 303 922L350 963L432 993Q444 997 451 997Q492 997 535 979L555 969Q579 961 590 950L602 940L625 911L651 872L666
821L668 817V815L672 799L670 772L674 739L668 727V682L666 651L670 625L666 592L670 580L666 471L668 432L672 420L668 395Q673 376 680 358Z" />
<glyph unicode="i" glyph-name="i" horiz-adv-x="380" d="M319 168L313 123V45Q313 16 303 6L293 0L281 -2Q279 -2 269 -2T237 -4T193 -6L100 -10Q76 -4 71 1T66 27L68 29V203L66 229V272L61 322L70 346V444L63 461L68 467V524L72 532L68 571V600L72 641V893Q72
967 79 984T119 1001Q129 1001 133 999H285L303 991L313 967V797L315 782L311 748L313 717V229L319 168ZM307 1282L301 1264L305 1233V1182Q305 1140 299 1130T264 1120H215L201 1124L174 1122L113 1126L86 1133Q74 1142 74 1163V1294Q74 1333 125 1333H225Q279
1333 293 1325T307 1282Z" />
<glyph unicode="j" glyph-name="j" horiz-adv-x="530" d="M481 598L473 590V528L465 510L473 479L471 461V291L473 279V272Q473 266 469 246L475 166L471 141V90L477 72Q476 65 473 35Q473 32 472 28T471 23V16L465 -33V-117L457 -143L451 -158Q449 -160 449 -164Q446
-166 446 -172Q446 -174 447 -178T449 -184Q449 -206 423 -241T360 -305Q312 -345 250 -367Q198 -381 76 -381Q14 -381 14 -362V-219Q18 -203 18 -195Q45 -170 68 -170H111L145 -160L147 -158L199 -131Q218 -115 236 -57L242 -35L238 55L240 84V406L238 432L240
475L242 479L233 506V967L238 981L289 985H438Q467 985 467 958V870L471 829L477 801L473 762V604L481 598ZM465 1102H442L422 1100H303L236 1106L215 1141L240 1227L223 1260L225 1305L229 1329H432Q465 1329 465 1284V1102Z" />
<glyph unicode="k" glyph-name="k" horiz-adv-x="739" d="M678 27Q678 17 672 8L668 4L662 0L616 -2L584 0H432Q420 50 411 88T396 146T387 178T382 195T380 203T379 211V217Q377 217 377 223Q356 295 352 315L332 393L330 395L326 406L319 393V254L313 236V25L305
-4H145Q98 -4 88 6Q78 11 78 61V336L72 377V502L70 514L72 530L68 543V705L61 739L68 760L66 772L63 823L68 844V1001L66 1032L68 1051L66 1063Q63 1071 63 1124L66 1153V1237L61 1286L68 1323Q68 1325 74 1331Q78 1335 84 1335Q88 1335 90 1333H231Q275 1333 283
1329Q287 1329 289 1327Q294 1322 299 1292Q299 1291 300 1289T301 1284V1262L303 1251V938L309 930V702L313 641H322L324 631L313 627L311 608L322 604Q360 691 360 729V735Q360 766 379 842T424 985Q429 999 434 999H621Q650 999 659 995T668 975L666 969L643
862V858Q641 858 641 852Q637 840 637 838Q631 819 627 791Q625 786 625 782L602 700Q598 688 598 686V678Q598 670 580 600Q579 598 578 593T574 580T569 563Q556 513 555 512Q549 491 549 481T559 444T601 314T670 49Q678 38 678 27Z" />
<glyph unicode="l" glyph-name="l" horiz-adv-x="378" d="M317 18L305 0L287 -4H213L193 -2H119L80 0L74 23V84L72 94V199L70 211L74 229L66 328L70 348V506H68V610L72 670L68 686V743L66 764V848L61 877L68 885V971L76 1008L68 1047L70 1085L68 1096V1167L66
1192L70 1262V1311L94 1329L117 1325L141 1327H209L221 1329H236Q259 1329 291 1319L301 1303L307 1270V1061L301 973L305 948L301 924L305 899L301 881L307 831L305 788L309 750V512L307 492V442L309 428L307 416V340L305 332L307 322L305 291L307 254L305 229L307
213V190L313 106V63L315 47L311 37L317 18Z" />
<glyph unicode="m" glyph-name="m" horiz-adv-x="1107" d="M1047 330L1042 315L1038 285L1040 246L1036 231V23L1026 2L795 -6L786 10V227L782 233L786 246V309L788 340L786 373V420L782 438L791 467L788 487V664Q791 666 791 672V680Q791 711 760 750L743 756Q739
758 733 758Q712 758 701 747T686 711L684 698V678L682 664L688 647L678 623V588L682 569V545L678 522L676 475L688 229L686 211L688 199L686 195L692 90V27L694 12L676 -4H524L520 -2H444Q434 -2 431 2T424 25L422 33V137L420 166V207L418 211V694L410 700L412
709L408 731L385 752H354Q334 752 321 734T307 690L305 686V604L311 569L307 543V494L313 408L317 395L313 389V352L315 336L311 328L315 258V184L317 164L322 145V57L326 37V18L322 6L309 -6H125Q90 -6 80 4Q76 8 76 10L72 45L66 119V338L63 369V981L76 995H276L297
993L305 969V948L315 940Q319 943 335 956T358 975L383 991L401 995H453Q518 995 553 971Q571 961 614 918L625 899H627L629 897Q631 895 635 895T645 907Q647 909 653 922Q707 997 836 997Q886 997 927 976T991 915Q995 911 997 911Q1007 902 1020 858Q1032 821
1040 801V680L1036 676V657L1042 641L1036 616V596L1040 547L1034 543L1040 528L1036 494L1040 465L1034 432L1044 426L1036 397L1040 387L1036 375V342Q1047 339 1047 332V330Z" />
<glyph unicode="n" glyph-name="n" horiz-adv-x="735" d="M674 25L649 0L637 -4Q631 -6 618 -6H612L567 -4L559 -10L539 0H424L422 10L414 23V143L412 156L416 168V303L414 322H410V352L414 403L410 451L416 477L410 567L414 594L412 604V627L416 672Q416 762
373 762Q345 762 327 740T309 686L307 637L309 614L305 596L309 573L301 551L303 537V360L305 342L303 340V297L305 287L303 279V270L305 266V180L311 113L305 94Q309 62 309 51Q309 21 291 8T231 -6L164 2H117Q85 2 74 10T63 43V143L61 168L68 174L66 193L72 201L57
211L72 440V530L66 551L70 598V635L76 696L70 727L72 766L70 817L74 854V979L100 993H238Q284 990 291 987Q301 984 307 967L309 948L326 944Q362 971 387 980T453 989H481Q527 989 567 961Q605 935 630 905T655 856V829L657 803L664 770V639L657 621L662 578L655
545L653 524V446L664 432L662 416L664 360L672 350L664 340L666 328L664 297V227L662 221L666 170V106Q666 80 668 63L670 41L674 25Z" />
<glyph unicode="o" glyph-name="o" horiz-adv-x="663" d="M643 715Q643 690 639 680V506L633 494L639 369L637 344L641 305L635 193Q635 176 631 168Q615 111 541 27Q479 -6 434 -18Q402 -29 324 -29Q213 -29 150 6Q97 34 59 87T20 186V440L23 451V780Q23 809
51 851T119 924Q211 993 322 993Q468 993 555 918T643 715ZM393 518L391 539V594L393 616V690Q393 729 378 750T334 772Q305 772 286 753T266 702Q266 692 268 690L272 676V604L276 594V535L274 508V455L272 430V252Q272 221 290 201T336 180H344Q372 193 379 207T389
262L385 346L393 518Z" />
<glyph unicode="p" glyph-name="p" horiz-adv-x="698" d="M678 150Q678 119 657 84Q632 38 582 10T475 -18Q407 -18 340 41L332 55L315 78V-307Q315 -338 285 -347T154 -356H119Q103 -356 76 -350L61 -334H76V-317L72 -291V-182L74 -158V-78Q76 -63 76 -51L72
-18V6L74 18L70 25V891L66 930L68 967V971Q70 988 72 991Q75 999 96 999H268L297 1001L303 985L307 913Q343 952 362 968T406 993Q427 1006 477 1006Q551 1006 612 955T674 840V567L678 557L676 535V279L674 256L676 211L674 193Q678 155 678 150ZM434 268L432
422L434 444L432 465L438 537L430 707Q429 747 416 763T373 780Q350 780 332 767T311 733L307 705L301 680L303 670L301 639L307 541V279Q314 258 334 225Q336 221 373 209Q434 226 434 268Z" />
<glyph unicode="q" glyph-name="q" horiz-adv-x="714" d="M653 930L647 891V25L645 18V6Q647 2 647 -4Q647 -8 645 -10V-98L651 -182L643 -334Q643 -343 633 -349T606 -356H565Q464 -356 434 -347T403 -307L406 -305V82L403 78Q383 50 379 41Q309 -18 244 -18Q167
-18 109 29Q41 85 41 150Q41 155 45 193V535L41 557L43 567V838Q43 859 60 891T102 952Q153 1006 242 1006Q292 1006 324 989T412 913L416 985L422 1001L451 991L618 999H623Q641 999 645 995Q648 992 651 981L653 930ZM418 639L416 670L418 680L412 705L408 733Q404
753 387 766T346 780Q316 780 303 764T289 707V537L285 487L287 465L285 444V268Q285 246 299 232T346 209Q381 219 385 223V225Q399 252 412 279L422 391L414 596L418 639Z" />
<glyph unicode="r" glyph-name="r" horiz-adv-x="696" d="M676 649Q676 617 659 607T582 590Q578 590 551 587T502 582Q442 594 432 598L424 614V674L414 733Q392 758 369 758Q338 758 328 737L311 717V338L309 322V219L311 190L309 170V137L315 119V74L303 18H301Q300
17 287 8Q283 7 275 4Q271 2 270 2L262 -6Q262 -10 258 -10H205H154Q124 -10 100 0Q81 9 80 12L68 41V104L66 111L68 135V354L70 379L66 434V543L61 567V590L66 631L61 670V807L68 891V948Q68 995 137 995H293L313 977L322 948L334 952Q398 995 471 995Q552 995
614 941T676 815V735L674 715L676 692V649Z" />
<glyph unicode="s" glyph-name="s" horiz-adv-x="739" d="M678 215L664 150L672 131Q660 128 649 104Q646 101 639 91T625 72Q614 61 602 41Q562 10 522 -12L467 -27L408 -31L391 -37L336 -43H317Q205 -37 133 50T61 266Q61 283 61 290T63 304T69 313T80 315Q90
315 98 313L295 322L303 303V287Q303 248 309 211Q339 182 350 176Q390 182 405 195T420 236Q420 272 389 322L375 334Q371 339 362 342Q349 350 324 367L229 432H227L217 440Q216 441 211 445T201 453Q191 458 184 465V467L182 469L160 496Q133 527 106 571Q89
607 84 625Q84 628 66 690L63 698V743Q63 846 151 919T365 993Q479 993 565 923T666 748L670 719L676 641Q676 632 653 618H606Q598 618 586 617T573 616L555 612L526 616H489L442 623V672Q442 718 423 747T371 776Q321 776 315 719L313 692L315 678Q317 666 324
657Q336 641 350 627Q355 620 410 578Q417 573 418 573L424 567L432 561Q444 557 459 547Q487 528 508 520Q517 515 523 510T543 498L551 485Q556 480 567 473T584 459Q597 437 608 426L637 385Q639 381 649 356Q654 335 662 315Q667 301 672 256L674 233L678 215Z"
/>
<glyph unicode="t" glyph-name="t" horiz-adv-x="573" d="M512 0Q501 -22 483 -29H342Q283 -7 259 7T199 55Q160 118 160 145V285L162 311V528L160 535L162 569L160 604L162 631V745L160 750Q160 753 152 764L129 766H96Q80 766 68 774Q68 777 63 780Q61 782 61
784V866L63 879L61 901L66 922V932Q66 952 78 975Q96 985 164 985H168L172 1008V1098L174 1112Q180 1146 211 1167Q215 1168 252 1186Q323 1210 334 1214Q340 1217 350 1217Q403 1217 403 1145V1077L399 1034V1006L406 985L424 981L444 979Q488 974 499 969T510
944V938L506 924V801Q506 782 502 774T485 766H446Q420 766 411 762T401 745Q401 737 406 731L403 707V655Q403 649 399 637L403 614V436L408 428L403 365L399 352V303L401 266Q404 207 479 178Q501 171 506 166Q510 164 510 152V33L512 0Z" />
<glyph unicode="u" glyph-name="u" horiz-adv-x="745" d="M684 -8L666 -18L623 -20L610 -27H578L563 -29L541 -25H459Q444 -25 435 -18T426 0V12Q426 21 420 39L418 47Q406 41 391 23L369 -2L346 -10Q312 -25 295 -27L293 -29H289Q281 -29 270 -33H229Q159 -32
111 5T63 94V174Q63 180 61 182L63 195V479L70 494L66 500V621L63 645L68 690L61 807L63 842V956L94 971H268Q296 971 304 964T313 930Q313 924 309 920V705L305 680L309 664V604L315 553L313 541Q311 528 311 506L313 487V397L309 334L311 328V209L330 182L358
172Q398 182 413 203T428 270V453L430 475L426 502L428 512V520L422 524V926Q422 950 431 959T463 969H469L549 963H637Q649 963 666 944L674 782L668 676L670 653V530L672 504V440L676 436L672 391V307L678 246V82L680 72L676 66L680 35L676 10L684 -8Z" />
<glyph unicode="v" glyph-name="v" horiz-adv-x="673" d="M612 819L610 784Q610 783 609 780Q607 777 606 774Q606 773 605 770T604 764L600 748V727L594 713L590 688Q586 676 586 670L580 639Q577 628 574 614T571 598L569 580Q567 569 567 561L571 541L563 535L530
379V377Q520 362 520 324V319Q520 299 506 236Q506 235 502 215L498 207L500 174L496 156L485 125L479 90V66L467 23V14L463 2V-6L457 -4H391L365 -6L360 -4L307 -6L276 -4L252 0Q250 0 248 -1T244 -2Q230 -2 219 18V23L201 119Q195 133 188 143L193 164L188 195Q188
201 178 231Q176 244 166 276L172 289V315L164 346L158 381L152 401V428L141 432L145 451L133 502L131 506L129 510V512L127 559L109 635V662L102 684Q102 685 101 693T100 711Q99 714 98 724T94 743Q66 901 66 905Q63 911 63 915Q61 924 61 930Q61 953 65 959T86
967L205 975H231L260 979L287 971V967Q288 965 289 960T291 951T293 946Q301 922 301 913V911L303 907L305 897Q305 893 307 889Q333 800 336 756V743Q336 731 348 711Q352 707 356 705Q359 736 360 741Q360 754 362 756V762L371 778L369 803V805L371 817Q375 829
375 834L379 854L381 858Q387 882 387 893L389 930Q395 985 424 985H426L463 983L510 985L569 981Q578 981 588 971Q608 958 608 940V938L602 920V905Q602 889 606 870Q610 860 610 852L612 819Z" />
<glyph unicode="w" glyph-name="w" horiz-adv-x="1073" d="M1012 915L997 905L1001 891L993 877L981 821Q985 809 985 807L981 795L977 786L975 782L971 752L989 737L971 731L977 719L967 713L963 684L971 662H958L950 631L958 618L948 610L944 594L954 575H942L922
434L926 424L913 420L922 416L924 403L913 395L915 356L905 352L901 338H909L911 324L899 322L862 63Q854 15 850 6Q840 -10 827 -10H799L795 -18L754 -10L748 -18L711 -12L698 -18L692 -10L680 -16L631 -12Q616 -10 608 -10Q604 -10 600 -8Q589 1 580 57Q580 69
573 100L551 211H541L549 225L539 227L547 238L541 264V250L522 242L516 227L530 229L524 215L528 203H516V188L506 184L508 174L516 168L506 160L514 139L504 147L498 131L510 123L498 121Q489 109 487 82Q480 -10 444 -10H338L334 -18L322 -10H268Q248 -10 240
-2Q232 4 229 12T221 49L195 195L193 225L184 242L164 371L160 426L156 436L152 465L137 524L127 598L121 604L123 625L104 721L102 745L78 854L74 899L63 938L61 963V965Q61 980 78 983H145L217 979L262 981H264Q292 981 303 954L342 721Q343 707 348 698T358
688Q372 688 381 754L389 819L408 891V913L420 956Q421 961 423 967Q424 970 424 971L428 975Q432 979 434 979Q438 979 438 983H504L551 979H631Q658 977 662 956L676 885L690 864L680 870L682 856L692 852L686 827L696 768Q698 756 700 745T703 729T705 723L709
713Q711 709 717 709H721Q728 716 731 725L750 815L748 838L762 889L760 899L776 954Q776 958 778 963Q780 972 784 974T807 977L840 973L846 981L854 975H967Q1004 975 1004 948V944L1012 915Z" />
<glyph unicode="x" glyph-name="x" horiz-adv-x="620" d="M600 2L594 -12L567 -10H528L463 -8H391Q372 -8 340 92Q325 137 309 160Q306 156 293 129Q289 121 289 119Q287 112 282 100T272 76Q267 66 264 57Q252 20 247 10T231 -2H70L55 -10L20 8V14Q22 21 53 100Q62
122 86 189T129 305Q140 333 190 481L193 489Q190 518 170 565Q168 571 160 590T141 636T121 690L35 932Q33 934 33 938Q27 953 27 963Q27 968 31 972T43 977L51 975L156 981L168 979Q238 977 250 971Q257 966 285 887Q287 882 315 827Q333 827 346 887Q365 975
397 975H582Q594 975 594 965Q594 931 524 766L514 743V725Q486 674 460 605T428 498L598 8L600 2Z" />
<glyph unicode="y" glyph-name="y" horiz-adv-x="649" d="M618 944Q618 940 616 934Q616 932 616 929T614 920T612 909Q612 906 604 848L563 653L514 313Q508 299 500 256L498 250Q497 247 496 241T494 231L479 139Q477 116 467 53Q456 -27 449 -66L442 -106Q438
-128 438 -129Q436 -135 436 -139L432 -170Q432 -174 428 -190L424 -213Q414 -243 385 -276L371 -297Q357 -310 354 -311L350 -313L342 -322L322 -332Q317 -336 305 -342H307L227 -375H98L96 -377L25 -311V-199Q25 -185 33 -180T66 -172Q119 -164 154 -119T190
-12V18Q186 36 182 39L55 739Q46 788 45 793V799Q33 874 25 918Q20 928 20 942V956L37 967H236Q253 967 256 954L295 770V766L299 758Q300 754 301 748Q303 741 303 739L309 709L324 655L330 678L381 915Q382 920 384 927Q385 932 385 934V940L391 958Q396 973
420 973H614L618 944Z" />
<glyph unicode="z" glyph-name="z" horiz-adv-x="663" d="M643 119L635 84L637 74V20Q637 10 629 7T584 -2L508 -10H485L436 -2H63L45 10L47 18Q52 50 61 78Q71 111 86 156V154L260 606Q261 610 274 645V657Q280 663 283 672L309 743V762L246 752L215 756H180L154
745L143 756H53L31 762L20 793L31 967L59 975L82 973H225L293 977L313 981L367 979L373 975H575L637 965L625 915L627 909L616 870L586 795Q585 794 584 791T579 779T571 764L547 709L489 561Q485 553 479 535Q463 498 461 489Q458 481 455 472T449 458T446 451L444
449Q440 435 440 434Q434 428 434 426L432 422Q432 418 430 414Q430 413 429 411T428 408L399 336Q398 331 394 324L391 317L379 285V272L377 268Q371 248 356 225V209L387 203L434 211L449 209H539L578 211H580Q596 211 625 201V199L629 188V180Q631 174 631 170V156L641
141Q639 139 639 135L643 119Z" />
<glyph unicode="{" glyph-name="braceleft" horiz-adv-x="540" d="M528 -342L432 -346Q387 -346 360 -332Q359 -332 357 -331T352 -330Q313 -311 301 -300T264 -252Q230 -198 223 -176Q217 -165 213 -145Q213 -144 207 -111L193 -31Q186 18 186 100V190L180 246V442Q160
476 143 489T86 512V666Q180 704 180 752V883L176 936V1051L186 1206Q189 1241 210 1289T260 1376Q270 1391 281 1399T326 1423Q328 1423 330 1424T334 1425Q361 1440 410 1440H418L502 1436L477 1243Q420 1243 396 1215T371 1120V700Q371 631 283 598V582Q374
540 377 463L383 317L379 266L385 174V68Q385 45 389 23Q392 6 395 -29Q396 -98 420 -125T504 -152L528 -342Z" />
<glyph unicode="|" glyph-name="bar" horiz-adv-x="364" d="M303 -326L289 -350L270 -356H205L184 -352H115L80 -350L72 -324V-98L70 -84L72 -61L66 35L70 92V291L66 293V424L72 500L66 520V727L61 764L66 772V883L72 930L66 979L70 1028L66 1040V1225L70 1253V1315L94
1335L111 1333L135 1335H197H211Q215 1337 221 1337H225Q231 1335 246 1335L258 1331Q286 1323 295 1305V301L291 274V211L295 193L291 178V82L289 70L291 59L289 18L291 -29L289 -57L291 -80V-109L295 -170V-270L299 -289L295 -305L303 -326Z" />
<glyph unicode="}" glyph-name="braceright" horiz-adv-x="540" d="M449 512Q409 503 392 490T356 442L348 377V100Q348 8 336 -74L328 -111Q323 -133 311 -176Q298 -216 248 -285Q236 -299 226 -306T182 -330Q180 -330 178 -331T174 -332Q146 -346 98 -346H90L6
-342L31 -152Q89 -152 112 -125T139 -29Q142 6 145 23Q150 45 150 68V174L156 266L152 317L158 463Q161 544 252 582V598Q206 615 186 637T162 696V1120Q162 1187 138 1215T57 1243L33 1436L117 1440H125Q173 1440 195 1427L201 1425Q202 1425 204 1424T209 1423Q239
1408 251 1400T274 1376Q304 1337 324 1289T348 1206L358 1051V936L354 883V752Q354 704 449 666V512Z" />
<glyph unicode="~" glyph-name="asciitilde" horiz-adv-x="1161" d="M1137 643Q1135 577 1114 516Q1094 465 1055 422Q1007 368 946 340Q911 326 860 324L844 317Q829 322 809 322H801Q764 322 745 332L692 360L688 365Q684 368 639 387L635 389Q584 413 547 438Q423
514 358 514Q339 514 307 494Q272 464 272 438V430Q272 421 266 406V403H20Q27 536 103 623T297 715L338 717Q369 709 401 709H412L426 700Q469 690 499 677T586 633Q592 629 600 625L612 616Q730 537 801 537Q833 537 858 559Q885 579 885 600V608Q885 614 887
623V643H1137Z" />
</font>
</defs>
</svg>
